<?xml version="1.0" encoding="UTF-8"?>
<!DOCTYPE svg PUBLIC "-//W3C//DTD SVG 1.1//EN" "http://www.w3.org/Graphics/SVG/1.1/DTD/svg11.dtd">
<!-- Creator: CorelDRAW 2020 (64 Bit) -->
<svg xmlns="http://www.w3.org/2000/svg" xml:space="preserve" width="600px" height="537px" version="1.1" style="shape-rendering:geometricPrecision; text-rendering:geometricPrecision; image-rendering:optimizeQuality; fill-rule:evenodd; clip-rule:evenodd"
viewBox="0 0 600 536.85"
 xmlns:xlink="http://www.w3.org/1999/xlink"
 xmlns:xodm="http://www.corel.com/coreldraw/odm/2003">
 <defs>
  <style type="text/css">
   <![CDATA[
    .fil3 {fill:#FEFEFE;fill-rule:nonzero}
    .fil21 {fill:#FFCE28;fill-rule:nonzero}
    .fil28 {fill:#F9CFDE;fill-rule:nonzero}
    .fil7 {fill:#F9C8D8;fill-rule:nonzero}
    .fil27 {fill:#F06897;fill-rule:nonzero}
    .fil22 {fill:#FCD728;fill-rule:nonzero}
    .fil4 {fill:#EB5184;fill-rule:nonzero}
    .fil26 {fill:#FBDD2C;fill-rule:nonzero}
    .fil6 {fill:#F2C2D4;fill-rule:nonzero}
    .fil29 {fill:#E9F0F6;fill-rule:nonzero}
    .fil5 {fill:#D73C70;fill-rule:nonzero}
    .fil14 {fill:#D5E9F8;fill-rule:nonzero}
    .fil2 {fill:#D2E8F8;fill-rule:nonzero}
    .fil23 {fill:#D5A039;fill-rule:nonzero}
    .fil17 {fill:#C5DEF0;fill-rule:nonzero}
    .fil18 {fill:#BFD6E7;fill-rule:nonzero}
    .fil19 {fill:#B6CBDF;fill-rule:nonzero}
    .fil24 {fill:#B2883C;fill-rule:nonzero}
    .fil0 {fill:#7AB6E3;fill-rule:nonzero}
    .fil12 {fill:#3577AE;fill-rule:nonzero}
    .fil15 {fill:#2A5797;fill-rule:nonzero}
    .fil8 {fill:#2C0C77;fill-rule:nonzero}
    .fil13 {fill:#387DC0;fill-rule:nonzero}
    .fil9 {fill:#4E1A96;fill-rule:nonzero}
    .fil1 {fill:#5BB1D2;fill-rule:nonzero}
    .fil11 {fill:#5BB1D2;fill-rule:nonzero}
    .fil16 {fill:#850D6D;fill-rule:nonzero}
    .fil10 {fill:#C211A0;fill-rule:nonzero}
    .fil25 {fill:#F562F8;fill-rule:nonzero}
    .fil20 {fill:#F9BAFC;fill-rule:nonzero}
   ]]>
  </style>
 </defs>
 <g id="Camada_x0020_1">
  <metadata id="CorelCorpID_0Corel-Layer"/>
  <path class="fil0" d="M507.499 311.512c-13.506,-7.797 -24.454,-26.68 -24.454,-42.176 0,-5.749 1.524,-10.195 4.11,-13.143 -7.411,0.535 -12.425,6.74 -12.425,17.21 0,15.498 10.95,34.381 24.454,42.177 8.484,4.899 15.934,4.226 20.311,-0.78 -3.542,0.26 -7.629,-0.767 -11.996,-3.288z"/>
  <path class="fil1" d="M499.184 315.58c-13.504,-7.797 -24.454,-26.679 -24.454,-42.177 0,-15.495 10.95,-21.737 24.454,-13.94 13.504,7.797 24.451,26.68 24.451,42.176 0,15.497 -10.947,21.738 -24.451,13.941zm32.08 -9.181c0,-1.939 -0.17,-3.925 -0.418,-5.929l9.884 -1.25c-1.006,-4.975 -2.529,-10.007 -4.48,-14.964l-11.262 -3.406c-1.965,-4.212 -4.329,-8.286 -7.01,-12.09l2.699 -11.366c-3.339,-4.166 -6.957,-8.001 -10.787,-11.366l-6.063 7.841c-1.62,-1.22 -3.264,-2.365 -4.955,-3.341 -1.689,-0.975 -3.334,-1.732 -4.955,-2.38l-6.063 -14.843c-3.829,-1.058 -7.448,-1.4 -10.786,-1.088l2.699 14.481c-2.682,0.708 -5.045,2.055 -7.01,3.998l-11.262 -9.599c-1.952,2.703 -3.475,5.977 -4.48,9.791l9.883 12.664c-0.248,1.713 -0.417,3.505 -0.417,5.444 0,1.937 0.169,3.925 0.417,5.927l-9.883 1.251c1.005,4.976 2.528,10.007 4.48,14.963l11.262 3.406c1.965,4.214 4.328,8.286 7.01,12.09l-2.699 11.366c3.338,4.166 6.957,8.002 10.786,11.368l6.063 -7.842c1.621,1.222 3.266,2.366 4.955,3.341 1.689,0.974 3.335,1.731 4.955,2.381l6.063 14.841c3.83,1.058 7.448,1.402 10.787,1.088l-2.699 -14.481c2.681,-0.708 5.045,-2.053 7.01,-3.996l11.262 9.597c1.951,-2.703 3.474,-5.976 4.48,-9.79l-9.884 -12.663c0.248,-1.715 0.418,-3.507 0.418,-5.444z"/>
  <polygon class="fil0" points="503.389,242.707 497.328,227.864 487.854,233.305 493.917,248.148 "/>
  <path class="fil2" d="M493.917 248.148c1.621,0.648 3.266,1.405 4.955,2.38 1.691,0.976 3.335,2.121 4.955,3.341l6.063 -7.841 -0.004 0.001c0,0 -1.023,-0.642 -1.542,-0.942 -1.689,-0.975 -3.335,-1.731 -4.955,-2.38l-9.472 5.441z"/>
  <path class="fil2" d="M497.328 227.864c-3.832,-1.057 -7.45,-1.4 -10.787,-1.088l-9.473 5.441c3.338,-0.312 6.957,0.03 10.786,1.088l9.474 -5.441z"/>
  <path class="fil2" d="M530.149 251.953c-3.337,-4.165 -6.958,-8.002 -10.788,-11.366l-9.471 5.441c3.83,3.365 7.448,7.202 10.787,11.366l9.472 -5.441z"/>
  <polygon class="fil0" points="520.677,257.394 517.978,268.76 527.449,263.319 530.149,251.953 "/>
  <path class="fil0" d="M517.978 268.76c2.681,3.804 5.045,7.878 7.01,12.09l9.472 -5.439c-1.966,-4.212 -4.329,-8.287 -7.011,-12.092l-9.471 5.441z"/>
  <polygon class="fil2" points="524.988,280.85 536.25,284.256 545.721,278.816 534.46,275.411 "/>
  <path class="fil0" d="M536.25 284.256c1.951,4.957 3.474,9.989 4.48,14.964l9.471 -5.441c-1.005,-4.975 -2.528,-10.008 -4.48,-14.963l-9.471 5.44z"/>
  <path class="fil0" d="M479.767 246.698l-0.786 -4.212 -8.013 -6.83 -9.473 5.441 11.262 9.599c1.965,-1.943 4.328,-3.29 7.01,-3.998z"/>
  <path class="fil0" d="M540.73 324.506c-1.006,3.814 -2.529,7.087 -4.48,9.79l9.471 -5.439c1.952,-2.705 3.475,-5.976 4.48,-9.793l-9.471 5.442z"/>
  <path class="fil0" d="M540.317 306.402c0.25,-1.715 0.418,-3.506 0.418,-5.444 0,-0.571 -0.037,-1.152 -0.067,-1.729l-9.822 1.241c0.248,2.004 0.418,3.99 0.418,5.929 0,1.937 -0.17,3.729 -0.418,5.444l9.471 -5.441z"/>
  <polygon class="fil2" points="530.846,311.843 540.73,324.506 550.201,319.064 540.317,306.402 "/>
  <path class="fil0" d="M524.988 324.699c-1.965,1.943 -4.329,3.288 -7.01,3.996l2.699 14.481 9.472 -5.441 -1.914 -10.27 -3.247 -2.766z"/>
  <path class="fil2" d="M466.543 270.581l-9.528 5.593 9.883 -1.251c-0.181,-1.463 -0.294,-2.909 -0.355,-4.342z"/>
  <path class="fil0" d="M493.917 321.525l-6.063 7.842 9.543 -5.43c-1.175,-0.754 -2.337,-1.55 -3.48,-2.412z"/>
  <path class="fil3" d="M540.67 299.263c0,-0.011 -0.002,-0.024 -0.002,-0.034l0.062 -0.009 0 0 0.434 -0.251c0.015,0.069 0.029,0.138 0.041,0.207l-0.535 0.087zm-19.993 -41.869c-3.208,-4.003 -6.675,-7.702 -10.34,-10.97 3.665,3.268 7.132,6.967 10.34,10.97z"/>
  <path class="fil3" d="M540.078 299.302c-1.006,-4.8 -2.477,-9.649 -4.358,-14.426l-11.262 -3.407c-1.966,-4.213 -4.329,-8.287 -7.01,-12.091l2.699 -11.366c-3.152,-3.932 -6.559,-7.554 -10.152,-10.78l0.261 -0.881c0.028,0.025 0.055,0.048 0.081,0.073 3.665,3.268 7.132,6.967 10.34,10.97l0 0 -2.699 11.366 0 0c2.681,3.804 5.045,7.878 7.01,12.09l0 0 11.262 3.406 0 0c1.951,4.957 3.474,9.989 4.48,14.964l-0.062 0.009 0 0 -0.59 0.073z"/>
  <path class="fil3" d="M520.677 257.394l0 0c-3.208,-4.003 -6.675,-7.702 -10.34,-10.97 -0.026,-0.025 -0.053,-0.048 -0.081,-0.073l0.111 -0.367c3.781,3.322 7.357,7.104 10.66,11.209l-0.35 0.201z"/>
  <path class="fil3" d="M517.978 268.76l2.699 -11.366 0.35 -0.201c0.042,0.053 0.083,0.104 0.125,0.157l-2.634 11.1 -0.54 0.31z"/>
  <path class="fil3" d="M524.988 280.85c-1.965,-4.212 -4.329,-8.286 -7.01,-12.09l0 0 0.54 -0.31 -0.063 0.266c2.643,3.749 4.976,7.762 6.925,11.91l-0.392 0.224z"/>
  <path class="fil3" d="M536.25 284.256l-11.262 -3.406 0.392 -0.224c0.028,0.061 0.056,0.12 0.085,0.18l11 3.326 -0.215 0.124z"/>
  <path class="fil3" d="M540.73 299.22l0 0c-1.006,-4.975 -2.529,-10.007 -4.48,-14.964l0 0 0.215 -0.124 0.262 0.08c1.923,4.888 3.432,9.85 4.437,14.757l-0.434 0.251z"/>
  <path class="fil3" d="M540.09 299.36c-0.003,-0.019 -0.008,-0.038 -0.012,-0.058l0.59 -0.073 0 0c0,0.01 0.002,0.023 0.002,0.034l-0.58 0.097z"/>
  <path class="fil3" d="M510.159 318.94c-3.301,0 -7.027,-1.08 -10.975,-3.36 -2.044,-1.18 -4.029,-2.613 -5.925,-4.251 1.896,1.638 3.881,3.071 5.925,4.251 3.932,2.27 7.642,3.344 10.928,3.344 1.951,0 3.752,-0.379 5.361,-1.111 0.07,-0.016 0.138,-0.036 0.205,-0.055 -1.648,0.778 -3.504,1.182 -5.519,1.182z"/>
  <path class="fil3" d="M510.112 318.924c-3.286,0 -6.996,-1.074 -10.928,-3.344 -2.044,-1.18 -4.029,-2.613 -5.925,-4.251 -3.096,-2.669 -5.956,-5.881 -8.458,-9.417l0 -0.305c4.052,5.757 9.053,10.661 14.465,13.786 3.94,2.273 7.657,3.347 10.95,3.347 1.618,0 3.134,-0.258 4.523,-0.764 0.245,-0.053 0.493,-0.102 0.734,-0.163 -1.609,0.732 -3.41,1.111 -5.361,1.111z"/>
  <path class="fil3" d="M509.297 319.408c-3.295,0 -7.018,-1.076 -10.958,-3.351 -5.006,-2.889 -9.662,-7.304 -13.538,-12.504l0 -1.641c2.502,3.536 5.362,6.748 8.458,9.417 1.896,1.638 3.881,3.071 5.925,4.251 3.948,2.28 7.674,3.36 10.975,3.36 2.015,0 3.871,-0.404 5.519,-1.182 0.025,-0.007 0.049,-0.014 0.074,-0.021 -1.872,1.099 -4.05,1.671 -6.455,1.671z"/>
  <path class="fil3" d="M520.849 327.635c1.076,-0.631 2.078,-1.384 2.987,-2.282l0.225 0.191c-0.986,0.833 -2.06,1.533 -3.212,2.091z"/>
  <path class="fil3" d="M519.796 328.203c0.358,-0.177 0.71,-0.366 1.053,-0.568 1.152,-0.558 2.226,-1.258 3.212,-2.091l0.19 0.164c-1.338,1.078 -2.831,1.909 -4.455,2.495z"/>
  <path class="fil3" d="M520.293 343.208c-0.114,-0.006 -0.099,-0.011 -0.004,-0.018l0.004 0.018zm-0.004 -0.018l-2.579 -13.842c-0.224,-0.106 -0.014,-0.234 0.32,-0.375l2.645 14.194c-0.166,0.011 -0.304,0.018 -0.386,0.023z"/>
  <path class="fil3" d="M520.693 343.167l0.42 -0.242 0.039 0.207c-0.158,0.014 -0.317,0.026 -0.459,0.035z"/>
  <path class="fil3" d="M520.675 343.167l-2.645 -14.194c0.136,-0.057 0.294,-0.116 0.451,-0.176l2.632 14.128 -0.42 0.242c-0.005,0 -0.013,0 -0.018,0z"/>
  <path class="fil3" d="M536.727 334.252l-0.019 -0.218 0.292 -0.168c-0.09,0.131 -0.181,0.259 -0.273,0.386z"/>
  <path class="fil3" d="M536.68 333.681l-0.016 -0.213c1.527,-2.428 2.761,-5.233 3.608,-8.446l-9.884 -12.664c0.249,-1.714 0.417,-3.506 0.417,-5.445 0,-1.937 -0.168,-3.925 -0.417,-5.927l0.516 -0.039c0.217,1.842 0.36,3.666 0.36,5.452 0,1.937 -0.17,3.729 -0.418,5.444l0 0 9.884 12.663c-0.932,3.529 -2.303,6.596 -4.05,9.175z"/>
  <path class="fil3" d="M536.708 334.034l-0.028 -0.353c1.747,-2.579 3.118,-5.646 4.05,-9.175l0 0 0.352 -0.203 0.123 0.159c-0.958,3.634 -2.384,6.777 -4.205,9.404l-0.292 0.168z"/>
  <path class="fil3" d="M530.846 311.843c0.248,-1.715 0.418,-3.507 0.418,-5.444l0 0c0,-1.786 -0.143,-3.61 -0.36,-5.452l0.467 -0.035c0.216,1.836 0.37,3.661 0.37,5.443 0,1.843 -0.154,3.555 -0.383,5.194l-0.512 0.294z"/>
  <path class="fil3" d="M540.73 324.506l0 0 -9.884 -12.663 0.512 -0.294c-0.012,0.083 -0.024,0.166 -0.035,0.25l9.759 12.504 -0.352 0.203z"/>
  <path class="fil3" d="M503.295 253.471c-1.449,-1.071 -2.917,-2.075 -4.423,-2.943 -0.423,-0.244 -0.842,-0.473 -1.259,-0.691 0.417,0.218 0.836,0.447 1.259,0.691 1.506,0.868 2.974,1.872 4.423,2.943zm-15.536 -20.192c-0.026,-0.007 -0.051,-0.014 -0.077,-0.021 0.026,0.007 0.051,0.014 0.077,0.021zm-0.209 -0.057c-0.044,-0.012 -0.09,-0.024 -0.134,-0.034 0.044,0.01 0.09,0.022 0.134,0.034zm-0.206 -0.054c-0.028,-0.007 -0.056,-0.014 -0.085,-0.022 0.029,0.008 0.057,0.015 0.085,0.022zm-0.117 -0.03c-0.818,-0.211 -1.627,-0.389 -2.426,-0.533l0 0c0.799,0.144 1.608,0.322 2.426,0.533z"/>
  <path class="fil3" d="M503.413 254.263c-1.618,-1.222 -3.264,-2.367 -4.953,-3.34 -1.69,-0.978 -3.337,-1.733 -4.955,-2.381l-6.063 -14.842c-0.848,-0.235 -1.738,-0.414 -2.641,-0.548l0 -0.547c0.799,0.144 1.608,0.322 2.426,0.533 0.011,0.004 0.022,0.005 0.032,0.008 0.029,0.008 0.057,0.015 0.085,0.022 0.024,0.007 0.047,0.012 0.072,0.02 0.044,0.01 0.09,0.022 0.134,0.034 0.044,0.013 0.088,0.024 0.132,0.036 0.026,0.007 0.051,0.014 0.077,0.021 0.032,0.009 0.064,0.018 0.095,0.026l0 0 6.063 14.843 0 0c1.215,0.486 2.444,1.033 3.696,1.689 0.417,0.218 0.836,0.447 1.259,0.691 1.506,0.868 2.974,1.872 4.423,2.943 0.081,0.06 0.161,0.119 0.242,0.181l-0.124 0.611z"/>
  <path class="fil3" d="M493.917 248.148l-6.063 -14.843 0.207 -0.117c0.089,0.024 0.181,0.048 0.271,0.073l5.987 14.656 -0.402 0.231z"/>
  <path class="fil3" d="M503.537 253.652c-0.081,-0.062 -0.161,-0.121 -0.242,-0.181 -1.449,-1.071 -2.917,-2.075 -4.423,-2.943 -0.423,-0.244 -0.842,-0.473 -1.259,-0.691 -1.252,-0.656 -2.481,-1.203 -3.696,-1.689l0 0 0.402 -0.231 0.075 0.187c1.619,0.648 3.265,1.404 4.955,2.38 1.448,0.835 2.86,1.81 4.254,2.837l-0.066 0.331z"/>
  <path class="fil3" d="M487.854 233.305c-0.031,-0.008 -0.063,-0.017 -0.095,-0.026 -0.026,-0.007 -0.051,-0.014 -0.077,-0.021 -0.044,-0.012 -0.088,-0.023 -0.132,-0.036 -0.044,-0.012 -0.09,-0.024 -0.134,-0.034 -0.025,-0.008 -0.048,-0.013 -0.072,-0.02 -0.028,-0.007 -0.056,-0.014 -0.085,-0.022 -0.01,-0.003 -0.021,-0.004 -0.032,-0.008 -0.818,-0.211 -1.627,-0.389 -2.426,-0.533l0 -0.129c1.067,0.18 2.154,0.416 3.26,0.712l-0.207 0.117z"/>
  <path class="fil3" d="M488.332 329.322c-0.051,-0.046 -0.104,-0.092 -0.156,-0.139l0.469 -0.267 -0.313 0.406z"/>
  <path class="fil3" d="M488.073 329.086c-0.127,-0.117 -0.25,-0.236 -0.377,-0.349l5.07 -6.558c0.137,0.104 0.276,0.201 0.413,0.3l-5.106 6.607z"/>
  <path class="fil3" d="M488.176 329.183c-0.034,-0.033 -0.07,-0.064 -0.103,-0.097l5.106 -6.607c0.095,0.067 0.191,0.134 0.285,0.202l-4.819 6.235 -0.469 0.267z"/>
  <path class="fil0" d="M503.986 195.22c-20.315,-11.727 -36.783,-40.132 -36.783,-63.442 0,-8.646 2.291,-15.338 6.182,-19.772 -11.147,0.807 -18.689,10.142 -18.689,25.893 0,23.31 16.467,51.713 36.782,63.441 12.763,7.368 23.969,6.356 30.555,-1.172 -5.33,0.389 -11.478,-1.156 -18.047,-4.948z"/>
  <path class="fil1" d="M491.478 201.34c-20.313,-11.728 -36.782,-40.131 -36.782,-63.441 0,-23.311 16.469,-32.7 36.782,-20.972 20.313,11.729 36.781,40.131 36.781,63.443 0,23.309 -16.468,32.7 -36.781,20.97zm48.257 -13.812c0,-2.916 -0.254,-5.904 -0.629,-8.916l14.867 -1.881c-1.513,-7.484 -3.803,-15.054 -6.739,-22.509l-16.941 -5.123c-2.956,-6.335 -6.51,-12.465 -10.544,-18.187l4.059 -17.097c-5.021,-6.267 -10.463,-12.037 -16.225,-17.1l-9.119 11.797c-2.437,-1.837 -4.913,-3.559 -7.454,-5.027 -2.541,-1.466 -5.017,-2.603 -7.454,-3.579l-9.119 -22.328c-5.762,-1.59 -11.205,-2.106 -16.225,-1.635l4.059 21.783c-4.034,1.065 -7.588,3.09 -10.544,6.013l-16.941 -14.438c-2.936,4.065 -5.227,8.988 -6.739,14.725l14.867 19.05c-0.375,2.579 -0.629,5.274 -0.629,8.191 0,2.914 0.254,5.904 0.629,8.915l-14.867 1.881c1.512,7.483 3.803,15.053 6.739,22.509l16.941 5.124c2.956,6.335 6.51,12.463 10.544,18.186l-4.059 17.097c5.02,6.266 10.463,12.036 16.225,17.099l9.119 -11.796c2.437,1.838 4.913,3.559 7.454,5.025 2.541,1.467 5.017,2.607 7.454,3.582l9.119 22.326c5.762,1.59 11.204,2.106 16.225,1.636l-4.059 -21.784c4.034,-1.065 7.588,-3.088 10.544,-6.011l16.941 14.439c2.936,-4.067 5.226,-8.991 6.739,-14.73l-14.867 -19.047c0.375,-2.578 0.629,-5.275 0.629,-8.19z"/>
  <polygon class="fil0" points="497.805,91.721 488.686,69.396 474.437,77.578 483.556,99.906 "/>
  <path class="fil2" d="M483.556 99.906c2.437,0.976 4.913,2.113 7.454,3.579 2.541,1.468 5.017,3.19 7.454,5.027l9.118 -11.795 -0.004 0.002c0,0 -1.539,-0.967 -2.32,-1.418 -2.54,-1.466 -5.018,-2.604 -7.453,-3.58l-14.249 8.185z"/>
  <path class="fil2" d="M488.686 69.396c-5.762,-1.592 -11.207,-2.107 -16.227,-1.638l-14.249 8.185c5.022,-0.471 10.465,0.045 16.227,1.635l14.249 -8.182z"/>
  <path class="fil2" d="M538.057 105.63c-5.02,-6.266 -10.465,-12.037 -16.225,-17.099l-14.249 8.186c5.762,5.062 11.204,10.831 16.225,17.098l14.249 -8.185z"/>
  <polygon class="fil0" points="523.808,113.815 519.749,130.912 533.998,122.727 538.057,105.63 "/>
  <path class="fil0" d="M519.749 130.912c4.034,5.722 7.588,11.852 10.544,18.187l14.249 -8.184c-2.957,-6.336 -6.51,-12.465 -10.544,-18.188l-14.249 8.185z"/>
  <polygon class="fil2" points="530.293,149.099 547.234,154.222 561.483,146.037 544.542,140.915 "/>
  <path class="fil0" d="M547.234 154.222c2.936,7.455 5.226,15.025 6.739,22.509l14.249 -8.185c-1.512,-7.483 -3.804,-15.052 -6.739,-22.509l-14.249 8.185z"/>
  <path class="fil0" d="M462.271 97.726l-1.181 -6.335 -12.056 -10.275 -14.248 8.185 16.941 14.438c2.956,-2.923 6.51,-4.948 10.544,-6.013z"/>
  <path class="fil0" d="M553.973 214.765c-1.513,5.739 -3.803,10.663 -6.739,14.73l14.249 -8.184c2.935,-4.068 5.227,-8.992 6.739,-14.729l-14.249 8.183z"/>
  <path class="fil0" d="M553.353 187.534c0.375,-2.578 0.629,-5.274 0.629,-8.19 0,-0.858 -0.056,-1.731 -0.102,-2.603l-14.774 1.871c0.375,3.012 0.629,6 0.629,8.916 0,2.915 -0.254,5.612 -0.629,8.19l14.247 -8.184z"/>
  <polygon class="fil2" points="539.106,195.718 553.973,214.765 568.222,206.582 553.353,187.534 "/>
  <path class="fil0" d="M530.293 215.056c-2.956,2.923 -6.51,4.946 -10.544,6.011l4.059 21.784 14.249 -8.184 -2.879 -15.448 -4.885 -4.163z"/>
  <path class="fil2" d="M442.378 133.651l-14.331 8.412 14.867 -1.881c-0.273,-2.199 -0.442,-4.375 -0.536,-6.531z"/>
  <path class="fil0" d="M483.556 210.282l-9.119 11.796 14.354 -8.169c-1.768,-1.132 -3.516,-2.331 -5.235,-3.627z"/>
  <path class="fil3" d="M458.522 99.381c0.644,-0.318 1.296,-0.63 1.974,-0.891l0.04 0.22c-0.692,0.181 -1.35,0.432 -2.014,0.671z"/>
  <path class="fil3" d="M428.927 142.716c-0.049,-0.239 -0.116,-0.48 -0.163,-0.72l12.343 -1.562c0.028,0.245 0.042,0.486 0.074,0.731l-12.254 1.551z"/>
  <path class="fil3" d="M553.883 176.796c-0.002,-0.018 -0.002,-0.035 -0.003,-0.055l0.093 -0.01 0 0 0.653 -0.377c0.021,0.104 0.043,0.208 0.063,0.31l-0.806 0.132zm-0.801 -4.107c-1.465,-6.159 -3.439,-12.35 -5.848,-18.467l-16.941 -5.123 16.941 5.123 0.324 -0.185 -0.324 0.185c2.409,6.117 4.383,12.308 5.848,18.467zm-22.789 -23.59c-2.956,-6.335 -6.51,-12.465 -10.544,-18.187l0 0c4.034,5.722 7.588,11.852 10.544,18.187zm-6.485 -35.284c-1.319,-1.646 -2.666,-3.258 -4.04,-4.83 1.374,1.572 2.721,3.184 4.04,4.83l0.528 -0.303 0 0 -0.528 0.303z"/>
  <path class="fil3" d="M552.994 176.854c-1.512,-7.222 -3.727,-14.513 -6.558,-21.703l-16.941 -5.122c-2.956,-6.335 -6.509,-12.465 -10.544,-18.188l4.059 -17.096c-4.738,-5.915 -9.864,-11.365 -15.268,-16.218l0.392 -1.324c4.05,3.603 7.94,7.556 11.634,11.782 1.374,1.572 2.721,3.184 4.04,4.83l-4.059 17.097 0 0c4.034,5.722 7.588,11.852 10.544,18.187l0 0 16.941 5.123c2.409,6.117 4.383,12.308 5.848,18.467 0.322,1.349 0.618,2.696 0.891,4.042l-0.093 0.01 0 0 -0.886 0.113z"/>
  <path class="fil3" d="M523.808 113.815c-1.319,-1.646 -2.666,-3.258 -4.04,-4.83 -3.694,-4.226 -7.584,-8.179 -11.634,-11.782l0.166 -0.555c5.689,4.999 11.067,10.689 16.036,16.864l-0.528 0.303z"/>
  <path class="fil3" d="M519.749 130.912l4.059 -17.097 0.528 -0.303c0.063,0.079 0.127,0.157 0.189,0.236l-3.964 16.697 -0.812 0.467z"/>
  <path class="fil3" d="M530.293 149.099l0 0c-2.956,-6.335 -6.51,-12.465 -10.544,-18.187l0 0 0.812 -0.467 -0.096 0.4c3.976,5.639 7.488,11.675 10.418,17.916l-0.59 0.338z"/>
  <path class="fil3" d="M547.234 154.222l-16.941 -5.123 0.59 -0.338c0.042,0.09 0.084,0.18 0.128,0.271l16.547 5.005 -0.324 0.185z"/>
  <path class="fil3" d="M553.973 176.731l0 0c-0.273,-1.346 -0.569,-2.693 -0.891,-4.042 -1.465,-6.159 -3.439,-12.35 -5.848,-18.467l0.324 -0.185 0.393 0.12c2.895,7.351 5.163,14.813 6.675,22.197l-0.653 0.377z"/>
  <path class="fil3" d="M553.011 176.94c-0.005,-0.028 -0.012,-0.058 -0.017,-0.086l0.886 -0.113 0 0c0.001,0.02 0.001,0.037 0.003,0.055l-0.872 0.144z"/>
  <path class="fil3" d="M507.988 206.392c-4.966,0 -10.572,-1.623 -16.51,-5.052 -0.019,-0.012 -0.039,-0.022 -0.059,-0.035 0.02,0.013 0.04,0.023 0.059,0.035 5.915,3.415 11.497,5.029 16.438,5.029 2.937,0 5.647,-0.568 8.068,-1.67 0.102,-0.025 0.204,-0.053 0.305,-0.083 -2.477,1.171 -5.27,1.776 -8.301,1.776zm-53.292 -68.589c0.001,-0.012 0.001,-0.024 0.001,-0.038 0,0.012 0,0.026 -0.001,0.038zm0.001 -0.093c0,-0.016 0,-0.032 0,-0.048 0,0.016 0,0.032 0,0.048zm0 -0.093c0,-0.018 0,-0.036 0,-0.053 0,0.017 0,0.035 0,0.053zm0 -0.094c0,-0.017 0,-0.038 0.002,-0.056 -0.002,0.019 -0.002,0.037 -0.002,0.056zm0.002 -0.091c0,-0.021 0,-0.043 0,-0.064 0,0.021 0,0.043 0,0.064zm0 -0.092c0,-0.025 0.002,-0.047 0.002,-0.07 0,0.023 -0.002,0.045 -0.002,0.07zm0.002 -0.089c0,-0.027 0,-0.053 0.002,-0.078 -0.002,0.026 -0.002,0.051 -0.002,0.078zm0.002 -0.092c0,-0.027 0,-0.053 0,-0.08 0,0.027 0,0.053 0,0.08zm0 -0.09c0.103,-6.103 1.359,-11.215 3.529,-15.209 -0.224,0.425 -0.439,0.86 -0.643,1.307 -1.773,3.773 -2.793,8.438 -2.886,13.902z"/>
  <path class="fil3" d="M507.916 206.369c-4.941,0 -10.523,-1.614 -16.438,-5.029 -0.019,-0.012 -0.039,-0.022 -0.059,-0.035 -19.354,-11.209 -35.203,-37.548 -36.62,-60.167 -0.068,-1.09 -0.103,-2.171 -0.103,-3.239 0,-0.033 0,-0.064 0,-0.096 0.001,-0.012 0.001,-0.026 0.001,-0.038 0,-0.018 0,-0.037 0,-0.055 0,-0.016 0,-0.032 0,-0.048 0,-0.016 0,-0.03 0,-0.045 0,-0.018 0,-0.036 0,-0.053 0,-0.014 0,-0.026 0,-0.041 0,-0.019 0,-0.037 0.002,-0.056 0,-0.012 0,-0.023 0,-0.035 0,-0.021 0,-0.043 0,-0.064 0,-0.008 0,-0.019 0,-0.028 0,-0.025 0.002,-0.047 0.002,-0.07 0,-0.008 0,-0.013 0,-0.019 0,-0.027 0,-0.052 0.002,-0.078 0,-0.004 0,-0.009 0,-0.014 0,-0.027 0,-0.053 0,-0.08 0,-0.003 0,-0.007 0,-0.01 0.093,-5.464 1.113,-10.129 2.886,-13.902 -1.782,3.914 -2.768,8.762 -2.768,14.45 0,23.31 16.467,51.713 36.782,63.442 5.924,3.421 11.516,5.036 16.47,5.036 2.435,0 4.715,-0.391 6.806,-1.15 0.369,-0.081 0.741,-0.155 1.105,-0.246 -2.421,1.102 -5.131,1.67 -8.068,1.67z"/>
  <path class="fil3" d="M506.69 207.098c-4.956,0 -10.556,-1.618 -16.483,-5.041 -20.315,-11.729 -36.783,-40.134 -36.783,-63.444 0,-11.163 3.797,-19.094 9.972,-23.07 -2.055,1.627 -3.798,3.743 -5.164,6.317 -2.17,3.994 -3.426,9.106 -3.529,15.209 0,0.003 0,0.007 0,0.01 0,0.027 0,0.053 0,0.08 0,0.005 0,0.01 0,0.014 -0.002,0.025 -0.002,0.051 -0.002,0.078 0,0.006 0,0.011 0,0.019 0,0.023 -0.002,0.045 -0.002,0.07 0,0.009 0,0.02 0,0.028 0,0.021 0,0.043 0,0.064 0,0.012 0,0.023 0,0.035 -0.002,0.018 -0.002,0.039 -0.002,0.056 0,0.015 0,0.027 0,0.041 0,0.017 0,0.035 0,0.053 0,0.015 0,0.029 0,0.045 0,0.016 0,0.032 0,0.048 0,0.018 0,0.037 0,0.055 0,0.014 0,0.026 -0.001,0.038 0,0.032 0,0.063 0,0.096l0 0c0,1.068 0.035,2.149 0.103,3.239 1.417,22.619 17.266,48.958 36.62,60.167 0.02,0.013 0.04,0.023 0.059,0.035 5.938,3.429 11.544,5.052 16.51,5.052 3.031,0 5.824,-0.605 8.301,-1.776 0.039,-0.011 0.074,-0.022 0.111,-0.032 -2.814,1.651 -6.091,2.514 -9.71,2.514z"/>
  <path class="fil3" d="M524.072 219.472c1.614,-0.949 3.122,-2.083 4.488,-3.432l0.34 0.289c-1.484,1.253 -3.097,2.303 -4.828,3.143z"/>
  <path class="fil3" d="M522.483 220.328c0.541,-0.268 1.069,-0.553 1.589,-0.856 1.731,-0.84 3.344,-1.89 4.828,-3.143l0.287 0.245c-2.014,1.623 -4.259,2.873 -6.704,3.754z"/>
  <path class="fil3" d="M451.148 104.125c-0.212,0 -0.251,-0.074 -0.184,-0.194l0.227 0.192c-0.015,0 -0.029,0.002 -0.043,0.002zm-0.184 -0.194l-15.574 -13.275c-0.596,-0.065 -0.477,-0.501 -0.178,-0.993l16.2 13.807c-0.21,0.18 -0.381,0.344 -0.448,0.461z"/>
  <path class="fil3" d="M451.412 103.47l-16.2 -13.807c0.086,-0.141 0.186,-0.287 0.29,-0.429l16.315 13.903c-0.139,0.113 -0.28,0.226 -0.405,0.333z"/>
  <path class="fil3" d="M523.23 242.898c-0.17,-0.008 -0.148,-0.015 -0.003,-0.026l0.003 0.026zm-0.003 -0.026l-3.881 -20.822c-0.336,-0.16 -0.022,-0.354 0.481,-0.564l3.979 21.352c-0.248,0.017 -0.458,0.025 -0.579,0.034z"/>
  <path class="fil3" d="M523.832 242.837l0.634 -0.365 0.059 0.312c-0.238,0.023 -0.48,0.039 -0.693,0.053z"/>
  <path class="fil3" d="M523.806 242.838l-3.979 -21.352c0.205,-0.086 0.443,-0.174 0.679,-0.265l3.96 21.251 -0.634 0.365c-0.008,0 -0.017,0.001 -0.026,0.001z"/>
  <path class="fil3" d="M547.951 229.428l-0.027 -0.329 0.439 -0.252c-0.136,0.195 -0.273,0.389 -0.412,0.581zm-8.216 -41.9c0,-2.666 -0.213,-5.392 -0.536,-8.14 0.323,2.748 0.536,5.474 0.536,8.14l0 0z"/>
  <path class="fil3" d="M547.882 228.569l-0.026 -0.322c2.298,-3.652 4.154,-7.872 5.429,-12.705l-14.868 -19.049c0.374,-2.578 0.627,-5.274 0.627,-8.19 0,-2.916 -0.253,-5.904 -0.627,-8.915l0.775 -0.06c0.002,0.021 0.006,0.041 0.007,0.06 0.323,2.748 0.536,5.474 0.536,8.14 0,2.619 -0.206,5.061 -0.52,7.401 -0.035,0.265 -0.072,0.526 -0.109,0.789l0 0 14.867 19.047c-1.4,5.311 -3.465,9.923 -6.091,13.804z"/>
  <path class="fil3" d="M547.924 229.099l-0.042 -0.53c2.626,-3.881 4.691,-8.493 6.091,-13.804l0 0 0.53 -0.304 0.186 0.239c-1.441,5.468 -3.588,10.195 -6.326,14.147l-0.439 0.252z"/>
  <path class="fil3" d="M539.106 195.718c0.037,-0.263 0.074,-0.524 0.109,-0.789 0.314,-2.34 0.52,-4.782 0.52,-7.401l0 0c0,-2.666 -0.213,-5.392 -0.536,-8.14 -0.001,-0.019 -0.005,-0.039 -0.007,-0.06l0.703 -0.053c0.328,2.765 0.557,5.508 0.557,8.186 0,2.773 -0.231,5.35 -0.576,7.813l-0.77 0.444z"/>
  <path class="fil3" d="M553.973 214.765l0 0 -14.867 -19.047 0.77 -0.444c-0.018,0.127 -0.036,0.252 -0.053,0.377l14.68 18.81 -0.53 0.304z"/>
  <path class="fil3" d="M498.027 108.184c-2.296,-1.713 -4.628,-3.318 -7.017,-4.699 2.389,1.381 4.721,2.986 7.017,4.699l0 0zm-23.59 -30.606c-4.402,-1.215 -8.622,-1.803 -12.606,-1.803 -0.645,0 -1.282,0.016 -1.914,0.048 0.632,-0.032 1.269,-0.048 1.914,-0.048 3.984,0 8.202,0.588 12.606,1.803zm-15.508 -1.696l0 0c0.276,-0.02 0.554,-0.039 0.833,-0.052 -0.279,0.013 -0.557,0.032 -0.833,0.052z"/>
  <path class="fil3" d="M497.842 109.103c-2.437,-1.836 -4.911,-3.557 -7.452,-5.024 -2.542,-1.468 -5.018,-2.606 -7.455,-3.581l-9.12 -22.326c-3.997,-1.104 -8.607,-1.388 -12.514,-1.388 -0.763,0 -1.499,0.01 -2.198,0.029l-0.174 -0.931c0.276,-0.02 0.554,-0.039 0.833,-0.052 0.051,-0.004 0.102,-0.005 0.155,-0.007 0.632,-0.032 1.269,-0.048 1.914,-0.048 3.984,0 8.204,0.588 12.606,1.803l0 0 9.119 22.328 0 0c2.437,0.976 4.913,2.113 7.454,3.579l0 0c2.389,1.381 4.721,2.986 7.017,4.699l-0.185 0.919z"/>
  <path class="fil3" d="M483.556 99.906l-9.119 -22.328 0.31 -0.176c0.135,0.035 0.271,0.072 0.408,0.111l9.003 22.046 -0.602 0.347z"/>
  <path class="fil3" d="M498.027 108.184c-2.296,-1.713 -4.628,-3.318 -7.017,-4.699l0 0c-2.541,-1.466 -5.017,-2.603 -7.454,-3.579l0 0 0.602 -0.347 0.115 0.28c2.437,0.976 4.913,2.113 7.453,3.58 2.181,1.259 4.302,2.724 6.401,4.269l-0.1 0.496z"/>
  <path class="fil3" d="M474.437 77.578l0 0c-4.404,-1.215 -8.622,-1.803 -12.606,-1.803 -0.645,0 -1.282,0.016 -1.914,0.048 -0.053,0.002 -0.104,0.003 -0.155,0.007 -0.279,0.013 -0.557,0.032 -0.833,0.052l-0.002 -0.006c1.185,-0.111 2.391,-0.167 3.62,-0.167 3.862,0 7.944,0.552 12.2,1.693l-0.31 0.176z"/>
  <path class="fil3" d="M482.303 211.904c-0.039,-0.125 -0.08,-0.25 -0.12,-0.375 0.088,0.063 0.176,0.125 0.264,0.188l-0.144 0.187z"/>
  <path class="fil3" d="M482.494 212.515c-0.061,-0.205 -0.127,-0.409 -0.191,-0.611l0.144 -0.187c0.144,0.1 0.287,0.201 0.428,0.306l-0.381 0.492z"/>
  <path class="fil4" d="M509.424 67.753c0.112,-2.354 1.73,-3.383 3.614,-2.295 1.882,1.087 3.319,3.878 3.207,6.234 -0.111,2.356 -1.729,3.384 -3.613,2.296 -1.885,-1.087 -3.32,-3.88 -3.208,-6.235z"/>
  <path class="fil4" d="M498.882 349.554c0.074,-1.567 1.151,-2.251 2.405,-1.527 1.253,0.723 2.208,2.58 2.133,4.147 -0.074,1.567 -1.149,2.251 -2.403,1.527 -1.254,-0.724 -2.208,-2.58 -2.135,-4.147z"/>
  <path class="fil4" d="M567.75 235.614c-0.264,0 -0.517,-0.119 -0.689,-0.333 -0.225,-0.284 -0.255,-0.676 -0.07,-0.991l4.221 -7.237c0.245,-0.423 0.787,-0.562 1.204,-0.319 0.419,0.246 0.562,0.786 0.317,1.204l-3.085 5.29 6.228 -1.918c0.46,-0.142 0.96,0.118 1.101,0.583 0.144,0.465 -0.118,0.958 -0.581,1.1l-8.385 2.582 -0.261 0.039z"/>
  <path class="fil5" d="M494.632 267.526c3.302,1.905 6.196,5.552 7.85,9.479 0.026,0.063 1.872,-0.589 2.602,-0.884 1.626,-0.657 3.736,-0.403 6.044,0.928 5.142,2.97 9.311,10.162 9.311,16.062 0,10.786 -18.464,14.522 -18.464,14.522 0,0 -17.56,-23.47 -17.56,-34.256 0,-2.944 -1.248,-3.851 0.43,-4.816l3.64 -1.924c1.639,-0.71 3.791,-0.472 6.147,0.889z"/>
  <path class="fil4" d="M491.522 269.204c3.585,2.069 6.692,6.191 8.248,10.497 1.557,-2.51 4.663,-3.043 8.248,-0.974 5.142,2.97 9.312,10.162 9.312,16.062 0,10.786 -17.56,13.98 -17.56,13.98 0,0 -17.559,-23.471 -17.559,-34.256 0,-5.901 4.168,-8.278 9.311,-5.309z"/>
  <path class="fil6" d="M499.77 279.701c-1.556,-4.306 -4.663,-8.428 -8.248,-10.497 -1.504,-0.868 -2.923,-1.278 -4.18,-1.278 -0.599,0 -1.162,0.093 -1.678,0.275 0.54,-0.27 1.127,-0.402 1.77,-0.402 1.281,0 2.78,0.53 4.542,1.547 3.425,1.978 6.4,5.832 8.016,9.928 -0.32,0.252 -0.17,0.215 -0.193,0.381 -0.011,0.014 -0.02,0.03 -0.029,0.046z"/>
  <path class="fil7" d="M499.675 279.936c-1.556,-4.305 -5.078,-8.441 -8.663,-10.51 -1.497,-0.865 -2.907,-1.27 -4.158,-1.27 -0.528,0 -1.028,0.072 -1.493,0.213 0.099,-0.061 0.199,-0.118 0.303,-0.168 0.516,-0.182 1.079,-0.275 1.678,-0.275 1.257,0 2.676,0.41 4.18,1.278 3.585,2.069 6.692,6.191 8.248,10.497 0.009,-0.016 0.018,-0.032 0.029,-0.046 -0.01,0.059 -0.041,0.146 -0.124,0.281z"/>
  <path class="fil3" d="M509.995 305.064c0.207,-0.116 0.413,-0.236 0.617,-0.361 0.135,-0.063 0.271,-0.129 0.407,-0.194 -0.335,0.192 -0.678,0.377 -1.024,0.555z"/>
  <path class="fil6" d="M510.612 304.703c3.604,-2.177 6.718,-5.373 6.718,-9.914 0,-5.9 -4.17,-13.092 -9.312,-16.062 -1.5,-0.867 -2.918,-1.277 -4.173,-1.277 -0.565,0 -1.097,0.085 -1.59,0.247 0.505,-0.233 1.095,-0.361 1.762,-0.361 1.182,0 2.61,0.403 4.247,1.348 5.144,2.971 9.314,10.162 9.314,16.063 0,4.718 -2.916,7.676 -6.559,9.762 -0.136,0.065 -0.272,0.131 -0.407,0.194z"/>
  <path class="fil7" d="M508.969 305.568c4.059,-2.175 7.85,-5.545 7.85,-10.557 0,-5.901 -4.17,-13.092 -9.312,-16.063 -1.489,-0.859 -2.891,-1.259 -4.136,-1.259 -0.528,0 -1.028,0.073 -1.494,0.212 0.119,-0.074 0.246,-0.142 0.378,-0.204 0.493,-0.162 1.025,-0.247 1.59,-0.247 1.255,0 2.673,0.41 4.173,1.277 5.142,2.97 9.312,10.162 9.312,16.062 0,4.541 -3.114,7.737 -6.718,9.914 -0.204,0.125 -0.41,0.245 -0.617,0.361 -0.338,0.174 -0.681,0.341 -1.026,0.504z"/>
  <path class="fil4" d="M570.428 234.415l-1.183 -1.303c9.477,-8.604 14.487,-22.629 14.487,-40.562 0,-44.62 -31.638,-99.188 -70.524,-121.638l0.88 -1.525c39.371,22.731 71.405,77.983 71.405,123.163 0,18.442 -5.209,32.92 -15.065,41.865z"/>
  <path class="fil1" d="M598.368 204.364l-0.014 0c-0.485,-0.007 -0.873,-0.407 -0.867,-0.893 0.009,-0.579 0.012,-1.164 0.012,-1.752 0,-0.486 0.395,-0.88 0.881,-0.88 0.486,0 0.88,0.394 0.88,0.88 0,0.597 -0.003,1.19 -0.011,1.779 -0.008,0.48 -0.4,0.866 -0.881,0.866z"/>
  <path class="fil1" d="M597.892 213.091l-0.086 -0.006c-0.484,-0.045 -0.839,-0.475 -0.792,-0.959 0.109,-1.136 0.2,-2.288 0.274,-3.455 0.029,-0.485 0.398,-0.851 0.934,-0.824 0.486,0.03 0.855,0.449 0.824,0.933 -0.074,1.189 -0.169,2.359 -0.279,3.514 -0.045,0.455 -0.427,0.797 -0.875,0.797zm-1.244 8.645l-0.171 -0.017c-0.48,-0.091 -0.789,-0.555 -0.698,-1.032 0.218,-1.117 0.418,-2.252 0.594,-3.409 0.074,-0.481 0.516,-0.805 1.005,-0.736 0.479,0.072 0.81,0.523 0.736,1.003 -0.181,1.18 -0.382,2.339 -0.604,3.479 -0.082,0.42 -0.45,0.712 -0.862,0.712zm-2.139 8.47l-0.265 -0.04c-0.463,-0.146 -0.72,-0.643 -0.574,-1.106 0.341,-1.083 0.66,-2.189 0.958,-3.318 0.123,-0.47 0.609,-0.748 1.074,-0.627 0.472,0.124 0.752,0.607 0.628,1.077 -0.304,1.156 -0.63,2.289 -0.982,3.398 -0.118,0.375 -0.463,0.616 -0.839,0.616zm-3.163 8.135l-0.376 -0.084c-0.44,-0.208 -0.628,-0.733 -0.421,-1.173 0.483,-1.023 0.943,-2.076 1.378,-3.155 0.183,-0.453 0.695,-0.668 1.146,-0.488 0.451,0.181 0.669,0.695 0.488,1.146 -0.45,1.111 -0.923,2.194 -1.42,3.249 -0.149,0.318 -0.466,0.505 -0.795,0.505zm-4.322 7.581c-0.172,0 -0.346,-0.049 -0.496,-0.153 -0.402,-0.275 -0.506,-0.823 -0.231,-1.224 0.645,-0.942 1.263,-1.916 1.844,-2.898 0.244,-0.421 0.787,-0.555 1.204,-0.312 0.419,0.248 0.56,0.787 0.312,1.206 -0.599,1.016 -1.24,2.025 -1.905,2.999 -0.173,0.248 -0.447,0.382 -0.728,0.382zm-5.555 6.725c-0.223,0 -0.449,-0.087 -0.622,-0.259 -0.343,-0.342 -0.343,-0.9 0,-1.245 0.803,-0.805 1.583,-1.65 2.323,-2.514 0.316,-0.369 0.873,-0.413 1.241,-0.096 0.37,0.316 0.414,0.872 0.097,1.242 -0.766,0.898 -1.579,1.777 -2.416,2.613 -0.172,0.172 -0.398,0.259 -0.623,0.259zm-6.755 5.522c-0.287,0 -0.567,-0.14 -0.734,-0.395 -0.27,-0.405 -0.157,-0.951 0.248,-1.22 0.953,-0.631 1.888,-1.305 2.777,-2.002 0.382,-0.298 0.935,-0.236 1.236,0.15 0.3,0.381 0.234,0.935 -0.148,1.235 -0.927,0.728 -1.901,1.428 -2.895,2.085 -0.149,0.101 -0.318,0.147 -0.484,0.147zm-7.732 4.018c-0.35,0 -0.681,-0.209 -0.819,-0.556 -0.177,-0.453 0.044,-0.966 0.494,-1.143 1.06,-0.419 2.111,-0.886 3.125,-1.384 0.437,-0.215 0.963,-0.037 1.178,0.399 0.215,0.435 0.035,0.964 -0.402,1.178 -1.054,0.521 -2.15,1.006 -3.25,1.444l-0.326 0.062zm-8.392 2.384c-0.415,0 -0.785,-0.297 -0.864,-0.721 -0.087,-0.478 0.23,-0.937 0.707,-1.025 1.129,-0.206 2.256,-0.457 3.348,-0.744 0.464,-0.128 0.952,0.157 1.074,0.629 0.125,0.469 -0.157,0.951 -0.627,1.074 -1.136,0.299 -2.305,0.558 -3.478,0.773l-0.16 0.014zm-13.921 0.602l-0.076 -0.003c-1.161,-0.099 -2.337,-0.231 -3.523,-0.398 -0.481,-0.067 -0.818,-0.512 -0.751,-0.993 0.069,-0.481 0.525,-0.805 0.995,-0.75 1.155,0.164 2.296,0.292 3.427,0.387 0.484,0.039 0.845,0.467 0.803,0.951 -0.037,0.46 -0.423,0.806 -0.875,0.806zm5.236 0.203c-0.484,0 -0.877,-0.389 -0.88,-0.873 -0.004,-0.486 0.387,-0.884 0.874,-0.888 1.146,-0.009 2.299,-0.055 3.433,-0.141 0.481,-0.037 0.907,0.329 0.944,0.814 0.037,0.484 -0.328,0.907 -0.814,0.943 -1.171,0.088 -2.366,0.136 -3.549,0.145l-0.008 0z"/>
  <path class="fil1" d="M535.942 263.826l-0.189 -0.019c-0.579,-0.128 -1.156,-0.264 -1.737,-0.408 -0.473,-0.117 -0.76,-0.596 -0.643,-1.066 0.116,-0.472 0.591,-0.759 1.065,-0.644 0.569,0.142 1.132,0.274 1.692,0.397 0.476,0.106 0.777,0.574 0.671,1.05 -0.09,0.41 -0.454,0.69 -0.859,0.69z"/>
  <path class="fil1" d="M423.187 124.458c-0.416,0 -0.787,-0.299 -0.865,-0.724 -0.106,-0.583 -0.209,-1.166 -0.304,-1.747 -0.082,-0.479 0.243,-0.933 0.723,-1.014 0.471,-0.085 0.932,0.245 1.013,0.725 0.097,0.573 0.195,1.147 0.301,1.722 0.086,0.479 -0.232,0.937 -0.71,1.024l-0.158 0.014z"/>
  <path class="fil1" d="M473.399 37.475l-0.054 -0.002c-1.184,-0.074 -2.354,-0.111 -3.508,-0.111 -0.486,0 -0.88,-0.394 -0.88,-0.881 0,-0.485 0.394,-0.88 0.88,-0.88 1.193,0 2.397,0.039 3.619,0.115 0.484,0.031 0.854,0.448 0.822,0.935 -0.028,0.466 -0.415,0.824 -0.879,0.824zm-12.429 0.644c-0.417,0 -0.789,-0.299 -0.865,-0.727 -0.085,-0.479 0.232,-0.935 0.713,-1.019 1.177,-0.209 2.384,-0.376 3.592,-0.499 0.474,-0.047 0.916,0.301 0.965,0.787 0.049,0.483 -0.303,0.916 -0.785,0.965 -1.166,0.118 -2.331,0.28 -3.466,0.479l-0.154 0.014zm21.26 0.553l-0.177 -0.019c-1.168,-0.238 -2.323,-0.444 -3.466,-0.615 -0.482,-0.074 -0.812,-0.521 -0.74,-1.002 0.071,-0.484 0.523,-0.804 1,-0.741 1.175,0.178 2.362,0.389 3.559,0.634 0.476,0.097 0.782,0.562 0.685,1.039 -0.084,0.417 -0.45,0.704 -0.861,0.704zm-29.821 1.842c-0.353,0 -0.684,-0.211 -0.821,-0.558 -0.178,-0.453 0.045,-0.963 0.498,-1.141 1.113,-0.437 2.266,-0.837 3.434,-1.187 0.461,-0.136 0.958,0.125 1.095,0.59 0.141,0.467 -0.123,0.956 -0.59,1.097 -1.118,0.336 -2.228,0.72 -3.296,1.139l-0.32 0.06zm38.421 0.464l-0.275 -0.043c-1.133,-0.374 -2.259,-0.717 -3.373,-1.031 -0.469,-0.131 -0.74,-0.618 -0.609,-1.086 0.131,-0.468 0.612,-0.743 1.086,-0.609 1.141,0.32 2.289,0.673 3.446,1.053 0.463,0.151 0.713,0.65 0.56,1.112 -0.121,0.37 -0.465,0.604 -0.835,0.604zm8.313 3.213l-0.357 -0.076c-1.092,-0.483 -2.177,-0.939 -3.256,-1.368 -0.451,-0.18 -0.671,-0.692 -0.491,-1.145 0.18,-0.452 0.686,-0.674 1.144,-0.491 1.097,0.438 2.203,0.902 3.316,1.392 0.446,0.198 0.647,0.719 0.449,1.163 -0.145,0.329 -0.468,0.525 -0.805,0.525zm-54.625 0.422c-0.285,0 -0.564,-0.139 -0.734,-0.394 -0.268,-0.407 -0.157,-0.951 0.248,-1.22 1.009,-0.67 2.056,-1.3 3.113,-1.878 0.421,-0.234 0.96,-0.076 1.194,0.351 0.234,0.426 0.077,0.961 -0.35,1.196 -1.013,0.552 -2.019,1.156 -2.985,1.799 -0.15,0.099 -0.317,0.146 -0.486,0.146zm62.614 3.524l-0.422 -0.107c-1.048,-0.573 -2.092,-1.121 -3.133,-1.645 -0.433,-0.22 -0.607,-0.749 -0.389,-1.184 0.218,-0.433 0.748,-0.61 1.183,-0.389 1.055,0.534 2.115,1.092 3.182,1.671 0.426,0.233 0.585,0.768 0.353,1.194 -0.161,0.294 -0.464,0.46 -0.774,0.46zm-69.476 2.13c-0.224,0 -0.447,-0.084 -0.62,-0.254 -0.345,-0.341 -0.348,-0.899 -0.007,-1.244 0.852,-0.859 1.743,-1.694 2.653,-2.48 0.365,-0.313 0.921,-0.274 1.242,0.092 0.317,0.37 0.275,0.925 -0.093,1.243 -0.874,0.754 -1.731,1.555 -2.55,2.383 -0.172,0.174 -0.398,0.26 -0.625,0.26zm77.14 2.422c-0.164,0 -0.328,-0.044 -0.476,-0.14 -0.998,-0.641 -2,-1.266 -3.006,-1.875 -0.417,-0.25 -0.549,-0.792 -0.297,-1.208 0.252,-0.417 0.796,-0.546 1.208,-0.297 1.019,0.616 2.037,1.25 3.048,1.898 0.408,0.264 0.528,0.808 0.264,1.217 -0.169,0.262 -0.453,0.405 -0.741,0.405zm-82.759 4.474c-0.169,0 -0.34,-0.047 -0.491,-0.15 -0.403,-0.271 -0.511,-0.819 -0.24,-1.222 0.682,-1.01 1.398,-1.998 2.133,-2.935 0.299,-0.382 0.85,-0.449 1.236,-0.15 0.382,0.302 0.449,0.854 0.149,1.238 -0.708,0.902 -1.399,1.854 -2.056,2.83 -0.17,0.253 -0.45,0.389 -0.731,0.389zm90.091 0.59c-0.182,0 -0.366,-0.057 -0.523,-0.173 -0.954,-0.702 -1.912,-1.395 -2.876,-2.069 -0.398,-0.28 -0.496,-0.828 -0.215,-1.225 0.277,-0.402 0.824,-0.493 1.226,-0.217 0.976,0.684 1.946,1.382 2.911,2.096 0.392,0.288 0.475,0.839 0.186,1.23 -0.174,0.235 -0.438,0.358 -0.709,0.358zm7.008 5.511c-0.201,0 -0.4,-0.066 -0.565,-0.204 -0.909,-0.759 -1.826,-1.507 -2.747,-2.24 -0.381,-0.303 -0.444,-0.857 -0.141,-1.238 0.304,-0.38 0.861,-0.44 1.238,-0.139 0.931,0.742 1.859,1.497 2.779,2.267 0.373,0.311 0.422,0.866 0.113,1.239 -0.175,0.208 -0.427,0.315 -0.677,0.315zm-101.436 1.669l-0.366 -0.078c-0.444,-0.205 -0.636,-0.726 -0.434,-1.168 0.51,-1.113 1.047,-2.192 1.61,-3.242 0.229,-0.429 0.766,-0.586 1.192,-0.359 0.428,0.23 0.59,0.764 0.359,1.194 -0.545,1.016 -1.065,2.064 -1.562,3.141 -0.148,0.322 -0.465,0.512 -0.799,0.512zm108.122 4.23c-0.215,0 -0.43,-0.079 -0.601,-0.238 -0.866,-0.808 -1.741,-1.604 -2.62,-2.389 -0.364,-0.322 -0.394,-0.88 -0.07,-1.243 0.321,-0.361 0.879,-0.395 1.243,-0.071 0.888,0.792 1.77,1.599 2.647,2.416 0.357,0.331 0.375,0.888 0.045,1.244 -0.174,0.186 -0.41,0.281 -0.644,0.281zm-111.264 4.101l-0.255 -0.037c-0.466,-0.143 -0.727,-0.634 -0.586,-1.098 0.356,-1.168 0.734,-2.311 1.137,-3.427 0.166,-0.458 0.678,-0.694 1.127,-0.529 0.458,0.166 0.694,0.67 0.529,1.127 -0.395,1.088 -0.763,2.202 -1.108,3.341 -0.117,0.378 -0.465,0.623 -0.844,0.623zm117.631 2.138c-0.229,0 -0.459,-0.09 -0.632,-0.266 -0.827,-0.852 -1.658,-1.694 -2.497,-2.523 -0.346,-0.342 -0.35,-0.9 -0.007,-1.245 0.34,-0.347 0.896,-0.349 1.246,-0.007 0.844,0.838 1.686,1.686 2.52,2.546 0.341,0.348 0.333,0.907 -0.017,1.245 -0.169,0.167 -0.391,0.25 -0.613,0.25zm-119.712 6.522l-0.16 -0.016c-0.479,-0.086 -0.794,-0.546 -0.709,-1.023 0.22,-1.199 0.461,-2.375 0.725,-3.53 0.107,-0.472 0.576,-0.775 1.054,-0.662 0.476,0.109 0.772,0.581 0.663,1.056 -0.257,1.129 -0.496,2.278 -0.708,3.452 -0.078,0.426 -0.449,0.723 -0.865,0.723zm125.759 0.013c-0.243,0 -0.486,-0.101 -0.66,-0.298 -0.782,-0.888 -1.571,-1.765 -2.365,-2.633 -0.329,-0.357 -0.304,-0.914 0.053,-1.243 0.357,-0.327 0.914,-0.305 1.243,0.055 0.805,0.875 1.6,1.761 2.39,2.657 0.322,0.365 0.288,0.921 -0.078,1.242 -0.167,0.147 -0.375,0.22 -0.583,0.22zm5.739 6.803c-0.256,0 -0.513,-0.112 -0.685,-0.327 -0.742,-0.921 -1.492,-1.835 -2.249,-2.738 -0.312,-0.374 -0.261,-0.93 0.113,-1.242 0.368,-0.312 0.923,-0.262 1.239,0.111 0.763,0.913 1.52,1.835 2.268,2.765 0.305,0.378 0.245,0.933 -0.133,1.238 -0.164,0.13 -0.358,0.193 -0.553,0.193zm-132.671 2.015l-0.076 -0.004c-0.485,-0.042 -0.843,-0.468 -0.802,-0.952 0.104,-1.212 0.227,-2.404 0.371,-3.577 0.062,-0.482 0.511,-0.824 0.981,-0.768 0.483,0.061 0.828,0.499 0.768,0.984 -0.143,1.151 -0.263,2.322 -0.365,3.512 -0.04,0.458 -0.426,0.805 -0.877,0.805zm138.112 5.036c-0.27,0 -0.535,-0.123 -0.708,-0.357 -0.705,-0.953 -1.413,-1.899 -2.131,-2.837 -0.294,-0.386 -0.222,-0.939 0.166,-1.234 0.384,-0.294 0.936,-0.223 1.234,0.165 0.722,0.945 1.437,1.898 2.147,2.859 0.288,0.392 0.208,0.943 -0.186,1.231 -0.156,0.116 -0.339,0.173 -0.522,0.173zm-138.501 3.865l-0.003 0c-0.488,-0.002 -0.879,-0.398 -0.877,-0.884 0.005,-1.213 0.026,-2.412 0.071,-3.594 0.017,-0.475 0.408,-0.847 0.879,-0.847l0.033 0c0.486,0.018 0.866,0.426 0.848,0.912 -0.044,1.164 -0.065,2.342 -0.07,3.536 -0.002,0.484 -0.397,0.877 -0.881,0.877zm143.634 3.414c-0.282,0 -0.558,-0.136 -0.729,-0.387 -0.664,-0.981 -1.333,-1.958 -2.011,-2.926 -0.278,-0.399 -0.18,-0.948 0.218,-1.226 0.396,-0.275 0.947,-0.183 1.227,0.218 0.68,0.975 1.357,1.959 2.024,2.948 0.272,0.403 0.167,0.951 -0.236,1.222 -0.152,0.102 -0.323,0.151 -0.493,0.151zm-143.35 5.494c-0.46,0 -0.845,-0.358 -0.877,-0.822 -0.081,-1.199 -0.145,-2.395 -0.192,-3.585 -0.019,-0.486 0.359,-0.895 0.845,-0.914l0.035 0c0.471,0 0.861,0.369 0.881,0.845 0.044,1.173 0.107,2.351 0.188,3.536 0.032,0.484 -0.334,0.905 -0.818,0.939l-0.062 0.001zm148.181 1.996c-0.294,0 -0.582,-0.149 -0.749,-0.418 -0.62,-1.009 -1.249,-2.013 -1.887,-3.01 -0.262,-0.408 -0.142,-0.952 0.268,-1.214 0.407,-0.261 0.953,-0.145 1.215,0.268 0.643,1.003 1.277,2.014 1.904,3.031 0.255,0.414 0.125,0.957 -0.288,1.212l-0.463 0.131zm-147.292 6.873c-0.435,0 -0.813,-0.322 -0.871,-0.766 -0.157,-1.189 -0.3,-2.377 -0.427,-3.56 -0.052,-0.484 0.296,-0.917 0.781,-0.97 0.473,-0.053 0.917,0.296 0.969,0.78 0.127,1.171 0.266,2.344 0.423,3.52 0.063,0.482 -0.276,0.924 -0.759,0.988l-0.116 0.008zm151.815 0.812c-0.309,0 -0.607,-0.161 -0.768,-0.448 -0.582,-1.034 -1.17,-2.062 -1.765,-3.087 -0.246,-0.42 -0.102,-0.959 0.318,-1.203 0.415,-0.243 0.957,-0.104 1.202,0.317 0.602,1.031 1.194,2.069 1.778,3.108 0.24,0.424 0.089,0.961 -0.334,1.201l-0.431 0.112zm4.203 7.868c-0.319,0 -0.629,-0.176 -0.786,-0.482 -0.535,-1.055 -1.081,-2.108 -1.636,-3.156 -0.229,-0.43 -0.063,-0.962 0.365,-1.191 0.431,-0.224 0.963,-0.063 1.19,0.367 0.56,1.056 1.111,2.118 1.653,3.182 0.221,0.435 0.047,0.965 -0.387,1.185l-0.399 0.095zm3.879 8.037c-0.333,0 -0.654,-0.192 -0.801,-0.516 -0.492,-1.076 -0.992,-2.15 -1.504,-3.221 -0.21,-0.441 -0.025,-0.965 0.414,-1.175 0.436,-0.209 0.963,-0.023 1.174,0.414 0.516,1.081 1.023,2.164 1.52,3.251 0.2,0.442 0.005,0.965 -0.437,1.167l-0.366 0.08zm3.532 8.196c-0.347,0 -0.676,-0.21 -0.817,-0.551 -0.442,-1.095 -0.896,-2.19 -1.363,-3.282 -0.19,-0.447 0.018,-0.965 0.465,-1.155 0.453,-0.192 0.965,0.016 1.155,0.465 0.47,1.102 0.928,2.206 1.377,3.312 0.183,0.45 -0.035,0.963 -0.486,1.146l-0.331 0.065z"/>
  <path class="fil1" d="M588.116 149.089c-0.359,0 -0.697,-0.22 -0.827,-0.578l-0.61 -1.646c-0.167,-0.456 0.065,-0.963 0.52,-1.135 0.449,-0.17 0.961,0.066 1.132,0.52l0.613 1.657c0.165,0.456 -0.069,0.962 -0.525,1.129l-0.303 0.053z"/>
  <path class="fil4" d="M556.18 280.445c-0.347,0 -0.679,-0.207 -0.817,-0.551 -0.219,-0.539 -0.441,-1.079 -0.666,-1.618 -0.187,-0.447 0.023,-0.963 0.472,-1.152 0.451,-0.185 0.965,0.025 1.151,0.472 0.229,0.544 0.455,1.092 0.676,1.638 0.183,0.451 -0.035,0.963 -0.486,1.148l-0.33 0.063z"/>
  <path class="fil4" d="M559.178 288.635c-0.37,0 -0.713,-0.234 -0.834,-0.606 -0.361,-1.093 -0.736,-2.185 -1.129,-3.276 -0.164,-0.458 0.074,-0.964 0.531,-1.127 0.46,-0.159 0.964,0.073 1.126,0.531 0.396,1.106 0.778,2.216 1.142,3.323 0.154,0.461 -0.098,0.96 -0.56,1.111l-0.276 0.044zm2.43 8.378c-0.394,0 -0.753,-0.266 -0.854,-0.666 -0.278,-1.118 -0.576,-2.232 -0.893,-3.348 -0.132,-0.469 0.141,-0.955 0.61,-1.087 0.463,-0.13 0.954,0.141 1.086,0.608 0.321,1.134 0.62,2.266 0.907,3.398 0.116,0.472 -0.169,0.951 -0.641,1.069l-0.215 0.026zm1.787 8.535c-0.421,0 -0.794,-0.304 -0.866,-0.734 -0.19,-1.132 -0.4,-2.266 -0.629,-3.404 -0.094,-0.475 0.213,-0.94 0.691,-1.037 0.47,-0.093 0.94,0.211 1.037,0.691 0.232,1.156 0.446,2.308 0.637,3.457 0.081,0.48 -0.244,0.934 -0.722,1.015l-0.148 0.012zm1.053 8.658c-0.454,0 -0.84,-0.352 -0.877,-0.813 -0.084,-1.143 -0.191,-2.291 -0.322,-3.443 -0.053,-0.484 0.294,-0.919 0.777,-0.973 0.475,-0.058 0.919,0.292 0.973,0.776 0.131,1.173 0.242,2.342 0.33,3.506 0.037,0.484 -0.326,0.907 -0.81,0.946l-0.071 0.001zm0.204 8.717l-0.03 0c-0.484,-0.016 -0.865,-0.423 -0.85,-0.911 0.025,-0.789 0.037,-1.592 0.037,-2.403l-0.007 -1.045c-0.007,-0.484 0.382,-0.885 0.868,-0.892 0.49,0.063 0.886,0.382 0.893,0.869l0.007 1.068c0,0.833 -0.012,1.653 -0.037,2.461 -0.016,0.476 -0.408,0.853 -0.881,0.853zm-0.822 8.674l-0.146 -0.013c-0.48,-0.079 -0.804,-0.533 -0.724,-1.012 0.184,-1.108 0.337,-2.244 0.46,-3.405 0.053,-0.485 0.49,-0.843 0.968,-0.783 0.485,0.052 0.835,0.485 0.784,0.969 -0.129,1.196 -0.285,2.365 -0.475,3.508 -0.072,0.431 -0.446,0.736 -0.867,0.736zm-2.095 8.448l-0.285 -0.048c-0.46,-0.158 -0.705,-0.658 -0.546,-1.118 0.362,-1.056 0.695,-2.156 0.989,-3.275 0.127,-0.468 0.599,-0.759 1.078,-0.625 0.468,0.123 0.749,0.604 0.625,1.076 -0.306,1.157 -0.652,2.3 -1.028,3.397 -0.125,0.366 -0.467,0.593 -0.833,0.593zm-3.666 7.889l-0.458 -0.129c-0.416,-0.253 -0.546,-0.794 -0.293,-1.211 0.58,-0.947 1.129,-1.951 1.633,-2.983 0.215,-0.439 0.75,-0.613 1.178,-0.405 0.436,0.214 0.618,0.741 0.405,1.178 -0.53,1.081 -1.106,2.132 -1.714,3.129 -0.167,0.271 -0.455,0.421 -0.751,0.421zm-5.475 6.749c-0.236,0 -0.472,-0.095 -0.644,-0.281 -0.333,-0.356 -0.312,-0.914 0.046,-1.244 0.817,-0.759 1.603,-1.581 2.34,-2.442 0.317,-0.371 0.875,-0.414 1.24,-0.099 0.371,0.316 0.415,0.872 0.098,1.24 -0.778,0.915 -1.615,1.786 -2.481,2.59 -0.169,0.159 -0.384,0.236 -0.599,0.236zm-37.689 4.201l-0.322 -0.059c-1.075,-0.425 -2.159,-0.883 -3.256,-1.384 -0.44,-0.203 -0.636,-0.726 -0.435,-1.168 0.204,-0.443 0.729,-0.632 1.169,-0.435 1.063,0.488 2.118,0.935 3.164,1.346 0.453,0.178 0.676,0.69 0.5,1.141 -0.139,0.348 -0.47,0.559 -0.82,0.559zm30.506 0.668c-0.33,0 -0.645,-0.188 -0.795,-0.506 -0.208,-0.439 -0.019,-0.964 0.421,-1.172 1.011,-0.475 2.005,-1.022 2.956,-1.624 0.408,-0.262 0.953,-0.14 1.213,0.271 0.262,0.409 0.139,0.955 -0.271,1.214 -1.011,0.644 -2.07,1.227 -3.148,1.733l-0.376 0.084zm-22.177 1.882l-0.185 -0.021c-1.125,-0.241 -2.282,-0.535 -3.439,-0.869 -0.469,-0.136 -0.736,-0.624 -0.602,-1.09 0.135,-0.469 0.623,-0.742 1.09,-0.603 1.12,0.324 2.236,0.607 3.322,0.844 0.476,0.1 0.777,0.57 0.673,1.044 -0.086,0.413 -0.452,0.695 -0.859,0.695zm13.858 0.615c-0.428,0 -0.803,-0.313 -0.869,-0.75 -0.071,-0.483 0.261,-0.93 0.74,-1.002 1.125,-0.167 2.242,-0.398 3.316,-0.685 0.472,-0.121 0.952,0.156 1.077,0.623 0.126,0.47 -0.155,0.953 -0.623,1.08 -1.141,0.301 -2.321,0.545 -3.507,0.723l-0.134 0.011zm-5.211 0.368l-0.003 0c-1.175,-0.005 -2.372,-0.067 -3.561,-0.178 -0.484,-0.046 -0.839,-0.477 -0.794,-0.96 0.046,-0.484 0.509,-0.822 0.96,-0.794 1.136,0.107 2.282,0.166 3.402,0.171 0.487,0.002 0.878,0.398 0.877,0.884 -0.002,0.484 -0.394,0.877 -0.881,0.877z"/>
  <path class="fil4" d="M506.965 355.143l-0.423 -0.11c-0.516,-0.283 -1.033,-0.573 -1.552,-0.873 -0.422,-0.242 -0.568,-0.779 -0.326,-1.202 0.243,-0.425 0.783,-0.567 1.202,-0.324 0.509,0.292 1.016,0.579 1.521,0.855 0.427,0.234 0.583,0.77 0.349,1.196 -0.158,0.292 -0.461,0.458 -0.771,0.458z"/>
  <path class="fil4" d="M554.096 281.31l-0.056 -0.002c-0.484,-0.031 -0.854,-0.449 -0.822,-0.933l0.292 -4.696c0.019,-0.322 0.215,-0.608 0.507,-0.743 0.296,-0.135 0.638,-0.102 0.895,0.091l3.961 2.936c0.391,0.288 0.474,0.839 0.184,1.231 -0.289,0.39 -0.839,0.471 -1.231,0.181l-2.661 -1.971 -0.19 3.08c-0.03,0.466 -0.417,0.826 -0.879,0.826z"/>
  <path class="fil3" d="M234.549 125.271c-0.031,-5.781 -8.174,-10.482 -18.186,-10.5 -10.012,-0.017 -18.103,4.654 -18.071,10.433 0.027,5.292 6.856,9.666 15.687,10.386l0.016 2.93c-1.673,0.255 -2.909,1.127 -2.904,2.176l0.055 10.002c0.007,1.252 1.769,2.27 3.938,2.275l2.973 0.005c2.168,0.004 3.922,-1.009 3.914,-2.26l-0.054 -10.002c-0.005,-1.049 -1.251,-1.925 -2.929,-2.187l-0.014 -2.93c8.824,-0.689 15.603,-5.038 15.575,-10.328z"/>
  <path class="fil2" d="M454.011 534.501l-314.784 -181.846c-12.187,-7.037 -22.066,-25.913 -22.066,-42.162l0 -286.357c0,-16.249 9.879,-23.716 22.066,-16.682l314.784 181.848c12.187,7.036 22.065,25.912 22.065,42.161l0 286.355c0,16.251 -9.878,23.719 -22.065,16.683z"/>
  <path class="fil8" d="M462.736 184.794l-314.784 -181.846c-4.821,-2.784 -9.281,-3.298 -12.912,-1.897 -0.462,0.18 -9.085,4.633 -9.52,4.875l-0.019 0.012c3.759,-1.827 8.528,-1.485 13.726,1.516l314.784 181.848c12.187,7.036 22.065,25.912 22.065,42.161l0 286.357c0,10.141 -3.848,16.858 -9.704,18.769 0.477,0.026 1.072,-0.16 1.933,-0.659 0.28,-0.16 9.428,-5.113 9.694,-5.3 4.192,-2.935 6.802,-8.968 6.802,-17.32l0 -286.354c0,-16.25 -9.88,-35.126 -22.065,-42.162z"/>
  <path class="fil9" d="M460.264 185.979l-314.783 -181.846c-4.821,-2.784 -9.281,-3.298 -12.912,-1.895 -0.461,0.178 -6.614,3.446 -7.049,3.688l-0.019 0.012c3.759,-1.827 8.528,-1.485 13.726,1.516l314.784 181.848 6.253 -3.323z"/>
  <path class="fil3" d="M474.979 526.374c0,-0.002 0,-0.002 0,-0.002 0,0 0,0 0,0.002zm0.016 -0.054c0.004,-0.015 0.007,-0.028 0.011,-0.041 -0.004,0.013 -0.007,0.026 -0.011,0.041zm0.015 -0.055c0.004,-0.014 0.008,-0.026 0.011,-0.039 -0.003,0.013 -0.007,0.025 -0.011,0.039zm0.014 -0.053c0.004,-0.012 0.008,-0.028 0.013,-0.042 -0.005,0.014 -0.009,0.028 -0.013,0.042zm0.015 -0.049c0.674,-2.432 1.037,-5.226 1.037,-8.345l0 -30.868 0 30.87c0,3.117 -0.363,5.911 -1.037,8.343zm1.037 -159.298l0 0zm0 -12.703l0 -53.278 0 0 0 53.278zm0 -105.974l0 -0.002 0 0.002zm0 -8.177l0 -8.548c0,-3.121 -0.364,-6.344 -1.041,-9.558l0 0c0.677,3.214 1.041,6.437 1.041,9.558l0 8.548z"/>
  <polygon class="fil3" points="476.076,282.868 476.076,265.05 476.076,265.05 "/>
  <path class="fil3" d="M476.076 300.884l0 0 0 -14.113 0 14.113zm0 -37.331l0 -15.365 0 15.365 0 0z"/>
  <polygon class="fil3" points="476.076,248.188 476.076,240.011 "/>
  <polygon class="fil3" points="476.076,264.999 476.076,264.999 476.076,264.981 476.076,264.981 "/>
  <path class="fil3" d="M476.076 283.382l0 -0.514 0 0.514zm0 -18.332l0 -0.051 0 0.051 0 0z"/>
  <path class="fil3" d="M476.076 286.771l0 -3.39 0 3.39zm0 -21.79l0 -1.428 0 0 0 1.428z"/>
  <path class="fil3" d="M474.711 220.465c-2.29,-9.577 -7.279,-18.968 -13.539,-25.443 6.26,6.475 11.249,15.866 13.539,25.443l0 0z"/>
  <path class="fil3" d="M475.035 221.905l0 0c-0.011,-0.05 -0.021,-0.1 -0.031,-0.149l0 0c0.01,0.049 0.02,0.099 0.031,0.149z"/>
  <path class="fil3" d="M474.933 221.435c-0.07,-0.324 -0.144,-0.646 -0.222,-0.97l0 0c0.078,0.322 0.152,0.646 0.224,0.97l-0.002 0z"/>
  <path class="fil3" d="M475.004 221.756c-0.023,-0.108 -0.046,-0.213 -0.071,-0.321l0.002 0c0.023,0.108 0.046,0.213 0.069,0.321l0 0z"/>
  <path class="fil3" d="M139.227 7.454c-0.079,-0.046 -0.16,-0.091 -0.24,-0.136 0.08,0.045 0.161,0.09 0.24,0.136z"/>
  <path class="fil3" d="M465.714 536.464c5.32,-2.299 8.773,-8.794 8.773,-18.38l0 -32.044 1.589 0.91 0 30.868c0,3.119 -0.363,5.913 -1.037,8.345 -0.002,0.002 -0.002,0.003 -0.002,0.007 -0.005,0.014 -0.009,0.03 -0.013,0.042 -0.001,0.005 -0.003,0.009 -0.003,0.014 -0.003,0.013 -0.007,0.025 -0.011,0.039 -0.001,0.004 -0.003,0.009 -0.004,0.014 -0.004,0.013 -0.007,0.026 -0.011,0.041 -0.005,0.017 -0.011,0.033 -0.016,0.052 0,0 0,0 0,0.002 -1.261,4.388 -3.546,7.565 -6.531,9.289 -0.865,0.38 -1.779,0.649 -2.734,0.801zm10.362 -169.599l-1.589 -0.912 0 0 1.589 0.912 0 0zm0 -12.703l-1.589 -0.912 0 -121.52c0,-16.251 -9.879,-35.127 -22.065,-42.163l-314.783 -181.847c-3.108,-1.794 -6.065,-2.64 -8.745,-2.64 -0.382,0 -0.757,0.018 -1.125,0.051 0.87,-0.206 1.782,-0.312 2.728,-0.312 2.606,0 5.474,0.8 8.49,2.499 0.08,0.045 0.161,0.09 0.24,0.136l0 0 314.784 181.848c2.507,1.447 4.916,3.396 7.161,5.72 6.26,6.475 11.249,15.866 13.539,25.443 0.078,0.324 0.152,0.646 0.222,0.97l0 0c0.025,0.108 0.048,0.213 0.071,0.321 0.01,0.049 0.02,0.099 0.031,0.149 0.677,3.214 1.041,6.437 1.041,9.558l0 122.699z"/>
  <path class="fil3" d="M468.448 535.663c2.985,-1.724 5.27,-4.901 6.531,-9.289 0,-0.002 0,-0.002 0,-0.002 0.005,-0.019 0.011,-0.035 0.016,-0.052 0.004,-0.015 0.007,-0.028 0.011,-0.041 0.001,-0.005 0.003,-0.01 0.004,-0.014 0.004,-0.014 0.008,-0.026 0.011,-0.039 0,-0.005 0.002,-0.009 0.003,-0.014 0.004,-0.014 0.008,-0.028 0.013,-0.042 0,-0.004 0,-0.005 0.002,-0.007 0.674,-2.432 1.037,-5.226 1.037,-8.343l0 -30.87 1.06 0.608 0 29.731c0,9.541 -3.409,16.048 -8.688,18.374zm8.688 -168.189l-1.06 -0.609 0 0 1.06 0.607 0 0.002zm0 -12.704l-1.06 -0.608 0 -122.699c0,-3.121 -0.364,-6.344 -1.041,-9.558 -0.011,-0.05 -0.021,-0.1 -0.031,-0.149 -0.023,-0.108 -0.046,-0.213 -0.069,-0.321l0 0c-0.072,-0.324 -0.146,-0.648 -0.224,-0.97 -2.29,-9.577 -7.279,-18.968 -13.539,-25.443 -2.245,-2.324 -4.654,-4.273 -7.161,-5.72l1.028 -0.546 0.03 0.017c12.187,7.035 22.067,25.911 22.067,42.161l0 123.836z"/>
  <path class="fil3" d="M454.011 189.302l-314.784 -181.848 0 0c-0.079,-0.046 -0.16,-0.091 -0.24,-0.136 -3.016,-1.699 -5.884,-2.499 -8.49,-2.499 -0.946,0 -1.858,0.106 -2.728,0.312 -0.261,0.023 -0.519,0.057 -0.773,0.097 1.409,-0.609 2.947,-0.926 4.589,-0.926 2.668,0 5.608,0.838 8.702,2.624l314.752 181.83 -1.028 0.546z"/>
  <path class="fil9" d="M129.555 49.596l0 260.897c0,12.743 6.066,25.198 15.874,31.431l311.422 179.884c0.118,0.067 0.294,0.17 0.517,0.296 2.813,1.604 6.315,-0.426 6.315,-3.664l0 -275.822 -334.128 -193.022z"/>
  <path class="fil8" d="M463.237 519.757c-0.223,-0.128 -0.399,-0.229 -0.515,-0.296l-311.424 -179.886c-9.808,-6.232 -15.874,-18.686 -15.874,-31.431l0 -255.156 -5.869 -3.392 0 260.897c0,12.743 6.066,25.198 15.874,31.431l311.422 179.884c0.118,0.067 0.294,0.17 0.517,0.296 2.379,1.356 5.225,0.1 6.056,-2.271l-0.187 -0.076z"/>
  <path class="fil10" d="M446.154 211.291c0,3.849 2.719,8.539 6.073,10.475 3.353,1.937 6.073,0.386 6.073,-3.461 0,-3.85 -2.72,-8.539 -6.073,-10.476 -3.354,-1.937 -6.073,-0.386 -6.073,3.462z"/>
  <path class="fil9" d="M430.489 202.193c0,3.849 2.721,8.538 6.073,10.475 3.355,1.935 6.073,0.386 6.073,-3.464 0,-3.847 -2.718,-8.538 -6.073,-10.473 -3.352,-1.937 -6.073,-0.388 -6.073,3.462z"/>
  <path class="fil8" d="M414.826 193.094c0,3.848 2.719,8.539 6.074,10.474 3.352,1.937 6.073,0.387 6.073,-3.462 0,-3.849 -2.721,-8.539 -6.073,-10.476 -3.355,-1.935 -6.074,-0.385 -6.074,3.464z"/>
  <path class="fil11" d="M447.762 249.528l-22.842 -13.187c-2.307,-1.333 -4.179,-0.266 -4.179,2.383 0,2.648 1.872,5.874 4.179,7.207l22.842 13.187c2.306,1.331 4.176,0.266 4.176,-2.383 0,-2.648 -1.87,-5.874 -4.176,-7.207zm-37.605 -21.71l-22.841 -13.189c-2.308,-1.331 -4.178,-0.263 -4.178,2.383 0,2.648 1.87,5.874 4.178,7.208l22.841 13.186c2.308,1.333 4.178,0.266 4.178,-2.382 0,-2.647 -1.87,-5.874 -4.178,-7.206zm-37.604 -21.711l-22.842 -13.187c-2.307,-1.333 -4.178,-0.266 -4.178,2.382 0,2.649 1.871,5.875 4.178,7.206l22.842 13.189c2.307,1.331 4.179,0.266 4.179,-2.383 0,-2.648 -1.872,-5.874 -4.179,-7.207zm-37.604 -21.712l-22.841 -13.186c-2.308,-1.331 -4.179,-0.265 -4.179,2.382 0,2.649 1.871,5.874 4.179,7.207l22.841 13.188c2.308,1.332 4.178,0.265 4.178,-2.383 0,-2.647 -1.87,-5.874 -4.178,-7.208z"/>
  <polygon class="fil12" points="244.319,203.245 244.319,301.544 255.07,295.251 255.07,196.672 "/>
  <polygon class="fil13" points="244.359,203.245 244.359,301.544 29.893,178.555 29.893,79.976 "/>
  <polygon class="fil0" points="29.893,79.976 244.359,203.245 255.07,196.672 40.536,73.502 "/>
  <polygon class="fil14" points="244.359,203.245 244.359,203.245 29.893,79.976 244.331,201.749 255.07,196.672 "/>
  <polygon class="fil3" points="212.949,265.892 212.949,261.717 145.263,223.239 145.263,227.411 "/>
  <polygon class="fil3" points="115.95,145.607 115.95,149.781 229.726,214.869 229.726,210.696 "/>
  <polygon class="fil3" points="156.011,203.427 115.95,180.298 115.95,184.471 156.011,207.6 "/>
  <polygon class="fil3" points="183.122,236.424 183.122,240.597 199.67,249.551 199.67,245.378 "/>
  <polygon class="fil3" points="180.552,200.252 115.95,162.952 115.95,167.127 180.552,204.425 "/>
  <polygon class="fil3" points="139.613,185.287 115.95,171.626 115.95,175.799 139.613,189.46 "/>
  <polygon class="fil3" points="133.597,212.004 179.012,238.225 179.012,234.052 133.597,207.831 "/>
  <polygon class="fil3" points="143.722,187.658 143.722,191.834 207.483,228.045 207.483,223.873 "/>
  <polygon class="fil3" points="160.12,205.799 160.12,209.972 191.998,228.378 191.998,224.205 "/>
  <polygon class="fil3" points="129.488,205.459 115.95,197.643 115.95,201.816 129.488,209.632 "/>
  <polygon class="fil3" points="184.662,206.797 229.726,232.214 229.726,228.04 184.662,202.624 "/>
  <polygon class="fil3" points="211.593,230.417 229.726,240.886 229.726,236.712 211.593,226.244 "/>
  <polygon class="fil3" points="115.95,158.455 229.726,223.541 229.726,219.368 115.95,154.28 "/>
  <polygon class="fil3" points="196.108,230.75 229.726,249.56 229.726,245.385 196.108,226.577 "/>
  <polygon class="fil3" points="141.153,220.867 115.95,206.315 115.95,210.49 141.153,225.04 "/>
  <polygon class="fil3" points="217.059,268.264 229.726,275.577 229.726,271.403 217.059,264.088 "/>
  <polygon class="fil3" points="203.778,251.923 229.726,266.904 229.726,262.731 203.778,247.749 "/>
  <polygon class="fil3" points="115.95,193.144 229.726,258.232 229.726,254.057 115.95,188.97 "/>
  <path class="fil12" d="M92.178 129.101l-37.406 -21.637c-6.538,-3.776 -11.84,0.232 -11.84,8.952l0 43.294c0,8.72 5.302,18.85 11.84,22.624l37.406 21.637c6.539,3.777 11.84,-0.231 11.84,-8.95l0 -43.296c0,-8.72 -5.301,-18.848 -11.84,-22.624z"/>
  <path class="fil15" d="M96.801 200.449l-37.406 -21.636c-6.539,-3.776 -11.84,-13.905 -11.84,-22.625l0 -43.294c0,-2.757 0.533,-5.039 1.465,-6.758 -3.63,0.602 -6.088,4.346 -6.088,10.28l0 43.294c0,8.72 5.302,18.85 11.84,22.624l37.406 21.637c4.471,2.582 8.361,1.522 10.375,-2.194 -1.703,0.284 -3.664,-0.121 -5.752,-1.328z"/>
  <path class="fil10" d="M63.124 141.207l-37.406 -21.637c-6.538,-3.776 -11.84,0.232 -11.84,8.951l0 43.295c0,8.72 5.302,18.848 11.84,22.625l37.406 21.636c6.538,3.777 11.84,-0.231 11.84,-8.951l0 -43.296c0,-8.719 -5.302,-18.848 -11.84,-22.623z"/>
  <path class="fil16" d="M69.226 137.629l-37.405 -21.636c-2.801,-1.618 -5.37,-1.798 -7.397,-0.801l-0.063 -0.07 -6.473 3.799 0.024 0.08c2.085,-1.241 4.813,-1.16 7.808,0.569l37.404 21.637c6.538,3.775 11.84,13.904 11.84,22.623l0 43.296c0,4.239 -1.259,7.35 -3.298,9.01l3.61 -2.378c3.032,-1.738 5.79,-4.441 5.79,-10.209l0 -43.296c0,-8.718 -5.3,-18.849 -11.84,-22.624z"/>
  <path class="fil3" d="M74.964 207.229c0,-0.002 0,-0.006 0,-0.009 0,0.003 0,0.005 0,0.009zm0 -0.046c0,-0.004 0,-0.007 0,-0.011 0,0.004 0,0.007 0,0.011z"/>
  <path class="fil3" d="M29.893 121.984l-4.175 -2.414c-0.324,-0.187 -0.646,-0.356 -0.965,-0.506 0.319,0.15 0.641,0.317 0.967,0.506l4.173 2.414 0 0z"/>
  <polygon class="fil17" points="42.932,129.527 29.893,121.984 29.893,121.984 42.932,129.527 "/>
  <path class="fil18" d="M74.964 163.83c0,-8.719 -5.302,-18.848 -11.84,-22.623l-15.569 -9.007 0 0 15.569 9.007c6.538,3.775 11.84,13.904 11.84,22.623z"/>
  <polygon class="fil19" points="47.555,132.2 42.932,129.527 42.932,129.527 47.555,132.2 "/>
  <path class="fil3" d="M18.055 118.777c0.433,-0.32 0.9,-0.579 1.393,-0.771l-1.192 0.699c-0.067,0.023 -0.134,0.048 -0.201,0.072z"/>
  <path class="fil20" d="M70.676 216.537c2.168,-1.61 3.513,-4.8 3.513,-9.188l0 -43.297c0,-8.72 -5.301,-18.848 -11.841,-22.623l-37.405 -21.637c-1.661,-0.96 -3.239,-1.411 -4.673,-1.411 -0.464,0 -0.915,0.048 -1.349,0.141 0.662,-0.24 1.374,-0.365 2.124,-0.365 1.152,0 2.4,0.293 3.708,0.907 0.319,0.15 0.641,0.319 0.965,0.506l4.175 2.414 13.039 7.543 4.623 2.673 15.569 9.007c6.538,3.775 11.84,13.904 11.84,22.623l0 43.296c0,0.017 0,0.031 0,0.046 0,0.004 0,0.007 0,0.011 0,0.012 0,0.025 0,0.037 0,0.003 0,0.007 0,0.009 -0.019,3.91 -1.116,6.851 -2.908,8.563 -0.43,0.31 -0.89,0.559 -1.38,0.745z"/>
  <path class="fil20" d="M72.056 215.792c1.792,-1.712 2.889,-4.653 2.908,-8.563 0,-0.004 0,-0.006 0,-0.009 0,-0.012 0,-0.025 0,-0.037 0,-0.004 0,-0.007 0,-0.011 0,-0.015 0,-0.029 0,-0.046l0 -43.296c0,-8.719 -5.302,-18.848 -11.84,-22.623l-15.569 -9.007 -4.623 -2.673 -13.039 -7.543 -4.173 -2.414c-0.326,-0.189 -0.648,-0.356 -0.967,-0.506 -1.308,-0.614 -2.556,-0.907 -3.708,-0.907 -0.75,0 -1.462,0.125 -2.124,0.365 -0.225,0.049 -0.449,0.111 -0.665,0.183l1.192 -0.699c0.694,-0.269 1.446,-0.408 2.24,-0.408 1.44,0 3.026,0.453 4.696,1.417l37.404 21.637c6.54,3.777 11.842,13.906 11.842,22.626l0 43.294c0,4.427 -1.372,7.628 -3.574,9.22z"/>
  <path class="fil3" d="M61.765 200.006l-35.363 -20.428 0 -43.557 35.363 20.424 0 43.561zm-37.965 -68.489l0 49.563 40.564 23.429 0 -49.562 -40.564 -23.43z"/>
  <path class="fil3" d="M55.454 163.758c0,3.247 -2.294,4.554 -5.124,2.922 -2.83,-1.634 -5.124,-5.591 -5.124,-8.838 0,-3.247 2.294,-4.556 5.124,-2.921 2.83,1.632 5.124,5.59 5.124,8.837z"/>
  <polygon class="fil3" points="25.16,167.91 35.721,154.262 46.446,181.397 54.244,175.062 62.856,198.458 62.693,200.828 25.322,180.842 "/>
  <path class="fil21" d="M520.052 169.775c0,6.736 -2.324,11.506 -6.103,13.814l-6.57 4.068c-3.932,2.199 -1.418,-2.789 -7.387,-6.235 -12.016,-6.938 -21.755,-23.738 -21.755,-37.527 0,-6.817 -6.304,-6.871 -2.443,-9.149l7.315 -4.174c3.922,-2.124 9.28,-1.733 15.188,1.679 12.014,6.936 21.755,23.737 21.755,37.524z"/>
  <path class="fil3" d="M492.221 135.97c-5.76,-3.325 -10.991,-3.773 -14.884,-1.826 3.629,-1.016 8.13,-0.257 13.006,2.557 12.015,6.937 21.755,23.738 21.755,37.526 0,7.177 -2.643,12.118 -6.871,14.231 5.311,-1.486 8.75,-6.77 8.75,-14.962 0,-13.788 -9.74,-30.588 -21.756,-37.526z"/>
  <path class="fil22" d="M512.932 174.017c0,13.788 -9.739,19.342 -21.755,12.404 -12.014,-6.937 -21.755,-23.737 -21.755,-37.524 0,-13.788 9.741,-19.342 21.755,-12.404 12.016,6.936 21.755,23.736 21.755,37.524z"/>
  <path class="fil23" d="M487.288 152.515c0,1.937 -1.371,2.719 -3.057,1.743 -1.689,-0.975 -3.059,-3.334 -3.059,-5.271 0,-1.939 1.37,-2.719 3.059,-1.744 1.686,0.974 3.057,3.335 3.057,5.272z"/>
  <path class="fil23" d="M499.65 159.654c0,1.937 -1.368,2.718 -3.056,1.743 -1.689,-0.975 -3.057,-3.335 -3.057,-5.274 0,-1.937 1.368,-2.717 3.057,-1.741 1.688,0.973 3.056,3.335 3.056,5.272z"/>
  <path class="fil23" d="M478.86 160.494l2.85 0.482c1.314,4.998 4.833,9.875 8.754,12.139 3.805,2.198 7.286,1.473 8.664,-1.802l2.822 2.886c-1.826,4.342 -6.441,5.302 -11.486,2.389 -5.198,-3.001 -9.862,-9.468 -11.604,-16.094z"/>
  <path class="fil24" d="M485.123 153.633c-1.688,-0.975 -3.057,-3.335 -3.057,-5.272 0,-0.632 0.157,-1.125 0.411,-1.49 -0.787,0.18 -1.305,0.927 -1.305,2.116 0,1.937 1.37,4.296 3.059,5.271 1.137,0.657 2.118,0.503 2.644,-0.253 -0.496,0.115 -1.099,0.005 -1.752,-0.372z"/>
  <path class="fil24" d="M497.487 160.772c-1.689,-0.976 -3.057,-3.335 -3.057,-5.274 0,-0.63 0.157,-1.123 0.412,-1.488 -0.788,0.18 -1.305,0.927 -1.305,2.113 0,1.939 1.368,4.299 3.057,5.274 1.137,0.657 2.12,0.502 2.646,-0.254 -0.496,0.115 -1.1,0.006 -1.753,-0.371z"/>
  <path class="fil24" d="M499.478 171.672l-0.35 -0.359c-0.324,0.771 -0.774,1.387 -1.305,1.869 0.648,-0.345 1.209,-0.848 1.655,-1.51z"/>
  <path class="fil24" d="M491.357 175.963c-4.985,-2.877 -9.47,-8.944 -11.367,-15.277l-1.13 -0.192c1.742,6.626 6.406,13.093 11.604,16.094 3.798,2.194 7.351,2.189 9.655,0.201 -2.279,1.324 -5.424,1.102 -8.762,-0.826z"/>
  <polygon class="fil12" points="509.362,386.014 509.362,506.061 520.114,499.768 520.114,379.441 "/>
  <polygon class="fil13" points="509.402,386.014 509.402,506.061 274.687,371.462 274.687,251.138 "/>
  <polygon class="fil0" points="274.687,251.138 509.402,386.014 520.114,379.441 285.327,244.663 "/>
  <polygon class="fil14" points="509.402,386.014 477.136,367.472 476.076,366.865 476.076,366.865 474.487,365.953 274.687,251.138 509.372,384.518 520.114,379.441 "/>
  <path class="fil12" d="M495.152 438.581c0,23.342 -16.491,32.744 -36.833,20.999 -20.343,-11.744 -36.833,-40.187 -36.833,-63.529 0,-23.342 16.49,-32.745 36.833,-21 20.342,11.745 36.833,40.188 36.833,63.53z"/>
  <path class="fil15" d="M461.841 456.498c-20.343,-11.743 -36.833,-40.186 -36.833,-63.528 0,-8.71 2.298,-15.474 6.233,-19.93 -6.054,4.038 -9.755,11.958 -9.755,23.011 0,23.342 16.49,51.785 36.833,63.529 12.753,7.363 23.989,6.412 30.601,-1.071 -6.73,4.488 -16.369,4.173 -27.079,-2.011z"/>
  <path class="fil12" d="M307.975 320.758l-7.918 -4.573 0 57.561 7.918 4.573 0 -57.561zm-19.659 13.038l0 33.242 7.918 4.572 0 -33.241 -7.918 -4.573zm31.401 -3.238l-7.921 -4.573 0 54.861 7.921 4.573 0 -54.861zm81.183 55.289l-7.919 -4.573 0 46.964 7.919 4.571 0 -46.962zm-11.294 -28.324l-7.919 -4.573 0 68.69 7.919 4.573 0 -68.69zm-46.405 -32.083l-7.918 -4.571 0 73.766 7.918 4.574 0 -73.769zm-19.659 13.593l0 48.894 7.918 4.573 0 -48.896 -7.918 -4.571zm54.547 -6.287l-7.92 -4.571 0 86.756 7.92 4.573 0 -86.758zm-11.741 -20.159l-7.92 -4.574 0 100.209 7.92 4.573 0 -100.208zm-11.405 4.474l-7.92 -4.571 0 89.247 7.92 4.571 0 -89.247z"/>
  <path class="fil1" d="M400.9 392.813l-7.919 -4.571 0 39.996 7.919 4.571 0 -39.996zm-11.294 -22.506l-7.919 -4.571 0 55.904 7.919 4.573 0 -55.906zm-81.631 -12.877l-7.918 -4.573 0 20.889 7.918 4.573 0 -20.889zm-19.659 -0.019l0 9.627 7.918 4.572 0 -9.628 -7.918 -4.571zm31.401 -22.365l-7.921 -4.573 0 50.373 7.921 4.573 0 -50.373zm23.484 14.414l-7.918 -4.572 0 49.747 7.918 4.574 0 -49.749zm-19.659 1.452l0 37.015 7.918 4.573 0 -37.016 -7.918 -4.572zm54.547 -2.323l-7.92 -4.573 0 70.915 7.92 4.573 0 -70.915zm-11.741 -21.144l-7.92 -4.574 0 85.351 7.92 4.573 0 -85.35zm-11.405 24.648l-7.92 -4.571 0 54.215 7.92 4.571 0 -54.215z"/>
  <polygon class="fil3" points="378.089,349.578 370.169,345.005 370.169,344.016 378.089,348.589 "/>
  <polygon class="fil3" points="366.348,328.434 358.428,323.861 358.428,322.871 366.348,327.445 "/>
  <polygon class="fil3" points="400.9,393.802 392.981,389.231 392.981,388.242 400.9,392.813 "/>
  <polygon class="fil3" points="354.943,353.082 347.023,348.511 347.023,347.522 354.943,352.093 "/>
  <polygon class="fil3" points="389.606,371.297 381.687,366.726 381.687,365.736 389.606,370.307 "/>
  <polygon class="fil3" points="307.975,358.42 300.057,353.847 300.057,352.857 307.975,357.43 "/>
  <polygon class="fil3" points="319.717,336.034 311.796,331.463 311.796,330.473 319.717,335.046 "/>
  <polygon class="fil3" points="296.234,361.982 296.234,362.972 288.316,358.4 288.316,357.411 "/>
  <polygon class="fil3" points="343.201,350.45 335.283,345.877 335.283,344.888 343.201,349.46 "/>
  <polygon class="fil3" points="331.46,356.474 323.542,351.901 323.542,350.912 331.46,355.484 "/>
  <path class="fil25" d="M422.086 401.709c0.483,-17.642 13.307,-24.658 29.04,-15.573 8.099,4.677 15.429,12.734 20.708,21.933l5.804 -1.46c-6.612,-11.994 -16.047,-22.572 -26.512,-28.614 -19.799,-11.431 -35.928,-2.394 -36.17,20.122l4.644 4.217 2.486 -0.625z"/>
  <path class="fil25" d="M465.708 456.764c-4.293,0.391 -9.266,-0.807 -14.582,-3.876 -14.904,-8.603 -27.206,-28.642 -28.878,-46.201l-7.102 -3.58 -2.36 0.741c2.052,21.855 19.786,46.468 38.34,57.181 6.738,3.89 11.298,5.935 16.706,5.36 0.227,-0.023 2.203,-0.587 2.426,-0.618l-4.55 -9.007z"/>
  <path class="fil25" d="M474.583 413.401c3.522,7.554 5.629,15.552 5.629,22.904 0,10.546 -4.296,17.467 -10.971,19.733l4.495 8.903c8.265,-2.842 13.571,-11.46 13.571,-24.541 0,-9.129 -2.588,-19.066 -6.958,-28.45l-5.766 1.451z"/>
  <path class="fil10" d="M461.112 428.029c-1.949,-1.663 -3.708,-3.776 -5.101,-6.107 -0.843,-1.412 -0.813,-2.944 0.007,-3.422 1.06,-0.618 1.995,-1.6 2.604,-2.905 0.895,0.248 2.002,-0.081 2.002,-1.307 0,-1.252 -0.552,-2.613 -1.29,-3.301 -0.219,-5.351 -2.046,-10.851 -8.202,-14.404 -2.152,-1.243 -3.776,-1.638 -4.985,-1.407 -0.282,0.055 -2.722,0.698 -2.96,0.815 -1.67,0.83 -0.134,2.622 -0.257,5.524 -0.74,-0.163 -1.293,0.56 -1.293,1.81 0,1.226 1.11,2.835 2.004,3.621 0.609,2.007 1.543,4.069 2.603,5.91 0.82,1.425 0.85,2.99 0.007,3.429 -1.391,0.724 -3.15,0.807 -5.1,0.218 -0.783,-0.237 -1.506,-0.258 -2.133,-0.086 -0.177,0.049 -2.369,0.618 -2.533,0.699 -1.144,0.571 0.162,1.405 0.162,3.348l0 5.518c0,1.069 0.755,2.372 1.687,2.911l23.648 15.652c0.41,0.237 2.733,-0.59 3.025,-0.699 0.372,-0.139 0.61,-0.538 0.61,-1.138l0 -5.518c0,-3.184 -1.921,-6.96 -4.505,-9.161z"/>
  <path class="fil3" d="M420.496 402.163c0.483,-17.642 13.307,-24.657 29.04,-15.573 8.098,4.677 15.429,12.735 20.708,21.933l5.804 -1.459c-6.612,-11.995 -16.047,-22.573 -26.512,-28.614 -19.799,-11.432 -35.928,-2.395 -36.169,20.121l7.129 3.592z"/>
  <path class="fil3" d="M464.118 457.218c-4.293,0.391 -9.266,-0.806 -14.582,-3.876 -14.903,-8.603 -27.207,-28.642 -28.878,-46.201l-7.101 -3.58c1.908,21.949 17.314,47.146 35.979,57.922 7.021,4.054 13.578,5.524 19.132,4.742l-4.55 -9.007z"/>
  <path class="fil3" d="M472.993 413.855c3.521,7.555 5.63,15.552 5.63,22.904 0,10.545 -4.297,17.467 -10.974,19.734l4.497 8.902c8.265,-2.841 13.571,-11.459 13.571,-24.541 0,-9.128 -2.589,-19.066 -6.957,-28.45l-5.767 1.451z"/>
  <path class="fil3" d="M459.522 428.482c-1.949,-1.661 -3.709,-3.774 -5.101,-6.106 -0.843,-1.412 -0.814,-2.944 0.007,-3.421 1.06,-0.618 1.995,-1.601 2.604,-2.906 0.895,0.249 2.003,-0.081 2.003,-1.306 0,-1.252 -0.554,-2.614 -1.291,-3.302 -0.219,-5.351 -2.046,-10.85 -8.203,-14.404 -6.155,-3.555 -7.984,-0.167 -8.202,4.933 -0.739,-0.165 -1.292,0.559 -1.292,1.81 0,1.225 1.109,2.835 2.004,3.62 0.609,2.007 1.543,4.069 2.602,5.911 0.821,1.424 0.851,2.99 0.007,3.429 -1.391,0.723 -3.15,0.806 -5.099,0.218 -2.585,-0.782 -4.506,0.776 -4.506,3.96l0 5.518c0,1.069 0.757,2.373 1.689,2.911l25.595 14.778c0.932,0.538 1.687,0.107 1.687,-0.962l0 -5.518c0,-3.184 -1.921,-6.962 -4.504,-9.163z"/>
  <path class="fil25" d="M419.587 402.39c0.483,-17.642 13.307,-24.657 29.041,-15.573 8.098,4.677 15.429,12.734 20.708,21.934l5.803 -1.46c-6.612,-11.995 -16.046,-22.573 -26.511,-28.614 -19.8,-11.432 -35.929,-2.395 -36.17,20.121l7.129 3.592z"/>
  <path class="fil25" d="M463.209 457.445c-4.293,0.391 -9.265,-0.806 -14.581,-3.876 -14.904,-8.603 -27.207,-28.641 -28.878,-46.201l-7.102 -3.58c1.909,21.949 17.315,47.146 35.98,57.922 7.02,4.053 13.578,5.524 19.131,4.742l-4.55 -9.007z"/>
  <path class="fil25" d="M472.084 414.083c3.522,7.554 5.63,15.551 5.63,22.903 0,10.545 -4.297,17.468 -10.972,19.734l4.495 8.903c8.266,-2.842 13.571,-11.46 13.571,-24.541 0,-9.129 -2.588,-19.067 -6.957,-28.45l-5.767 1.451z"/>
  <path class="fil25" d="M458.614 428.709c-1.95,-1.661 -3.709,-3.774 -5.101,-6.106 -0.844,-1.412 -0.814,-2.944 0.007,-3.421 1.061,-0.618 1.995,-1.601 2.604,-2.906 0.894,0.249 2.002,-0.081 2.002,-1.306 0,-1.252 -0.553,-2.614 -1.291,-3.302 -0.218,-5.351 -2.046,-10.85 -8.202,-14.404 -6.156,-3.555 -7.984,-0.167 -8.202,4.932 -0.739,-0.163 -1.293,0.56 -1.293,1.811 0,1.225 1.11,2.834 2.004,3.62 0.61,2.008 1.543,4.07 2.603,5.911 0.821,1.425 0.85,2.99 0.007,3.429 -1.391,0.723 -3.15,0.806 -5.099,0.218 -2.585,-0.782 -4.506,0.776 -4.506,3.96l0 5.519c0,1.069 0.757,2.372 1.688,2.91l25.596 14.777c0.931,0.539 1.687,0.108 1.687,-0.961l0 -5.518c0,-3.184 -1.921,-6.961 -4.504,-9.163z"/>
  <polygon class="fil16" points="275.988,355.853 275.988,406.122 284.419,401.489 284.419,350.94 "/>
  <polygon class="fil10" points="276.028,355.853 276.028,406.122 90.006,298.725 90.006,248.176 "/>
  <polygon class="fil25" points="90.006,248.176 276.028,355.853 284.419,350.94 98.328,243.361 "/>
  <path class="fil20" d="M276.028 355.853l0 0 -75.881 -43.923c-0.06,-0.316 -0.123,-0.631 -0.186,-0.948l76.242 43.55 8.216 -3.592 -8.391 4.913zm-104.17 -60.3l-78.993 -45.722c0.004,-0.005 0.009,-0.01 0.013,-0.016l78.597 44.897c0.129,0.28 0.256,0.56 0.383,0.841z"/>
  <polygon class="fil3" points="266.57,390.899 99.185,293.206 99.185,263.589 266.57,361.279 "/>
  <polygon class="fil15" points="106.198,271.96 109.585,273.914 111.15,290.083 111.213,290.12 112.874,275.814 116.705,278.026 118.366,294.249 118.431,294.286 119.997,279.926 123.03,281.676 120.762,301.569 116.387,299.043 114.79,285.276 114.726,285.239 113.129,297.163 108.467,294.471 "/>
  <polygon class="fil15" points="126.237,283.608 129.623,285.563 131.187,301.731 131.252,301.768 132.913,287.462 136.744,289.674 138.405,305.899 138.47,305.935 140.033,291.574 143.067,293.326 140.801,313.217 136.425,310.692 134.828,296.923 134.765,296.886 133.168,308.811 128.505,306.119 "/>
  <polygon class="fil15" points="146.436,295.096 149.822,297.05 151.386,313.219 151.451,313.256 153.111,298.95 156.943,301.162 158.603,317.386 158.669,317.423 160.233,303.062 163.266,304.814 161,324.705 156.624,322.179 155.027,308.411 154.963,308.374 153.367,320.299 148.704,317.607 "/>
  <polygon class="fil21" points="174.462,97.145 174.462,132.2 179.749,129.288 179.749,93.961 "/>
  <polygon class="fil22" points="174.5,97.145 174.5,132.2 143.296,114.171 143.296,78.844 "/>
  <polygon class="fil26" points="143.296,78.844 174.5,97.145 179.749,93.961 148.477,75.756 "/>
  <polygon class="fil3" points="143.296,78.844 174.5,97.145 179.749,93.961 174.236,95.457 "/>
  <polygon class="fil5" points="201.901,85.453 201.901,142.216 210.463,137.501 210.463,80.297 "/>
  <polygon class="fil27" points="151.433,55.818 201.965,85.453 210.463,80.297 159.822,50.819 "/>
  <polygon class="fil28" points="201.965,85.453 151.433,55.818 202.193,84.234 210.463,80.297 "/>
  <polygon class="fil4" points="151.433,55.818 151.433,79.36 178.175,95.044 178.175,128.473 201.965,142.216 201.965,85.453 "/>
  <polygon class="fil16" points="309.911,222.522 309.911,261.711 315.822,258.456 315.822,218.962 "/>
  <polygon class="fil10" points="309.953,222.522 309.953,261.711 275.067,241.555 275.067,202.061 "/>
  <polygon class="fil25" points="275.067,202.061 309.953,222.522 315.822,218.962 280.858,198.61 "/>
  <polygon class="fil20" points="309.953,222.522 309.953,222.522 275.067,202.061 309.657,220.634 315.822,218.962 "/>
  <polygon class="fil16" points="355.693,248.934 355.693,288.125 361.604,284.869 361.604,245.374 "/>
  <polygon class="fil10" points="355.735,248.934 355.735,288.125 320.849,267.97 320.849,228.475 "/>
  <polygon class="fil25" points="320.849,228.475 355.735,248.934 361.604,245.374 326.641,225.022 "/>
  <polygon class="fil20" points="355.735,248.934 355.735,248.934 320.849,228.475 355.439,247.047 361.604,245.374 "/>
  <polygon class="fil16" points="401.181,275.054 401.181,314.243 407.092,310.987 407.092,271.493 "/>
  <polygon class="fil10" points="401.225,275.054 401.225,314.243 366.338,294.088 366.338,254.594 "/>
  <polygon class="fil25" points="366.338,254.594 401.225,275.054 407.092,271.493 372.129,251.141 "/>
  <polygon class="fil20" points="401.225,275.054 401.225,275.054 366.338,254.594 400.929,273.166 407.092,271.493 "/>
  <polygon class="fil16" points="446.083,300.586 446.083,339.776 451.995,336.52 451.995,297.026 "/>
  <polygon class="fil10" points="446.127,300.586 446.127,339.776 411.239,319.621 411.239,280.126 "/>
  <polygon class="fil25" points="411.239,280.126 446.127,300.586 451.995,297.026 417.031,276.674 "/>
  <polygon class="fil20" points="446.127,300.586 446.127,300.586 411.239,280.126 445.831,298.698 451.995,297.026 "/>
  <path class="fil3" d="M390.736 291.651c-1.233,-1.051 -2.346,-2.389 -3.228,-3.865 -0.533,-0.892 -0.514,-1.861 0.006,-2.164 0.67,-0.391 1.262,-1.012 1.648,-1.838 0.565,0.157 1.266,-0.051 1.266,-0.827 0,-0.791 -0.349,-1.654 -0.817,-2.089 -0.138,-3.386 -1.294,-6.866 -5.189,-9.116 -3.895,-2.249 -5.053,-0.104 -5.192,3.122 -0.466,-0.104 -0.817,0.354 -0.817,1.146 0,0.775 0.701,1.795 1.268,2.291 0.386,1.27 0.976,2.574 1.647,3.74 0.519,0.902 0.538,1.893 0.005,2.17 -0.882,0.458 -1.995,0.51 -3.228,0.137 -1.636,-0.495 -2.85,0.493 -2.85,2.507l0 3.492c0,0.677 0.479,1.501 1.068,1.842l16.197 9.35c0.59,0.342 1.067,0.069 1.067,-0.609l0 -3.492c0,-2.013 -1.215,-4.404 -2.851,-5.797z"/>
  <path class="fil3" d="M435.447 300.166l0 27.034 5.655 3.264 0 -27.034 -5.655 -3.264zm-8.951 21.864l5.654 3.265 0 -18.586 -5.654 -3.265 0 18.586zm-8.953 -5.168l5.654 3.264 0 -10.139 -5.654 -3.262 0 10.137z"/>
  <path class="fil3" d="M338.639 263c-1.942,-1.119 -3.516,-3.834 -3.516,-6.064 0,-2.227 1.574,-3.125 3.516,-2.004 1.941,1.122 3.515,3.837 3.515,6.065 0,2.227 -1.574,3.125 -3.515,2.003zm8.754 1.02c0,-0.523 -0.046,-1.06 -0.113,-1.601l2.671 -0.338c-0.271,-1.345 -0.683,-2.705 -1.212,-4.044l-3.043 -0.921c-0.531,-1.138 -1.169,-2.238 -1.894,-3.267l0.729 -3.072c-0.902,-1.126 -1.879,-2.163 -2.915,-3.071l-1.639 2.118c-0.436,-0.33 -0.882,-0.639 -1.338,-0.904 -0.457,-0.262 -0.902,-0.466 -1.34,-0.642l-1.638 -4.011c-1.035,-0.285 -2.014,-0.379 -2.916,-0.294l0.73 3.914c-0.724,0.19 -1.364,0.555 -1.893,1.079l-3.045 -2.593c-0.528,0.731 -0.938,1.614 -1.211,2.646l2.671 3.422c-0.067,0.463 -0.113,0.947 -0.113,1.471 0,0.523 0.046,1.061 0.113,1.603l-2.671 0.338c0.273,1.344 0.683,2.703 1.211,4.043l3.043 0.921c0.531,1.137 1.171,2.24 1.895,3.268l-0.73 3.071c0.902,1.125 1.881,2.163 2.916,3.073l1.638 -2.12c0.438,0.331 0.883,0.639 1.34,0.903 0.456,0.264 0.902,0.469 1.338,0.643l1.639 4.011c1.036,0.287 2.013,0.379 2.915,0.294l-0.729 -3.913c0.725,-0.191 1.363,-0.556 1.894,-1.081l3.043 2.594c0.529,-0.731 0.941,-1.614 1.212,-2.645l-2.671 -3.423c0.067,-0.463 0.113,-0.947 0.113,-1.472z"/>
  <path class="fil3" d="M281.533 217.648l11.228 17.547 11.23 -4.58 0.01 0.014c-0.371,-0.541 -0.829,-1.007 -1.333,-1.298l-19.812 -11.439c-0.503,-0.29 -0.962,-0.352 -1.332,-0.241l0.009 -0.003z"/>
  <path class="fil3" d="M303.991 247.836l-8.04 -12.564 0.6 -0.343 7.475 12.893 -0.035 0.014zm0.035 -17.168l-11.265 6.421 -3.188 -5.501 -8.04 3.281 -0.033 -0.053 7.474 -4.262 -7.474 -12.892c-0.512,0.167 -0.844,0.683 -0.844,1.486l0 13.42c0,1.394 0.984,3.095 2.2,3.796l19.812 11.438c1.215,0.703 2.201,0.141 2.201,-1.255l0 -13.419c0,-0.804 -0.333,-1.703 -0.843,-2.46z"/>
  <polygon class="fil12" points="134.219,337.106 134.219,387.376 142.155,382.861 142.155,332.312 "/>
  <polygon class="fil13" points="134.258,337.106 134.258,387.376 -0.74,309.458 -0.74,258.909 "/>
  <polygon class="fil0" points="-0.74,258.909 134.258,337.106 142.155,332.312 7.087,254.214 "/>
  <path class="fil14" d="M134.258 337.106l0 0 -41.22 -23.877c-0.185,-0.407 -0.368,-0.815 -0.548,-1.224l41.447 23.607 8.218 -3.3 -7.897 4.794zm-49.618 -28.741l-85.38 -49.456 84.952 48.383c0.141,0.357 0.284,0.716 0.428,1.073z"/>
  <path class="fil3" d="M21.947 300.18l0 -13.57 -9.427 -5.443c-1.514,-0.875 -2.741,-0.174 -2.741,1.564l0 16.716c0,1.738 1.227,3.856 2.741,4.729l1.543 0.892 0 8.85 7.712 -4.397 15.426 8.905c1.514,0.875 2.741,0.174 2.741,-1.564l0 -0.787 -13.195 -7.618c-2.647,-1.528 -4.8,-5.242 -4.8,-8.277zm25.449 8.003c-0.805,0.457 -2.106,-0.295 -2.909,-1.68 -0.803,-1.385 -0.803,-2.88 0,-3.337 0.803,-0.458 2.104,0.294 2.909,1.679 0.803,1.384 0.803,2.88 0,3.338zm-6.684 -3.86c-0.803,0.457 -2.106,-0.294 -2.909,-1.678 -0.803,-1.386 -0.803,-2.881 0,-3.339 0.803,-0.458 2.106,0.294 2.909,1.68 0.803,1.386 0.803,2.879 0,3.337zm-6.684 -3.858c-0.803,0.458 -2.106,-0.295 -2.909,-1.68 -0.803,-1.386 -0.803,-2.879 0,-3.337 0.803,-0.458 2.106,0.294 2.909,1.678 0.803,1.386 0.803,2.881 0,3.339zm17.397 -3.13l-24.678 -14.248c-1.515,-0.876 -2.744,-0.175 -2.744,1.563l0 16.716c0,1.738 1.229,3.856 2.744,4.73l15.423 8.906 7.713 13.301 0 -8.849 1.542 0.891c1.515,0.875 2.743,0.174 2.743,-1.564l0 -16.716c0,-1.738 -1.228,-3.856 -2.743,-4.73z"/>
  <polygon class="fil3" points="59.788,305.744 59.788,309.917 124.281,347.153 124.281,342.981 "/>
  <polygon class="fil3" points="103.883,348.571 59.788,323.088 59.788,327.261 103.883,352.745 "/>
  <polygon class="fil3" points="59.788,318.589 124.281,355.826 124.281,351.653 59.788,314.416 "/>
  <path class="fil29" d="M214.063 451.956c-1.85,0 -3.618,-0.373 -4.939,-1.135l-45.143 -25.353c-3.678,0.609 -7.614,0.954 -11.729,0.954 -19.743,0 -35.748,-7.601 -35.748,-16.98 0,-9.376 16.005,-16.979 35.748,-16.979 19.745,0 35.749,7.603 35.749,16.979 0,3.399 -2.125,6.558 -5.746,9.214l41.925 23.535c4.474,2.642 0.044,6.265 -3.684,8.158 -1.84,1.063 -4.196,1.607 -6.433,1.607z"/>
  <path class="fil8" d="M224.035 437.562c2.515,4.664 0.771,10.484 -3.895,12.998 -4.664,2.514 -10.484,0.769 -12.998,-3.894 -2.514,-4.667 -0.77,-10.486 3.895,-12.999 4.666,-2.515 10.486,-0.77 12.998,3.895z"/>
  <path class="fil9" d="M193.673 377.226l-20.773 11.194 30.987 57.165 0.004 -0.001 0.04 0.085c1.8,3.34 7.91,3.542 13.647,0.452 5.735,-3.092 8.928,-8.306 7.127,-11.646l-0.048 -0.081 0.003 -0.001 -30.987 -57.167z"/>
  <path class="fil13" d="M193.695 377.268c1.8,3.341 -1.391,8.554 -7.127,11.645 -5.737,3.09 -11.846,2.889 -13.647,-0.453 -1.8,-3.34 1.391,-8.554 7.128,-11.644 5.737,-3.091 11.845,-2.89 13.646,0.452z"/>
  <path class="fil8" d="M180.07 362.06l-12.356 6.658 8.785 16.305 0.003 -0.002 0.023 0.051c1.071,1.988 4.705,2.108 8.118,0.269 3.413,-1.838 5.311,-4.941 4.24,-6.927l-0.03 -0.049 0.002 0 -8.785 -16.305z"/>
  <path class="fil0" d="M145.186 230.993c-15.383,-8.881 -29.335,-9.899 -39.542,-4.372 -0.287,0.155 -14.936,8.329 -15.399,9.037 10.389,-7.836 25.767,-7.716 42.93,2.192 31.285,18.061 56.645,61.806 56.645,97.705 0,18.318 -6.605,31.049 -17.228,36.73 0.762,-0.21 1.662,-0.597 2.764,-1.215 0.303,-0.169 10.292,-6.221 10.588,-6.403 9.836,-6.011 15.888,-18.432 15.888,-35.969 0,-35.898 -25.361,-79.644 -56.646,-97.705z"/>
  <path class="fil2" d="M132.324 359.279c-26.548,-15.326 -48.07,-52.449 -48.07,-82.912 0,-30.464 21.522,-42.734 48.07,-27.406 26.549,15.327 48.07,52.449 48.07,82.912 0,30.463 -21.521,42.735 -48.07,27.406zm0.851 -121.429c-31.285,-18.063 -56.647,-3.603 -56.647,32.296 0,35.899 25.362,79.644 56.647,97.706 31.285,18.062 56.645,3.603 56.645,-32.297 0,-35.899 -25.36,-79.644 -56.645,-97.705z"/>
  <path class="fil0" d="M142.275 353.72c-26.548,-15.328 -48.07,-52.449 -48.07,-82.913 0,-12.427 3.583,-21.823 9.627,-27.556 -11.872,3.189 -19.578,14.893 -19.578,33.116 0,30.463 21.522,67.586 48.07,82.912 15.72,9.076 29.672,8.473 38.443,0.152 -7.973,2.142 -17.824,0.447 -28.492,-5.711z"/>
  <path class="fil3" d="M189.804 337.154c0,-0.002 0,-0.004 0,-0.007 0,0.003 0,0.005 0,0.007zm0.004 -0.213l0 -0.002 0 0.002zm0.002 -0.101c0,-0.005 0,-0.005 0,-0.008 0,0.003 0,0.005 0,0.008zm0.003 -0.211c0,-0.003 0,-0.009 0,-0.012 0,0.003 0,0.009 0,0.012zm0.003 -0.208c0,-0.007 0,-0.017 0,-0.022 0,0.007 0,0.014 0,0.022zm0 -0.112c0,-0.002 0,-0.004 0,-0.006 0,0 0,0.004 0,0.006zm0.002 -0.103c0,-0.005 0,-0.015 0,-0.023 0,0.008 0,0.017 0,0.023zm0 -0.105c0,-0.004 0,-0.011 0,-0.014 0,0.003 0,0.01 0,0.014zm0.002 -0.109c0,-0.007 0,-0.018 0,-0.025 0,0.009 0,0.016 0,0.025zm0 -0.1c0,-0.008 0,-0.016 0,-0.022 0,0.006 0,0.014 0,0.022zm0 -0.119c0,-0.003 0,-0.01 0,-0.014 0,0.004 0,0.011 0,0.014zm0 -0.096c0,-0.008 0,-0.018 0,-0.025 0,0.007 0,0.016 0,0.025z"/>
  <path class="fil3" d="M173.287 371.906c9.912,-5.682 16.151,-17.684 16.517,-34.752 0,-0.002 0,-0.004 0,-0.007 0.002,-0.069 0.002,-0.137 0.004,-0.206l0 -0.002c0,-0.032 0.002,-0.067 0.002,-0.099 0,-0.003 0,-0.005 0,-0.008 0.001,-0.067 0.001,-0.136 0.003,-0.203 0,-0.003 0,-0.009 0,-0.012 0.002,-0.065 0.002,-0.131 0.003,-0.196 0,-0.008 0,-0.015 0,-0.022 0,-0.032 0,-0.06 0,-0.09 0,-0.002 0,-0.006 0,-0.006 0,-0.033 0.002,-0.063 0.002,-0.097 0,-0.006 0,-0.015 0,-0.023 0,-0.028 0,-0.054 0,-0.082 0,-0.004 0,-0.011 0,-0.014 0,-0.034 0,-0.064 0.002,-0.095 0,-0.009 0,-0.016 0,-0.025 0,-0.025 0,-0.049 0,-0.075 0,-0.008 0,-0.016 0,-0.022 0,-0.033 0,-0.063 0,-0.097 0,-0.003 0,-0.01 0,-0.014 0,-0.028 0,-0.054 0,-0.082 0,-0.009 0,-0.018 0,-0.025 0,-0.034 0,-0.064 0,-0.097l0 0 0 0c0,-30.079 -17.804,-65.666 -41.981,-87.039 -4.677,-4.134 -9.593,-7.737 -14.664,-10.666l0 0c-9.143,-5.279 -17.779,-7.78 -25.427,-7.78 -3.089,0 -6.017,0.409 -8.751,1.207 -0.636,0.136 -1.258,0.287 -1.86,0.456 3.962,-1.981 8.457,-3.009 13.361,-3.009 7.637,0 16.262,2.493 25.396,7.767 31.283,18.063 56.645,61.806 56.645,97.704 0,19.457 -7.449,32.613 -19.252,37.711z"/>
  <path class="fil3" d="M169.755 373.155c11.007,-5.505 20.065,-18.909 20.065,-37.6l0 0 0 0c0,0.033 0,0.063 0,0.097 0,0.007 0,0.017 0,0.025 0,0.028 0,0.054 0,0.082 0,0.004 0,0.011 0,0.014 0,0.034 0,0.064 0,0.097 0,0.006 0,0.014 0,0.022 0,0.026 0,0.05 0,0.075 0,0.007 0,0.018 0,0.025 -0.002,0.031 -0.002,0.061 -0.002,0.095 0,0.003 0,0.01 0,0.014 0,0.028 0,0.054 0,0.082 0,0.008 0,0.018 0,0.023 0,0.034 -0.002,0.064 -0.002,0.097 0,0.002 0,0.004 0,0.006 0,0.03 0,0.058 0,0.09 0,0.005 0,0.015 0,0.022 -0.001,0.065 -0.001,0.131 -0.003,0.196 0,0.003 0,0.009 0,0.012 -0.002,0.067 -0.002,0.136 -0.003,0.203 0,0.003 0,0.003 0,0.008 0,0.032 -0.002,0.067 -0.002,0.099l0 0.002c-0.002,0.069 -0.002,0.137 -0.004,0.206 0,0.003 0,0.005 0,0.007 -0.366,17.068 -6.605,29.07 -16.517,34.752 -1.137,0.492 -2.316,0.909 -3.532,1.249zm-21.916 -124.639c-4.677,-4.134 -9.593,-7.737 -14.664,-10.666 -8.841,-5.105 -18.262,-7.346 -26.357,-7.346 -2.791,0 -5.423,0.266 -7.821,0.773 2.734,-0.798 5.662,-1.207 8.751,-1.207 7.648,0 16.284,2.501 25.427,7.78l0 0c5.071,2.929 9.987,6.532 14.664,10.666z"/>
 </g>
</svg>
