<?xml version="1.0" encoding="UTF-8"?>
<!DOCTYPE svg PUBLIC "-//W3C//DTD SVG 1.1//EN" "http://www.w3.org/Graphics/SVG/1.1/DTD/svg11.dtd">
<!-- Creator: CorelDRAW 2020 (64 Bit) -->
<svg xmlns="http://www.w3.org/2000/svg" xml:space="preserve" width="500px" height="524px" version="1.1" style="shape-rendering:geometricPrecision; text-rendering:geometricPrecision; image-rendering:optimizeQuality; fill-rule:evenodd; clip-rule:evenodd"
viewBox="0 0 500 523.53"
 xmlns:xlink="http://www.w3.org/1999/xlink"
 xmlns:xodm="http://www.corel.com/coreldraw/odm/2003">
 <defs>
  <style type="text/css">
   <![CDATA[
    .fil3 {fill:#FEFEFE;fill-rule:nonzero}
    .fil12 {fill:#9EA0B4;fill-rule:nonzero}
    .fil11 {fill:#664730;fill-rule:nonzero}
    .fil34 {fill:url(#id38)}
    .fil20 {fill:url(#id39)}
    .fil39 {fill:url(#id40)}
    .fil10 {fill:url(#id41)}
    .fil37 {fill:url(#id42)}
    .fil6 {fill:url(#id43)}
    .fil22 {fill:url(#id44)}
    .fil23 {fill:url(#id45)}
    .fil21 {fill:url(#id46)}
    .fil50 {fill:url(#id47)}
    .fil38 {fill:url(#id48)}
    .fil36 {fill:url(#id49)}
    .fil1 {fill:url(#id50)}
    .fil7 {fill:url(#id51)}
    .fil8 {fill:url(#id52)}
    .fil2 {fill:url(#id53)}
    .fil49 {fill:url(#id54)}
    .fil25 {fill:url(#id55)}
    .fil40 {fill:url(#id56)}
    .fil9 {fill:url(#id57)}
    .fil0 {fill:url(#id58)}
    .fil35 {fill:url(#id59)}
    .fil5 {fill:url(#id60)}
    .fil24 {fill:url(#id61)}
    .fil26 {fill:url(#id62)}
    .fil41 {fill:url(#id63)}
    .fil4 {fill:url(#id64)}
    .fil14 {fill:url(#id65)}
    .fil16 {fill:url(#id66)}
    .fil43 {fill:url(#id67)}
    .fil13 {fill:url(#id68)}
    .fil18 {fill:url(#id69)}
    .fil28 {fill:url(#id70)}
    .fil46 {fill:url(#id71)}
    .fil29 {fill:url(#id72)}
    .fil45 {fill:url(#id73)}
    .fil32 {fill:url(#id74)}
    .fil42 {fill:url(#id75)}
    .fil19 {fill:url(#id76)}
    .fil47 {fill:url(#id77)}
    .fil30 {fill:url(#id78)}
    .fil15 {fill:url(#id79)}
    .fil44 {fill:url(#id80)}
    .fil33 {fill:url(#id81)}
    .fil17 {fill:url(#id82)}
    .fil27 {fill:url(#id83)}
    .fil48 {fill:url(#id84)}
    .fil31 {fill:url(#id85)}
   ]]>
  </style>
     <clipPath id="id0">
      <path d="M142.297 306.711l-37.313 -120.073 -0.226 -0.703 395.171 -185.687 -320.207 229.343 -37.425 77.12 0 0z"/>
     </clipPath>
     <clipPath id="id1">
      <path d="M142.296 306.711l37.416 -77.12 320.288 -229.343 -357.704 306.463 0 0z"/>
     </clipPath>
      <clipPath id="id2">
       <path d="M379.262 404.283c-0.03,0 -0.053,0 -0.084,0 0.267,-0.14 0.489,-0.37 0.641,-0.702l3.03 -6.882c0.167,0.128 0.335,0.243 0.511,0.358l-2.816 6.384c-0.008,0 -0.008,0.012 -0.015,0.025 -0.252,0.549 -0.718,0.817 -1.267,0.817zm-1.862 -24.156l-16.117 -16.763c-0.259,-0.268 -0.511,-0.486 -0.771,-0.664l-0.206 -0.575 -0.053 -0.013 0.16 0.524c-0.435,-0.268 -0.87,-0.421 -1.259,-0.434 0.198,-0.102 0.412,-0.154 0.656,-0.154 0.657,0 1.45,0.396 2.198,1.163l15.827 16.47c-0.153,0.127 -0.298,0.28 -0.435,0.446l0 0z"/>
      </clipPath>
      <clipPath id="id3">
       <path d="M360.512 362.702c-0.033,-0.021 -0.066,-0.043 -0.098,-0.063l-0.161 -0.526 0.051 0.012 0.208 0.577 0 0z"/>
      </clipPath>
      <clipPath id="id4">
       <path d="M378.162 297.946c-4.19,-2.018 -8.614,-2.519 -11.914,-2.53 3.3,0.011 7.724,0.512 11.914,2.53l0 0zm-17.13 -2.122c-0.091,-0.018 -2.12,-0.408 -5.08,-0.408 2.96,0 4.989,0.39 5.08,0.408zm-5.477 -0.407c0.135,-0.001 0.262,-0.001 0.397,-0.001l0 0c-0.135,0 -0.262,0 -0.397,0.001zm10.573 -0.001c0,0 0,0 0,0l0 0c0,0 0,0 0,0l0 0z"/>
      </clipPath>
      <clipPath id="id5">
       <path d="M380.961 311.095c-4.405,-9.237 -11.682,-15.269 -19.917,-15.269l0 0 0 0 0 0 0 0c0,0 2.055,-0.41 5.081,-0.41 0,0 0,0 0,0 0.038,0 0.089,0 0.128,0 3.294,0.01 7.724,0.509 11.912,2.528 2.502,2.358 3.971,5.262 3.971,8.405 0,1.66 -0.409,3.258 -1.175,4.746zm-39.618 -0.473c-0.612,-1.348 -0.944,-2.785 -0.944,-4.273 0,-3.331 1.647,-6.39 4.43,-8.821 3.792,-1.618 7.699,-2.076 10.725,-2.112 0.14,0 0.268,0 0.395,0 0,0 0,0 0,0 2.963,0 4.993,0.39 5.082,0.41 0,0 0.013,0 0.013,0l0 0c-8.095,0 -15.27,5.829 -19.701,14.796l0 0z"/>
      </clipPath>
      <clipPath id="id6">
       <path d="M361.267 320.648c-3.133,0 -6.107,-0.474 -8.773,-1.321 1.547,-13.912 4.79,-23.503 8.543,-23.503l0 0 0 0 0 0 0 0 0 0 0 0 0 0 0 0 0 0c3.768,0 7.022,9.647 8.558,23.638 -2.551,0.767 -5.366,1.186 -8.328,1.186l0 0z"/>
      </clipPath>
      <clipPath id="id7">
       <path d="M361.038 295.824l0 0c0,0 -1.671,-1.666 -4.224,-3.453 1.434,-0.213 2.924,-0.326 4.451,-0.326 1.397,0 2.76,0.092 4.076,0.272 -2.596,1.809 -4.303,3.507 -4.303,3.507l0 0 0 0 0 0z"/>
      </clipPath>
      <clipPath id="id8">
       <path d="M352.499 319.327c-5.297,-1.679 -9.39,-4.838 -11.159,-8.708 4.431,-8.966 11.605,-14.796 19.701,-14.796l0 0c-3.759,0 -7.004,9.592 -8.542,23.504zm8.542 -23.504l0 0 0 0 0 0 0 0 0 0z"/>
      </clipPath>
      <clipPath id="id9">
       <path d="M369.6 319.464c-1.541,-13.988 -4.794,-23.641 -8.559,-23.641l0 0c8.231,0 15.511,6.036 19.925,15.27 -1.928,3.754 -6.079,6.792 -11.366,8.371l0 0z"/>
      </clipPath>
      <clipPath id="id10">
       <path d="M344.832 297.531c2.946,-2.575 7.151,-4.442 11.98,-5.159 2.555,1.788 4.226,3.453 4.226,3.453 0,0 0,0 0,0 -0.094,-0.018 -2.124,-0.408 -5.085,-0.408 0,0 0,0 -0.005,0l0 0c-0.13,0 -0.26,0 -0.396,0 -3.023,0.036 -6.926,0.49 -10.72,2.114zm16.206 -1.706l0 0 0 0 0 0 0 0 0 0 0 0 0 0z"/>
      </clipPath>
      <clipPath id="id11">
       <path d="M378.163 297.947c-4.192,-2.02 -8.613,-2.519 -11.915,-2.53 -0.04,0 -0.08,0 -0.12,0l0 0c0,0 0,0 -0.006,0 -3.027,0 -5.084,0.408 -5.084,0.408l0 0c0,0 1.708,-1.699 4.302,-3.508 5.249,0.713 9.79,2.771 12.823,5.63l0 0z"/>
      </clipPath>
      <clipPath id="id12">
       <path d="M389.211 397.871c1.378,-0.785 2.227,-2.482 2.227,-4.895 0,-4.832 -3.415,-10.728 -7.628,-13.153 -1.229,-0.716 -2.394,-1.052 -3.424,-1.052 -0.417,0 -0.812,0.057 -1.178,0.165 -0.084,0.019 -0.167,0.038 -0.251,0.057 0.533,-0.266 1.142,-0.399 1.8,-0.399 1.026,0 2.19,0.329 3.42,1.045 4.212,2.432 7.627,8.321 7.627,13.154 0,2.621 -1.002,4.395 -2.593,5.078l0 0z"/>
      </clipPath>
      <clipPath id="id13">
       <path d="M388.735 398.043c1.482,-0.742 2.41,-2.477 2.41,-4.991 0,-4.838 -3.416,-10.728 -7.63,-13.16 -1.229,-0.709 -2.392,-1.045 -3.421,-1.045 -0.309,0 -0.605,0.032 -0.889,0.089 0.371,-0.108 0.767,-0.165 1.182,-0.165 1.028,0 2.191,0.336 3.425,1.052 4.213,2.425 7.625,8.321 7.625,13.153 0,2.413 -0.85,4.11 -2.227,4.895 -0.152,0.07 -0.309,0.121 -0.475,0.172l0 0z"/>
      </clipPath>
      <clipPath id="id14">
       <path d="M253.818 523.763c-0.032,0 -0.056,0 -0.088,-0.013 0.269,-0.128 0.491,-0.357 0.641,-0.702l3.031 -6.869c0.167,0.115 0.34,0.23 0.507,0.345l-2.81 6.383c-0.008,0.013 -0.016,0.026 -0.016,0.039 -0.26,0.549 -0.72,0.817 -1.265,0.817zm-1.86 -24.169l-16.127 -16.764c-0.254,-0.268 -0.507,-0.485 -0.768,-0.651l-0.206 -0.574 -0.031 -0.013 0.158 0.536c-0.443,-0.281 -0.879,-0.434 -1.275,-0.459 0.191,-0.103 0.412,-0.141 0.649,-0.141 0.665,0 1.457,0.383 2.2,1.162l15.835 16.457c-0.158,0.141 -0.301,0.294 -0.435,0.447l0 0z"/>
      </clipPath>
      <clipPath id="id15">
       <path d="M235.063 482.176c-0.025,-0.018 -0.051,-0.034 -0.076,-0.052l-0.163 -0.533 0.033 0.008 0.206 0.577 0 0z"/>
      </clipPath>
      <clipPath id="id16">
       <path d="M252.71 417.419c-4.184,-2.019 -8.607,-2.518 -11.907,-2.529 3.3,0.011 7.723,0.51 11.907,2.529 0,0.001 0,0 0,0zm-17.123 -2.121c-0.092,-0.018 -2.12,-0.408 -5.081,-0.408 2.961,0 4.989,0.39 5.081,0.408zm-5.476 -0.407c0.127,-0.001 0.261,-0.001 0.388,-0.001l0 0c-0.127,0 -0.261,0 -0.388,0.001zm10.564 -0.001c0.007,0 0.007,0 0.007,0l0 0c0,0 0,0 -0.007,0l0 0z"/>
      </clipPath>
      <clipPath id="id17">
       <path d="M255.517 430.57c-4.415,-9.238 -11.689,-15.275 -19.929,-15.275l0 0 0 0 0 0 0 0c0,0 2.057,-0.405 5.092,-0.405 0,0 0,0 0,0 0.037,0 0.075,0 0.125,0 3.299,0.01 7.726,0.51 11.902,2.529 2.509,2.357 3.988,5.261 3.988,8.404 0,1.661 -0.413,3.258 -1.178,4.747zm-39.62 -0.474c-0.614,-1.348 -0.953,-2.784 -0.953,-4.273 0,-3.33 1.656,-6.39 4.44,-8.82 3.787,-1.624 7.701,-2.077 10.723,-2.113 0.138,0 0.264,0 0.389,0 0.013,0 0.013,0 0.013,0 2.959,0 4.991,0.39 5.079,0.405 0,0 0,0 0,0l0 0c-8.089,0 -15.263,5.834 -19.691,14.801l0 0z"/>
      </clipPath>
      <clipPath id="id18">
       <path d="M235.818 440.12c-3.13,0 -6.1,-0.467 -8.768,-1.314 1.542,-13.919 4.787,-23.51 8.54,-23.51l0 0 0 0 0 0 0 0 0 0 0 0 0 0 0 0 0 0c3.77,0 7.026,9.654 8.562,23.645 -2.553,0.76 -5.375,1.179 -8.334,1.179l0 0z"/>
      </clipPath>
      <clipPath id="id19">
       <path d="M235.591 415.298l0 0c0,0 -1.673,-1.666 -4.225,-3.454 1.436,-0.212 2.927,-0.326 4.454,-0.326 1.393,0 2.757,0.093 4.074,0.272 -2.595,1.809 -4.303,3.508 -4.303,3.508l0 0 0 0 0 0z"/>
      </clipPath>
      <clipPath id="id20">
       <path d="M227.05 438.806c-5.297,-1.686 -9.389,-4.846 -11.153,-8.707 4.431,-8.974 11.599,-14.804 19.696,-14.804l0 0c-3.76,0 -6.999,9.592 -8.543,23.511zm8.543 -23.511l0 0 0 0 0 0 0 0 0 0z"/>
      </clipPath>
      <clipPath id="id21">
       <path d="M244.149 438.936c-1.535,-13.988 -4.788,-23.641 -8.559,-23.641l0 0c8.238,0 15.518,6.036 19.925,15.269 -1.928,3.755 -6.073,6.792 -11.366,8.372l0 0z"/>
      </clipPath>
      <clipPath id="id22">
       <path d="M219.38 417.004c2.951,-2.575 7.154,-4.44 11.987,-5.16 2.551,1.788 4.225,3.454 4.225,3.454 0,0 0,0 -0.006,0 -0.088,-0.018 -2.118,-0.409 -5.08,-0.409 0,0 0,0 -0.006,0l0 0c-0.126,0 -0.257,0 -0.395,0.002 -3.023,0.037 -6.929,0.491 -10.725,2.113zm16.212 -1.706l0 0 0 0 0 0 0 0 0 0 0 0 0 0z"/>
      </clipPath>
      <clipPath id="id23">
       <path d="M252.715 417.419c-4.193,-2.019 -8.614,-2.519 -11.91,-2.53 -0.046,0 -0.085,0 -0.125,0l0 0c0,0 0,0 0,0 -3.033,0 -5.09,0.409 -5.09,0.409l0 0c0,0 1.708,-1.7 4.307,-3.508 5.244,0.712 9.785,2.77 12.818,5.629l0 0z"/>
      </clipPath>
      <clipPath id="id24">
       <path d="M263.767 517.345c1.373,-0.786 2.225,-2.483 2.225,-4.896 0,-4.832 -3.417,-10.721 -7.628,-13.154 -1.231,-0.715 -2.397,-1.051 -3.425,-1.051 -0.415,0 -0.812,0.057 -1.178,0.165 -0.084,0.019 -0.168,0.038 -0.252,0.057 0.534,-0.266 1.139,-0.399 1.801,-0.399 1.028,0 2.189,0.336 3.421,1.045 4.21,2.432 7.627,8.322 7.627,13.16 0,2.616 -1.002,4.389 -2.591,5.073l0 0z"/>
      </clipPath>
      <clipPath id="id25">
       <path d="M263.29 517.515c1.483,-0.74 2.41,-2.475 2.41,-4.99 0,-4.838 -3.416,-10.728 -7.631,-13.16 -1.232,-0.709 -2.393,-1.045 -3.421,-1.045 -0.309,0 -0.605,0.032 -0.887,0.089 0.366,-0.108 0.763,-0.165 1.178,-0.165 1.028,0 2.194,0.336 3.425,1.051 4.211,2.433 7.628,8.322 7.628,13.154 0,2.413 -0.852,4.11 -2.225,4.896 -0.155,0.069 -0.314,0.126 -0.477,0.17l0 0z"/>
      </clipPath>
      <clipPath id="id26">
       <path d="M125.382 463.025c-0.031,0 -0.061,0 -0.084,0 0.267,-0.14 0.489,-0.37 0.641,-0.702l3.03 -6.882c0.168,0.128 0.336,0.243 0.511,0.345l-2.816 6.384c-0.007,0.012 -0.007,0.025 -0.015,0.025 -0.252,0.562 -0.718,0.83 -1.267,0.83zm-1.862 -24.156l-16.125 -16.777c-0.244,-0.255 -0.503,-0.472 -0.763,-0.651l-0.206 -0.574 -0.053 -0.013 0.16 0.523c-0.435,-0.268 -0.87,-0.421 -1.259,-0.434 0.198,-0.102 0.412,-0.153 0.648,-0.153 0.665,0 1.458,0.396 2.206,1.162l15.827 16.47c-0.153,0.128 -0.297,0.281 -0.435,0.447l0 0z"/>
      </clipPath>
      <clipPath id="id27">
       <path d="M106.631 421.445c-0.034,-0.024 -0.066,-0.045 -0.099,-0.066l-0.161 -0.526 0.053 0.012 0.207 0.58 0 0z"/>
      </clipPath>
      <clipPath id="id28">
       <path d="M124.278 356.687c-4.189,-2.018 -8.613,-2.519 -11.913,-2.531 3.3,0.012 7.724,0.511 11.913,2.531 0,0 0,0 0,0zm-17.123 -2.121c-0.059,-0.015 -2.102,-0.41 -5.079,-0.41 2.977,0 5.02,0.395 5.079,0.41zm-5.483 -0.409c0.133,-0.001 0.265,-0.001 0.397,-0.001l0 0c-0.132,0 -0.264,0 -0.397,0.001zm10.568 -0.001c0.007,0 0.007,0 0.007,0l0 0c0,0 0,0 -0.007,0l0 0z"/>
      </clipPath>
      <clipPath id="id29">
       <path d="M127.085 369.832c-4.411,-9.23 -11.695,-15.268 -19.928,-15.268l0 0 0 0 0 0 0 0c0,0 2.052,-0.408 5.091,-0.408 0,0 0,0 0,0 0.038,0 0.077,0 0.116,0 3.308,0.011 7.732,0.516 11.913,2.531 2.501,2.356 3.988,5.261 3.988,8.4 0,1.666 -0.423,3.263 -1.18,4.745zm-39.626 -0.467c-0.615,-1.352 -0.949,-2.785 -0.949,-4.278 0,-3.329 1.655,-6.386 4.437,-8.818 3.796,-1.624 7.707,-2.075 10.721,-2.113 0.141,0 0.269,0 0.398,0 0,0 0,0 0.013,0 2.975,0 5.014,0.397 5.078,0.408l0 0 0 0c-8.092,0 -15.261,5.831 -19.698,14.801l0 0z"/>
      </clipPath>
      <clipPath id="id30">
       <path d="M107.387 379.387c-3.132,0 -6.103,-0.466 -8.774,-1.321 1.546,-13.912 4.788,-23.503 8.543,-23.503l0 0 0 0 0 0 0 0 0 0 0 0 0 0 0 0 0 0c3.767,0 7.02,9.654 8.56,23.645 -2.549,0.76 -5.37,1.179 -8.329,1.179l0 0z"/>
      </clipPath>
      <clipPath id="id31">
       <path d="M107.157 354.566l0 0c0,0 -1.672,-1.667 -4.224,-3.453 1.435,-0.214 2.923,-0.326 4.454,-0.326 1.393,0 2.756,0.094 4.074,0.273 -2.599,1.806 -4.304,3.506 -4.304,3.506l0 0 0 0 0 0z"/>
      </clipPath>
      <clipPath id="id32">
       <path d="M98.612 378.07c-5.293,-1.681 -9.386,-4.843 -11.15,-8.709 4.427,-8.968 11.602,-14.796 19.696,-14.796l0 0c-3.752,0 -6.999,9.59 -8.546,23.505zm8.546 -23.505l0 0 0 0 0 0 0 0 0 0z"/>
      </clipPath>
      <clipPath id="id33">
       <path d="M115.714 378.21c-1.535,-13.996 -4.788,-23.645 -8.56,-23.645l0 0c8.238,0 15.518,6.035 19.926,15.27 -1.928,3.754 -6.073,6.791 -11.366,8.375l0 0z"/>
      </clipPath>
      <clipPath id="id34">
       <path d="M90.948 356.269c2.946,-2.574 7.154,-4.438 11.987,-5.156 2.552,1.786 4.22,3.453 4.22,3.453l0 0c-0.061,-0.013 -2.096,-0.409 -5.081,-0.409 -0.005,0 -0.005,0 -0.005,0l0 0c-0.132,0 -0.264,0 -0.395,0 -3.023,0.037 -6.93,0.491 -10.726,2.112zm16.207 -1.703l0 0 0 0 0 0 0 0 0 0 0 0 0 0z"/>
      </clipPath>
      <clipPath id="id35">
       <path d="M124.278 356.686c-4.186,-2.018 -8.607,-2.52 -11.909,-2.529 -0.04,0 -0.08,0 -0.12,0l0 0c0,0 -0.006,0 -0.006,0 -3.033,0 -5.084,0.409 -5.084,0.409l0 0c0,0 1.703,-1.702 4.302,-3.508 5.243,0.713 9.784,2.772 12.817,5.628l0 0z"/>
      </clipPath>
      <clipPath id="id36">
       <path d="M135.328 456.616c1.376,-0.791 2.228,-2.486 2.228,-4.896 0,-4.839 -3.416,-10.726 -7.627,-13.162 -1.231,-0.709 -2.396,-1.048 -3.425,-1.048 -0.415,0 -0.808,0.057 -1.179,0.163 -0.083,0.019 -0.167,0.038 -0.247,0.063 0.53,-0.263 1.135,-0.401 1.797,-0.401 1.028,0 2.189,0.332 3.42,1.041 4.211,2.436 7.628,8.323 7.628,13.162 0,2.617 -1.002,4.387 -2.595,5.078l0 0z"/>
      </clipPath>
      <clipPath id="id37">
       <path d="M134.855 456.783c1.483,-0.74 2.41,-2.473 2.41,-4.99 0,-4.833 -3.416,-10.726 -7.627,-13.162 -1.232,-0.709 -2.397,-1.048 -3.425,-1.048 -0.309,0 -0.605,0.032 -0.888,0.094 0.371,-0.106 0.764,-0.163 1.179,-0.163 1.029,0 2.194,0.333 3.425,1.048 4.211,2.429 7.627,8.323 7.627,13.156 0,2.416 -0.852,4.111 -2.228,4.896 -0.15,0.069 -0.31,0.125 -0.473,0.169l0 0z"/>
      </clipPath>
  <linearGradient id="id38" gradientUnits="userSpaceOnUse" x1="267.584" y1="515.04" x2="254.4" y2="497.374">
   <stop offset="0" style="stop-opacity:1; stop-color:#6956A2"/>
   <stop offset="0.0392157" style="stop-opacity:1; stop-color:#6956A2"/>
   <stop offset="0.631373" style="stop-opacity:1; stop-color:#9075B4"/>
   <stop offset="0.870588" style="stop-opacity:1; stop-color:#6956A2"/>
   <stop offset="1" style="stop-opacity:1; stop-color:#6956A2"/>
  </linearGradient>
  <linearGradient id="id39" gradientUnits="userSpaceOnUse" x1="394.779" y1="393.371" x2="378.099" y2="380.096">
   <stop offset="0" style="stop-opacity:1; stop-color:#29B2D4"/>
   <stop offset="0.0392157" style="stop-opacity:1; stop-color:#29B2D4"/>
   <stop offset="0.631373" style="stop-opacity:1; stop-color:#75CEE1"/>
   <stop offset="0.870588" style="stop-opacity:1; stop-color:#29B2D4"/>
   <stop offset="1" style="stop-opacity:1; stop-color:#29B2D4"/>
  </linearGradient>
  <linearGradient id="id40" gradientUnits="userSpaceOnUse" x1="69.788" y1="452.188" x2="163.544" y2="431.17">
   <stop offset="0" style="stop-opacity:1; stop-color:#D39079"/>
   <stop offset="0.0392157" style="stop-opacity:1; stop-color:#D39079"/>
   <stop offset="1" style="stop-opacity:1; stop-color:#D0C48F"/>
  </linearGradient>
  <linearGradient id="id41" gradientUnits="userSpaceOnUse" x1="323.694" y1="393.451" x2="417.395" y2="372.43">
   <stop offset="0" style="stop-opacity:1; stop-color:#9D6E5F"/>
   <stop offset="0.0392157" style="stop-opacity:1; stop-color:#9D6E5F"/>
   <stop offset="1" style="stop-opacity:1; stop-color:#9B9570"/>
  </linearGradient>
  <linearGradient id="id42" gradientUnits="userSpaceOnUse" x1="70.488" y1="452.188" x2="163.135" y2="431.171">
   <stop offset="0" style="stop-opacity:1; stop-color:#F8A990"/>
   <stop offset="0.0392157" style="stop-opacity:1; stop-color:#F8A990"/>
   <stop offset="1" style="stop-opacity:1; stop-color:#FCEAA9"/>
  </linearGradient>
  <linearGradient id="id43" gradientUnits="userSpaceOnUse" x1="323.668" y1="393.449" x2="417.428" y2="372.431">
   <stop offset="0" style="stop-opacity:1; stop-color:#BE826F"/>
   <stop offset="0.0392157" style="stop-opacity:1; stop-color:#BE826F"/>
   <stop offset="1" style="stop-opacity:1; stop-color:#BCB283"/>
  </linearGradient>
  <linearGradient id="id44" gradientUnits="userSpaceOnUse" xlink:href="#id42" x1="236.642" y1="499.562" x2="288.999" y2="494.453">
  </linearGradient>
  <linearGradient id="id45" gradientUnits="userSpaceOnUse" xlink:href="#id42" x1="197.71" y1="507.726" x2="292.52" y2="497.1">
  </linearGradient>
  <linearGradient id="id46" gradientUnits="userSpaceOnUse" x1="362.421" y1="391.346" x2="406.139" y2="385.592">
   <stop offset="0" style="stop-opacity:1; stop-color:#298FBF"/>
   <stop offset="0.0392157" style="stop-opacity:1; stop-color:#298FBF"/>
   <stop offset="1" style="stop-opacity:1; stop-color:#75CEE1"/>
  </linearGradient>
  <linearGradient id="id47" gradientUnits="userSpaceOnUse" x1="108.799" y1="452.051" x2="151.998" y2="442.367">
   <stop offset="0" style="stop-opacity:1; stop-color:#974598"/>
   <stop offset="0.0392157" style="stop-opacity:1; stop-color:#974598"/>
   <stop offset="1" style="stop-opacity:1; stop-color:#E073AC"/>
  </linearGradient>
  <linearGradient id="id48" gradientUnits="userSpaceOnUse" xlink:href="#id43" x1="69.786" y1="452.188" x2="163.546" y2="431.171">
  </linearGradient>
  <linearGradient id="id49" gradientUnits="userSpaceOnUse" xlink:href="#id42" x1="108.708" y1="443.965" x2="160.063" y2="428.587">
  </linearGradient>
  <linearGradient id="id50" gradientUnits="userSpaceOnUse" x1="152.745" y1="176.691" x2="321.503" y2="153.433">
   <stop offset="0" style="stop-opacity:1; stop-color:#D3D1D8"/>
   <stop offset="1" style="stop-opacity:1; stop-color:#FEFEFE"/>
  </linearGradient>
  <linearGradient id="id51" gradientUnits="userSpaceOnUse" xlink:href="#id40" x1="323.666" y1="393.449" x2="417.429" y2="372.431">
  </linearGradient>
  <linearGradient id="id52" gradientUnits="userSpaceOnUse" xlink:href="#id41" x1="323.651" y1="393.423" x2="417.443" y2="372.496">
  </linearGradient>
  <linearGradient id="id53" gradientUnits="userSpaceOnUse" xlink:href="#id50" x1="577.717" y1="280.552" x2="319.892" y2="113.237">
  </linearGradient>
  <linearGradient id="id54" gradientUnits="userSpaceOnUse" x1="139.149" y1="454.307" x2="125.965" y2="436.64">
   <stop offset="0" style="stop-opacity:1; stop-color:#974598"/>
   <stop offset="0.0392157" style="stop-opacity:1; stop-color:#974598"/>
   <stop offset="0.631373" style="stop-opacity:1; stop-color:#E073AC"/>
   <stop offset="0.870588" style="stop-opacity:1; stop-color:#C45CA2"/>
   <stop offset="1" style="stop-opacity:1; stop-color:#C45CA2"/>
  </linearGradient>
  <linearGradient id="id55" gradientUnits="userSpaceOnUse" xlink:href="#id40" x1="197.954" y1="503.79" x2="292.247" y2="501.035">
  </linearGradient>
  <linearGradient id="id56" gradientUnits="userSpaceOnUse" xlink:href="#id40" x1="69.786" y1="452.188" x2="163.545" y2="431.171">
  </linearGradient>
  <linearGradient id="id57" gradientUnits="userSpaceOnUse" xlink:href="#id40" x1="323.668" y1="393.449" x2="417.427" y2="372.431">
  </linearGradient>
  <linearGradient id="id58" gradientUnits="userSpaceOnUse" xlink:href="#id50" x1="-82.054" y1="-113.622" x2="247.751" y2="82.44">
  </linearGradient>
  <linearGradient id="id59" gradientUnits="userSpaceOnUse" x1="237.233" y1="512.785" x2="280.432" y2="503.101">
   <stop offset="0" style="stop-opacity:1; stop-color:#6956A2"/>
   <stop offset="0.0392157" style="stop-opacity:1; stop-color:#6956A2"/>
   <stop offset="1" style="stop-opacity:1; stop-color:#9075B4"/>
  </linearGradient>
  <linearGradient id="id60" gradientUnits="userSpaceOnUse" xlink:href="#id42" x1="324.37" y1="393.449" x2="417.017" y2="372.431">
  </linearGradient>
  <linearGradient id="id61" gradientUnits="userSpaceOnUse" xlink:href="#id43" x1="197.652" y1="506.892" x2="292.549" y2="497.934">
  </linearGradient>
  <linearGradient id="id62" gradientUnits="userSpaceOnUse" xlink:href="#id40" x1="242.077" y1="520.324" x2="248.123" y2="484.501">
  </linearGradient>
  <linearGradient id="id63" gradientUnits="userSpaceOnUse" xlink:href="#id41" x1="69.812" y1="452.187" x2="163.514" y2="431.171">
  </linearGradient>
  <linearGradient id="id64" gradientUnits="userSpaceOnUse" xlink:href="#id42" x1="362.59" y1="385.222" x2="413.945" y2="369.845">
  </linearGradient>
  <radialGradient id="id65" gradientUnits="userSpaceOnUse" gradientTransform="matrix(2.8552 3.98406 3.98401 -2.85523 -1852 -262)" cx="355.339" cy="299.336" r="6.694" fx="355.339" fy="299.336">
   <stop offset="0" style="stop-opacity:1; stop-color:#EEEBF1"/>
   <stop offset="0.580392" style="stop-opacity:1; stop-color:#D3D1D8"/>
   <stop offset="1" style="stop-opacity:1; stop-color:#9EA0B4"/>
  </radialGradient>
  <radialGradient id="id66" gradientUnits="userSpaceOnUse" gradientTransform="matrix(1.91502 2.73572 2.7357 -1.91498 -1151 -103)" cx="358.347" cy="301.015" r="8.936" fx="358.347" fy="301.015">
   <stop offset="0" style="stop-opacity:1; stop-color:#75CEE1"/>
   <stop offset="1" style="stop-opacity:1; stop-color:#298FBF"/>
  </radialGradient>
  <radialGradient id="id67" gradientUnits="userSpaceOnUse" gradientTransform="matrix(3.02116 3.88434 3.88445 -3.02125 -1598 1046)" xlink:href="#id65" cx="101.839" cy="358.476" r="6.694" fx="101.839" fy="358.476">
  </radialGradient>
  <radialGradient id="id68" gradientUnits="userSpaceOnUse" gradientTransform="matrix(0.954818 1.33231 1.33229 -0.954814 -382 112)" xlink:href="#id65" cx="355.061" cy="299.093" r="20.016" fx="355.061" fy="299.093">
  </radialGradient>
  <radialGradient id="id69" gradientUnits="userSpaceOnUse" gradientTransform="matrix(2.64736 3.78202 3.78214 -2.64754 -1729 -258)" xlink:href="#id66" cx="358.358" cy="300.955" r="6.463" fx="358.358" fy="300.955">
  </radialGradient>
  <radialGradient id="id70" gradientUnits="userSpaceOnUse" gradientTransform="matrix(3.08761 4.21647 4.21642 -3.08764 -2244 746)" xlink:href="#id65" cx="229.132" cy="418.81" r="6.694" fx="229.132" fy="418.81">
  </radialGradient>
  <radialGradient id="id71" gradientUnits="userSpaceOnUse" gradientTransform="matrix(1.94936 2.78484 2.78471 -1.94931 -1101 770)" cx="104.5" cy="359.607" r="8.778" fx="104.5" fy="359.607">
   <stop offset="0" style="stop-opacity:1; stop-color:#E073AC"/>
   <stop offset="1" style="stop-opacity:1; stop-color:#974598"/>
  </radialGradient>
  <radialGradient id="id72" gradientUnits="userSpaceOnUse" gradientTransform="matrix(5.63634 7.6966 7.69976 -5.63814 -4288 1017)" xlink:href="#id65" cx="229.129" cy="418.884" r="3.667" fx="229.129" fy="418.884">
  </radialGradient>
  <radialGradient id="id73" gradientUnits="userSpaceOnUse" gradientTransform="matrix(1.91501 2.73572 2.73573 -1.915 -1080 763)" xlink:href="#id71" cx="104.465" cy="359.755" r="8.935" fx="104.465" fy="359.755">
  </radialGradient>
  <radialGradient id="id74" gradientUnits="userSpaceOnUse" gradientTransform="matrix(2.64746 3.78213 3.78217 -2.64754 -1974 653)" cx="232.91" cy="420.428" r="6.463" fx="232.91" fy="420.428">
   <stop offset="0" style="stop-opacity:1; stop-color:#9075B4"/>
   <stop offset="1" style="stop-opacity:1; stop-color:#6956A2"/>
  </radialGradient>
  <radialGradient id="id75" gradientUnits="userSpaceOnUse" gradientTransform="matrix(1.01035 1.299 1.29903 -1.01035 -467 589)" xlink:href="#id65" cx="101.778" cy="358.613" r="20.015" fx="101.778" fy="358.613">
  </radialGradient>
  <radialGradient id="id76" gradientUnits="userSpaceOnUse" gradientTransform="matrix(2.65724 3.79604 3.79596 -2.65715 -1736 -259)" xlink:href="#id66" cx="358.225" cy="300.961" r="6.44" fx="358.225" fy="300.961">
  </radialGradient>
  <radialGradient id="id77" gradientUnits="userSpaceOnUse" gradientTransform="matrix(2.6471 3.78145 3.78177 -2.64714 -1532 917)" xlink:href="#id71" cx="104.478" cy="359.696" r="6.464" fx="104.478" fy="359.696">
  </radialGradient>
  <radialGradient id="id78" gradientUnits="userSpaceOnUse" gradientTransform="matrix(1.91493 2.73566 2.73567 -1.915 -1363 589)" xlink:href="#id74" cx="232.9" cy="420.488" r="8.936" fx="232.9" fy="420.488">
  </radialGradient>
  <radialGradient id="id79" gradientUnits="userSpaceOnUse" gradientTransform="matrix(5.21209 7.27236 7.27535 -5.21375 -3674 -725)" xlink:href="#id65" cx="355.343" cy="299.248" r="3.667" fx="355.343" fy="299.248">
  </radialGradient>
  <radialGradient id="id80" gradientUnits="userSpaceOnUse" gradientTransform="matrix(5.5161 7.09163 7.09506 -5.51801 -3003 1615)" xlink:href="#id65" cx="101.792" cy="358.484" r="3.666" fx="101.792" fy="358.484">
  </radialGradient>
  <radialGradient id="id81" gradientUnits="userSpaceOnUse" gradientTransform="matrix(2.6573 3.79617 3.79603 -2.65724 -1982 654)" xlink:href="#id74" cx="232.778" cy="420.434" r="6.44" fx="232.778" fy="420.434">
  </radialGradient>
  <radialGradient id="id82" gradientUnits="userSpaceOnUse" gradientTransform="matrix(1.94932 2.78474 2.78474 -1.94931 -1178 -111)" xlink:href="#id66" cx="358.382" cy="300.868" r="8.778" fx="358.382" fy="300.868">
  </radialGradient>
  <radialGradient id="id83" gradientUnits="userSpaceOnUse" gradientTransform="matrix(1.03254 1.41003 1.41004 -1.03254 -598 529)" xlink:href="#id65" cx="229.016" cy="418.956" r="20.015" fx="229.016" fy="418.956">
  </radialGradient>
  <radialGradient id="id84" gradientUnits="userSpaceOnUse" gradientTransform="matrix(2.65704 3.79564 3.79596 -2.65708 -1538 919)" xlink:href="#id71" cx="104.343" cy="359.7" r="6.44" fx="104.343" fy="359.7">
  </radialGradient>
  <radialGradient id="id85" gradientUnits="userSpaceOnUse" gradientTransform="matrix(1.94932 2.78478 2.78474 -1.94934 -1392 591)" xlink:href="#id74" cx="232.934" cy="420.341" r="8.778" fx="232.934" fy="420.341">
  </radialGradient>
 </defs>
 <g id="Camada_x0020_1">
  <metadata id="CorelCorpID_0Corel-Layer"/>
  <g id="_1652037835744">
   <g>
    <g style="clip-path:url(#id0)">
     <image x="102.836" y="-1.246" width="398.902" height="309.89" xlink:href="img_contato_Images\img_contato_ImgID1.png"/>
    </g>
    <polygon class="fil0" points="38.944,190.449 0,154.39 128.118,114.886 499.962,0.235 104.752,185.94 "/>
    <polygon class="fil1" points="142.254,306.74 142.254,306.74 179.755,229.573 499.962,0.235 179.755,229.573 "/>
    <g style="clip-path:url(#id1)">
     <image x="141.069" y="-1.246" width="360.669" height="309.89" xlink:href="img_contato_Images\img_contato_ImgID2.png"/>
    </g>
    <polygon class="fil2" points="499.962,0.235 179.755,229.573 229.697,284.563 290.998,306.919 "/>
    <polygon class="fil3" points="290.998,306.919 229.697,284.563 179.755,229.573 142.254,306.74 104.752,185.94 38.944,190.449 0,154.388 40.386,189.366 105.879,185.491 142.615,301.692 179.755,229.573 229.879,282.219 "/>
    <g>
     <path class="fil4" d="M380.032 404.07c0.205,-0.137 0.377,-0.34 0.5,-0.609 0.004,-0.008 0.008,-0.018 0.012,-0.026l2.814 -6.384c0.145,0.094 0.29,0.183 0.438,0.269l-2.599 5.896c-0.237,0.536 -0.655,0.819 -1.165,0.854zm-2.194 -24.392l-15.831 -16.466c-0.745,-0.774 -1.545,-1.17 -2.211,-1.17 -0.038,0 -0.077,0.001 -0.115,0.005 0.221,-0.149 0.482,-0.223 0.768,-0.223 0.666,0 1.466,0.396 2.211,1.171l15.65 16.277c-0.142,0.094 -0.231,0.175 -0.283,0.253 -0.064,0.05 -0.128,0.1 -0.189,0.153z"/>
     <path class="fil5" d="M379.264 404.291c-0.665,0 -1.466,-0.394 -2.211,-1.169l-22.38 -23.278c-1.372,-1.428 -2.038,-3.604 -1.484,-4.861l5.327 -12.084c0.237,-0.535 0.655,-0.816 1.165,-0.852 0.038,-0.004 0.077,-0.005 0.115,-0.005 0.666,0 1.466,0.396 2.211,1.17l15.831 16.466 0 0 -15.833 -16.466c-0.741,-0.773 -1.538,-1.163 -2.199,-1.163 -0.237,0 -0.456,0.048 -0.649,0.15 0.389,0.017 0.819,0.165 1.257,0.44l4.878 15.982 -11.85 -1.06 0.026 0.071 12.229 2.313 2.148 7.041 5.057 0.452 5.937 16.58 0.052 0.013 -5.038 -16.506 -0.55 -0.05 3.436 0.306c1.019,3.465 3.331,6.918 6.111,8.921l-3.033 6.877c-0.147,0.336 -0.37,0.565 -0.641,0.702 0.03,0.002 0.058,0.002 0.085,0.002 0.553,0 1.014,-0.265 1.271,-0.822 -0.123,0.269 -0.295,0.472 -0.5,0.609 -0.221,0.148 -0.484,0.221 -0.768,0.221zm-2.784 -17.52l-7.882 -1.491 -8.086 -22.577c0.256,0.173 0.515,0.392 0.768,0.655l16.122 16.767c-0.773,0.921 -1.221,2.294 -1.221,4.044 0,0.844 0.106,1.718 0.299,2.602z"/>
     <g style="clip-path:url(#id2)">
      <image x="358.124" y="360.976" width="26.923" height="45.044" xlink:href="img_contato_Images\img_contato_ImgID3.png"/>
     </g>
     <path class="fil6" d="M376.739 387.781l-3.436 -0.306 -0.401 -0.037 -5.057 -0.452 -2.148 -7.041 0 0 -0.405 -1.324 -4.878 -15.982c0.031,0.02 0.065,0.041 0.098,0.064l8.086 22.577 7.882 1.491c0.074,0.337 0.161,0.674 0.259,1.01z"/>
     <g style="clip-path:url(#id3)">
      <image x="359.119" y="360.976" width="3.027" height="3.027" xlink:href="img_contato_Images\img_contato_ImgID4.png"/>
     </g>
     <polygon class="fil7" points="378.891,404.031 378.839,404.018 372.902,387.438 373.303,387.475 373.853,387.525 "/>
     <polygon class="fil8" points="373.303,387.475 372.902,387.438 372.902,387.438 "/>
     <polygon class="fil9" points="365.697,379.945 353.468,377.632 353.442,377.561 365.292,378.621 "/>
     <polygon class="fil10" points="365.697,379.945 365.697,379.945 365.292,378.621 365.292,378.621 "/>
     <path class="fil11" d="M361.338 367.416c-0.61,-0.093 -1.285,-0.842 -1.51,-1.673 -0.222,-0.828 0.09,-1.423 0.699,-1.328 0.61,0.095 1.287,0.844 1.51,1.672 0.225,0.829 -0.088,1.425 -0.699,1.329z"/>
     <polygon class="fil12" points="361.139,366.563 360.727,366.344 337.585,332.151 338.41,331.596 361.139,365.178 383.866,331.596 384.69,332.151 361.551,366.344 "/>
     <path class="fil12" d="M361.139 366.563c-0.213,0 -0.405,-0.137 -0.472,-0.342l-11.287 -34.191 0.945 -0.312 10.814 32.759 10.812 -32.759 0.946 0.312 -11.284 34.191c-0.07,0.205 -0.259,0.342 -0.474,0.342z"/>
     <path class="fil13" d="M370.532 336.586c0.002,-0.002 0.004,-0.004 0.006,-0.006 0.002,0.002 0.003,0.002 0.006,0.004 -0.004,0 -0.008,0.002 -0.012,0.002zm0.006 -0.006l0 0zm-18.991 0.006c-0.005,-0.002 -0.008,-0.002 -0.014,-0.002 0.003,-0.002 0.006,-0.002 0.007,-0.004 0.002,0.002 0.004,0.004 0.007,0.006zm-0.007 -0.006l0 0zm33.855 -5.824c0,0 0,-0.003 0,-0.004 -0.143,-7.309 -1.763,-14.069 -4.431,-19.659 0.763,-1.485 1.177,-3.082 1.177,-4.745 0,-3.14 -1.477,-6.044 -3.98,-8.402 2.261,1.09 4.456,2.621 6.37,4.758 0.014,0.016 0.03,0.034 0.046,0.052 2.435,3.18 4.269,6.864 5.324,10.877 0.303,1.303 0.54,2.703 0.711,4.197 0.208,1.23 0.321,2.485 0.321,3.764 0,3.435 -0.974,7.382 -5.528,9.154 -0.004,0.004 -0.006,0.005 -0.01,0.008zm-0.818 -28l0 0zm-47.894 28c-0.004,-0.003 -0.008,-0.006 -0.012,-0.008 -4.781,-2.117 -5.524,-5.741 -5.524,-9.154 0,-1.277 0.112,-2.531 0.319,-3.758 0.169,-1.489 0.406,-2.888 0.707,-4.19 1.055,-4.02 2.893,-7.71 5.334,-10.897 0.016,-0.017 0.032,-0.035 0.048,-0.053 0.008,-0.01 0.018,-0.02 0.028,-0.032 0.018,-0.02 0.036,-0.04 0.054,-0.059 0.018,-0.02 0.036,-0.04 0.053,-0.06 0.009,-0.008 0.017,-0.016 0.025,-0.024 2.13,-2.322 4.6,-3.913 7.115,-4.99 -2.778,2.429 -4.437,5.489 -4.437,8.817 0,1.49 0.333,2.925 0.95,4.275 -2.804,5.679 -4.511,12.616 -4.66,20.129 0,0.001 0,0.004 0,0.004z"/>
     <path class="fil14" d="M361.149 339.323c-3.768,0 -7.548,-0.937 -9.602,-2.737 -0.003,-0.002 -0.005,-0.004 -0.007,-0.006 0.036,-6.175 0.375,-12.019 0.956,-17.25 2.666,0.846 5.638,1.32 8.77,1.32 2.961,0 5.778,-0.422 8.332,-1.185 0.569,5.197 0.904,10.994 0.94,17.115 -0.002,0.002 -0.004,0.004 -0.006,0.006 -2.036,1.844 -5.703,2.737 -9.383,2.737z"/>
     <path class="fil15" d="M356.814 292.371c-0.397,-0.277 -0.815,-0.558 -1.251,-0.835 1.776,-0.336 3.605,-0.521 5.476,-0.521 1.872,0 3.7,0.185 5.476,0.521 -0.408,0.26 -0.8,0.523 -1.173,0.781 -1.318,-0.179 -2.68,-0.273 -4.076,-0.273 -1.527,0 -3.017,0.114 -4.452,0.327z"/>
     <path class="fil16" d="M347.645 337.313c-4.753,0 -10.946,-2.312 -10.962,-6.557 0,0 0,-0.003 0,-0.004 0.149,-7.513 1.856,-14.45 4.66,-20.129 1.764,3.866 5.857,7.024 11.153,8.707 -0.581,5.231 -0.92,11.075 -0.956,17.25l0 0c-0.001,0.002 -0.004,0.002 -0.007,0.004 -0.978,0.49 -2.359,0.729 -3.888,0.729z"/>
     <path class="fil17" d="M374.138 337.313c-1.47,0 -2.754,-0.239 -3.594,-0.729 -0.003,-0.002 -0.004,-0.002 -0.006,-0.004l0 0c-0.036,-6.121 -0.371,-11.918 -0.94,-17.115 5.289,-1.579 9.439,-4.616 11.366,-8.372 2.668,5.59 4.288,12.35 4.431,19.659 0,0.001 0,0.004 0,0.004 -0.323,4.245 -6.685,6.557 -11.257,6.557z"/>
     <path class="fil18" d="M337.507 302.749c4.401,-5.742 10.762,-9.832 18.056,-11.213 0.436,0.277 0.854,0.558 1.251,0.835 -4.832,0.719 -9.037,2.585 -11.984,5.16 -2.515,1.077 -4.985,2.668 -7.115,4.99 -0.008,0.008 -0.016,0.016 -0.025,0.024 -0.017,0.02 -0.035,0.04 -0.053,0.06 -0.018,0.019 -0.036,0.039 -0.054,0.059 -0.01,0.012 -0.02,0.022 -0.028,0.032 -0.016,0.018 -0.032,0.036 -0.048,0.053z"/>
     <path class="fil19" d="M384.577 302.756c-0.016,-0.018 -0.032,-0.036 -0.046,-0.052 -1.914,-2.137 -4.109,-3.668 -6.37,-4.758 -3.033,-2.859 -7.574,-4.916 -12.819,-5.629 0.373,-0.258 0.765,-0.521 1.173,-0.781 7.296,1.383 13.661,5.475 18.062,11.22l0 0z"/>
     <g style="clip-path:url(#id4)">
      <image x="354.34" y="294.068" width="24.931" height="5.018" xlink:href="img_contato_Images\img_contato_ImgID5.png"/>
     </g>
     <g style="clip-path:url(#id5)">
      <image x="339.007" y="294.067" width="45.044" height="18.36" xlink:href="img_contato_Images\img_contato_ImgID6.png"/>
     </g>
     <g style="clip-path:url(#id6)">
      <image x="351.353" y="294.067" width="19.356" height="27.918" xlink:href="img_contato_Images\img_contato_ImgID7.png"/>
     </g>
     <g style="clip-path:url(#id7)">
      <image x="355.137" y="290.284" width="11.789" height="6.81" xlink:href="img_contato_Images\img_contato_ImgID8.png"/>
     </g>
     <g style="clip-path:url(#id8)">
      <image x="340.003" y="294.068" width="22.144" height="26.923" xlink:href="img_contato_Images\img_contato_ImgID9.png"/>
     </g>
     <g style="clip-path:url(#id9)">
      <image x="359.119" y="294.068" width="23.139" height="26.923" xlink:href="img_contato_Images\img_contato_ImgID10.png"/>
     </g>
     <g style="clip-path:url(#id10)">
      <image x="343.786" y="291.081" width="18.36" height="8.005" xlink:href="img_contato_Images\img_contato_ImgID11.png"/>
     </g>
     <g style="clip-path:url(#id11)">
      <image x="359.119" y="291.081" width="20.152" height="8.005" xlink:href="img_contato_Images\img_contato_ImgID12.png"/>
     </g>
     <path class="fil20" d="M389.117 397.925c0.032,-0.016 0.063,-0.034 0.096,-0.052 1.588,-0.686 2.592,-2.457 2.592,-5.077 0,-4.836 -3.415,-10.726 -7.629,-13.16 -1.23,-0.71 -2.391,-1.045 -3.419,-1.045 -0.661,0 -1.267,0.138 -1.8,0.404 0.081,-0.021 0.165,-0.042 0.251,-0.059 -0.432,0.125 -0.828,0.322 -1.181,0.589 0.052,-0.078 0.141,-0.159 0.283,-0.253 0.033,-0.019 0.067,-0.041 0.105,-0.063l2.567 -1.466c0.558,-0.301 1.197,-0.458 1.9,-0.458 1.029,0 2.192,0.336 3.425,1.047 4.212,2.432 7.627,8.324 7.627,13.157 0,2.362 -0.815,4.035 -2.139,4.845l-2.304 1.426c-0.149,0.083 -0.271,0.137 -0.374,0.165z"/>
     <path class="fil21" d="M387.235 398.375c-1.029,0 -2.192,-0.336 -3.425,-1.047 -0.004,-0.004 -0.008,-0.006 -0.014,-0.008 -0.148,-0.086 -0.293,-0.175 -0.438,-0.269l0 0c-0.171,-0.112 -0.34,-0.227 -0.508,-0.349 -2.78,-2.003 -5.092,-5.456 -6.111,-8.921 -0.098,-0.336 -0.185,-0.673 -0.259,-1.01 -0.193,-0.884 -0.299,-1.758 -0.299,-2.602 0,-1.75 0.448,-3.123 1.221,-4.044 0.135,-0.164 0.281,-0.311 0.436,-0.447l0 0c0.061,-0.053 0.125,-0.103 0.189,-0.153 0.353,-0.267 0.749,-0.464 1.181,-0.589 0.281,-0.06 0.577,-0.09 0.886,-0.09 1.03,0 2.193,0.337 3.423,1.047 4.214,2.432 7.629,8.323 7.629,13.157 0,2.517 -0.928,4.25 -2.409,4.99 0.163,-0.045 0.322,-0.101 0.476,-0.167 -0.033,0.018 -0.064,0.036 -0.096,0.052 -0.554,0.297 -1.187,0.45 -1.882,0.45z"/>
     <g style="clip-path:url(#id12)">
      <image x="377.24" y="377.106" width="16.369" height="22.343" xlink:href="img_contato_Images\img_contato_ImgID13.png"/>
     </g>
     <g style="clip-path:url(#id13)">
      <image x="377.24" y="377.106" width="15.373" height="22.343" xlink:href="img_contato_Images\img_contato_ImgID14.png"/>
     </g>
     <path class="fil3" d="M381.852 392.644c-0.494,-0.544 -0.864,-1.083 -1.109,-1.617 -0.246,-0.536 -0.376,-1.013 -0.392,-1.44l0.071 -0.165 0.182 0.022 1.109 0.639c0.177,0.104 0.298,0.265 0.362,0.488 0.178,0.757 0.709,1.39 1.593,1.901 0.49,0.283 0.875,0.377 1.151,0.278 0.279,-0.098 0.418,-0.387 0.418,-0.867 0,-0.479 -0.127,-0.902 -0.38,-1.264 -0.253,-0.365 -0.625,-0.687 -1.115,-0.97l-1.245 -0.717 -0.204 -0.217 -0.085 -0.282 0 -0.596 0.158 -0.324 2.147 -1.169 -3.439 -1.986 -0.218 -0.222 -0.083 -0.286 0 -0.925 0.083 -0.204 0.218 0.03 5.189 2.995 0.217 0.223 0.084 0.299 0 0.844 -0.157 0.297 -2.076 1.252 0.146 0.096c0.772,0.522 1.386,1.143 1.84,1.866 0.454,0.725 0.681,1.515 0.681,2.373 0,0.61 -0.142,1.058 -0.428,1.346 -0.285,0.287 -0.68,0.409 -1.183,0.363 -0.502,-0.046 -1.075,-0.255 -1.719,-0.626 -0.714,-0.413 -1.322,-0.893 -1.816,-1.435z"/>
    </g>
    <g>
     <path class="fil22" d="M254.585 523.544c0.203,-0.135 0.372,-0.337 0.496,-0.601 0.004,-0.013 0.009,-0.023 0.016,-0.035l2.814 -6.384c0.145,0.094 0.29,0.183 0.438,0.269l-0.51 1.157 -2.089 4.739c-0.237,0.536 -0.656,0.819 -1.165,0.855zm-2.194 -24.392l-15.831 -16.466c-0.746,-0.775 -1.546,-1.171 -2.209,-1.171 -0.04,0 -0.08,0.002 -0.118,0.003 0.221,-0.147 0.484,-0.221 0.769,-0.221 0.665,0 1.465,0.397 2.211,1.172l3.168 3.294 1.394 1.449 1.393 1.449 1.392 1.451 1.394 1.447 1.392 1.448 1.39 1.447 1.391 1.446 1.389 1.444 1.348 1.402c-0.143,0.093 -0.233,0.175 -0.284,0.253 -0.064,0.049 -0.128,0.099 -0.189,0.153z"/>
     <path class="fil23" d="M253.816 523.765c-0.665,0 -1.466,-0.395 -2.21,-1.169l-2.918 -3.037 -1.308 -1.358 -1.32 -1.374 -1.331 -1.383 -1.337 -1.393 -1.346 -1.4 -1.353 -1.405 -1.358 -1.412 -1.36 -1.417 -1.366 -1.419 -1.368 -1.424 -1.372 -1.427 -1.374 -1.429 -1.376 -1.431 -1.378 -1.434 -0.516 -0.535c-0.272,-0.284 -0.517,-0.597 -0.731,-0.927 -0.32,-0.497 -0.569,-1.036 -0.732,-1.563 -0.179,-0.588 -0.251,-1.165 -0.197,-1.67 0.026,-0.255 0.085,-0.491 0.177,-0.701l0.506 -1.145 0.828 -1.878 0.828 -1.883 0.833 -1.885 2.332 -5.293c0.236,-0.536 0.654,-0.816 1.164,-0.855 0.038,-0.001 0.078,-0.003 0.118,-0.003 0.663,0 1.463,0.396 2.209,1.171l15.831 16.466 0 0 -15.831 -16.466c-0.743,-0.773 -1.54,-1.163 -2.201,-1.163 -0.237,0 -0.456,0.048 -0.649,0.147 0.394,0.02 0.832,0.171 1.276,0.454l7.414 24.336 5.954 0.532 -0.9 -0.079 5.938 16.579 0.052 0.011 -5.038 -16.505 2.887 0.257c1.017,3.465 3.329,6.917 6.11,8.921l-3.033 6.876c-0.148,0.336 -0.371,0.565 -0.639,0.703 0.027,0.002 0.056,0.002 0.083,0.002 0.55,0 1.01,-0.263 1.267,-0.814 -0.124,0.264 -0.293,0.466 -0.496,0.601 -0.221,0.149 -0.484,0.221 -0.769,0.221zm-25.821 -26.73l0.026 0.071 12.229 2.313 -0.405 -1.325 -11.85 -1.059zm23.038 9.21l-7.882 -1.491 -8.087 -22.578c0.259,0.173 0.516,0.392 0.768,0.655l16.122 16.767c-0.77,0.922 -1.219,2.294 -1.219,4.045 0,0.844 0.104,1.718 0.298,2.602z"/>
     <g style="clip-path:url(#id14)">
      <image x="231.874" y="480.455" width="27.918" height="45.044" xlink:href="img_contato_Images\img_contato_ImgID15.png"/>
     </g>
     <path class="fil24" d="M251.293 507.255l-2.887 -0.257 -0.052 -0.006 -5.954 -0.532 -7.414 -24.336c0.026,0.018 0.052,0.034 0.078,0.052l8.087 22.578 7.882 1.491c0.073,0.337 0.16,0.673 0.26,1.01z"/>
     <g style="clip-path:url(#id15)">
      <image x="232.869" y="480.455" width="4.023" height="3.027" xlink:href="img_contato_Images\img_contato_ImgID16.png"/>
     </g>
     <polygon class="fil25" points="253.444,523.503 253.392,523.492 247.454,506.913 248.354,506.992 248.406,506.998 "/>
     <polygon class="fil26" points="240.25,499.419 228.021,497.106 227.995,497.035 239.845,498.094 "/>
     <path class="fil11" d="M235.892 486.89c-0.611,-0.095 -1.286,-0.843 -1.509,-1.673 -0.225,-0.829 0.087,-1.424 0.697,-1.328 0.611,0.095 1.286,0.844 1.509,1.672 0.225,0.829 -0.088,1.424 -0.697,1.329z"/>
     <polygon class="fil12" points="235.691,486.037 235.279,485.818 212.138,451.625 212.963,451.069 235.691,484.651 258.418,451.069 259.243,451.625 236.103,485.818 "/>
     <path class="fil12" d="M235.691 486.037c-0.213,0 -0.404,-0.138 -0.472,-0.342l-11.287 -34.191 0.946 -0.313 10.813 32.761 10.815 -32.761 0.946 0.313 -11.287 34.191c-0.07,0.204 -0.258,0.342 -0.474,0.342z"/>
     <path class="fil27" d="M245.084 456.06c0.002,-0.002 0.004,-0.005 0.006,-0.006 0.002,0.001 0.004,0.001 0.006,0.004 -0.004,0 -0.008,0.002 -0.012,0.002zm0.006 -0.006l0 0zm-18.991 0.006c-0.004,-0.002 -0.008,-0.002 -0.012,-0.002 0.002,-0.003 0.004,-0.003 0.006,-0.004 0.002,0.001 0.004,0.004 0.006,0.006zm-0.006 -0.006l0 0zm33.855 -5.825l0 -0.002c-0.144,-7.308 -1.763,-14.071 -4.431,-19.66 0.762,-1.486 1.177,-3.083 1.177,-4.746 0,-3.14 -1.477,-6.043 -3.981,-8.403 2.262,1.091 4.456,2.623 6.37,4.759 0.016,0.016 0.032,0.034 0.046,0.052 2.437,3.18 4.272,6.864 5.327,10.877 0.139,0.605 0.265,1.23 0.378,1.877 0.13,0.747 0.239,1.522 0.331,2.32 0.207,1.229 0.32,2.486 0.32,3.764 0,3.435 -0.973,7.382 -5.528,9.154 -0.001,0.004 -0.005,0.006 -0.009,0.008zm-0.819 -28l0 0zm-47.893 28c-0.004,-0.002 -0.008,-0.006 -0.012,-0.008 -4.781,-2.117 -5.524,-5.741 -5.524,-9.154 0,-0.609 0.024,-1.213 0.073,-1.81 0.055,-0.657 0.138,-1.304 0.245,-1.947 0.17,-1.49 0.407,-2.888 0.708,-4.191 0.386,-1.471 0.877,-2.901 1.465,-4.275 1.018,-2.381 2.322,-4.604 3.869,-6.621 0.016,-0.017 0.032,-0.036 0.048,-0.054 2.166,-2.417 4.696,-4.062 7.274,-5.165 -2.778,2.429 -4.434,5.49 -4.434,8.817 0,1.49 0.33,2.925 0.947,4.276 -2.803,5.679 -4.51,12.615 -4.659,20.13l0 0.002z"/>
     <path class="fil28" d="M235.701 458.796c-3.768,0 -7.547,-0.936 -9.602,-2.736 -0.002,-0.002 -0.004,-0.005 -0.006,-0.006 0.035,-6.175 0.376,-12.02 0.956,-17.251 2.666,0.846 5.639,1.321 8.772,1.321 2.959,0 5.776,-0.423 8.329,-1.185 0.57,5.197 0.904,10.993 0.94,17.115 -0.002,0.001 -0.004,0.004 -0.006,0.006 -2.035,1.844 -5.703,2.736 -9.383,2.736z"/>
     <path class="fil29" d="M231.366 411.845c-0.396,-0.278 -0.815,-0.558 -1.25,-0.835 1.776,-0.338 3.604,-0.522 5.475,-0.522 1.872,0 3.7,0.184 5.477,0.522 -0.409,0.259 -0.801,0.522 -1.173,0.78 -1.319,-0.178 -2.681,-0.272 -4.074,-0.272 -1.529,0 -3.019,0.113 -4.455,0.327z"/>
     <path class="fil30" d="M222.2 456.786c-4.755,0 -10.948,-2.312 -10.964,-6.557l0 -0.002c0.149,-7.515 1.856,-14.451 4.659,-20.13 1.765,3.865 5.859,7.023 11.154,8.706 -0.58,5.231 -0.921,11.076 -0.956,17.251l0 0c-0.002,0.001 -0.004,0.001 -0.006,0.004 -0.979,0.49 -2.36,0.728 -3.887,0.728z"/>
     <path class="fil31" d="M248.69 456.786c-1.469,0 -2.753,-0.238 -3.594,-0.728 -0.002,-0.003 -0.004,-0.003 -0.006,-0.004l0 0c-0.036,-6.122 -0.37,-11.918 -0.94,-17.115 5.289,-1.58 9.439,-4.617 11.367,-8.372 2.668,5.589 4.287,12.352 4.431,19.66l0 0.002c-0.321,4.245 -6.685,6.557 -11.258,6.557z"/>
     <path class="fil32" d="M212.06 422.223c0.858,-1.121 1.793,-2.18 2.794,-3.166 4.126,-4.071 9.391,-6.936 15.262,-8.047 0.435,0.277 0.854,0.557 1.25,0.835 -4.831,0.718 -9.037,2.584 -11.984,5.159 -2.578,1.103 -5.108,2.748 -7.274,5.165 -0.016,0.018 -0.032,0.037 -0.048,0.054z"/>
     <path class="fil33" d="M259.129 422.229c-0.014,-0.018 -0.03,-0.036 -0.046,-0.052 -1.914,-2.136 -4.108,-3.668 -6.37,-4.759 -3.033,-2.857 -7.573,-4.916 -12.818,-5.628 0.372,-0.258 0.764,-0.521 1.173,-0.78 7.296,1.382 13.66,5.474 18.061,11.219l0 0z"/>
     <g style="clip-path:url(#id16)">
      <image x="229.086" y="413.547" width="24.931" height="5.018" xlink:href="img_contato_Images\img_contato_ImgID17.png"/>
     </g>
     <g style="clip-path:url(#id17)">
      <image x="213.753" y="413.547" width="44.247" height="18.36" xlink:href="img_contato_Images\img_contato_ImgID18.png"/>
     </g>
     <g style="clip-path:url(#id18)">
      <image x="225.302" y="413.547" width="20.152" height="27.918" xlink:href="img_contato_Images\img_contato_ImgID19.png"/>
     </g>
     <g style="clip-path:url(#id19)">
      <image x="230.082" y="409.763" width="11.59" height="6.81" xlink:href="img_contato_Images\img_contato_ImgID20.png"/>
     </g>
     <g style="clip-path:url(#id20)">
      <image x="214.748" y="413.547" width="22.144" height="26.923" xlink:href="img_contato_Images\img_contato_ImgID21.png"/>
     </g>
     <g style="clip-path:url(#id21)">
      <image x="233.865" y="413.547" width="23.139" height="26.923" xlink:href="img_contato_Images\img_contato_ImgID22.png"/>
     </g>
     <g style="clip-path:url(#id22)">
      <image x="217.536" y="410.56" width="19.356" height="8.005" xlink:href="img_contato_Images\img_contato_ImgID23.png"/>
     </g>
     <g style="clip-path:url(#id23)">
      <image x="233.865" y="410.56" width="20.152" height="8.005" xlink:href="img_contato_Images\img_contato_ImgID24.png"/>
     </g>
     <path class="fil34" d="M263.669 517.398c0.032,-0.016 0.064,-0.033 0.096,-0.051 1.589,-0.687 2.592,-2.459 2.592,-5.078 0,-4.835 -3.415,-10.725 -7.628,-13.159 -1.229,-0.71 -2.391,-1.045 -3.42,-1.045 -0.661,0 -1.266,0.137 -1.8,0.404 0.084,-0.022 0.168,-0.044 0.252,-0.062 -0.433,0.128 -0.827,0.325 -1.181,0.592 0.051,-0.078 0.141,-0.16 0.284,-0.253 0.032,-0.02 0.066,-0.042 0.104,-0.064l2.567 -1.465c0.557,-0.302 1.199,-0.459 1.899,-0.459 0.813,0 1.709,0.21 2.655,0.648 0.253,0.115 0.51,0.249 0.77,0.4 0.457,0.263 0.905,0.567 1.341,0.908 0.539,0.422 1.059,0.896 1.553,1.414 0.438,0.46 0.856,0.954 1.251,1.473 0.364,0.483 0.708,0.988 1.027,1.511 0.306,0.501 0.589,1.018 0.846,1.544 0.253,0.516 0.48,1.041 0.677,1.571 0.199,0.532 0.369,1.065 0.508,1.6 0.142,0.545 0.249,1.088 0.32,1.626 0.07,0.512 0.106,1.016 0.106,1.51 0,0.05 -0.002,0.1 -0.002,0.149 -0.01,0.617 -0.075,1.187 -0.191,1.702 -0.155,0.69 -0.402,1.289 -0.725,1.787 -0.332,0.51 -0.742,0.914 -1.222,1.207l-1.458 0.902 -0.846 0.524c-0.15,0.083 -0.271,0.137 -0.375,0.164z"/>
     <path class="fil35" d="M261.787 517.848c-0.543,0 -1.125,-0.093 -1.734,-0.287 -0.544,-0.173 -1.109,-0.425 -1.691,-0.76 -0.004,-0.004 -0.008,-0.006 -0.013,-0.008 -0.148,-0.086 -0.293,-0.175 -0.438,-0.269l0 0c-0.172,-0.111 -0.341,-0.227 -0.508,-0.348 -2.781,-2.004 -5.093,-5.456 -6.11,-8.921 -0.1,-0.337 -0.187,-0.673 -0.26,-1.01 -0.194,-0.884 -0.298,-1.758 -0.298,-2.602 0,-1.751 0.449,-3.123 1.219,-4.045 0.136,-0.163 0.281,-0.311 0.437,-0.446l0 0c0.061,-0.054 0.125,-0.104 0.189,-0.153 0.354,-0.267 0.748,-0.464 1.181,-0.592 0.282,-0.057 0.577,-0.087 0.886,-0.087 1.029,0 2.192,0.336 3.423,1.047 4.213,2.431 7.629,8.322 7.629,13.157 0,2.516 -0.927,4.249 -2.41,4.99 0.163,-0.046 0.323,-0.102 0.476,-0.167 -0.032,0.018 -0.064,0.035 -0.096,0.051 -0.554,0.297 -1.187,0.45 -1.882,0.45z"/>
     <g style="clip-path:url(#id24)">
      <image x="251.986" y="496.585" width="15.572" height="22.343" xlink:href="img_contato_Images\img_contato_ImgID25.png"/>
     </g>
     <g style="clip-path:url(#id25)">
      <image x="251.986" y="496.585" width="15.572" height="22.343" xlink:href="img_contato_Images\img_contato_ImgID26.png"/>
     </g>
     <polygon class="fil3" points="258.034,512.884 257.948,512.599 257.948,505.455 256.126,506.01 255.945,505.974 255.716,505.703 255.196,504.628 255.136,504.4 255.27,504.2 257.972,503.35 258.275,503.428 259.36,504.055 259.565,504.269 259.648,504.554 259.648,513.581 259.565,513.769 259.36,513.748 258.239,513.099 "/>
    </g>
    <g>
     <path class="fil36" d="M126.15 462.811c0.205,-0.138 0.377,-0.341 0.501,-0.61 0.003,-0.008 0.007,-0.018 0.011,-0.026l2.814 -6.384c0.145,0.094 0.293,0.183 0.44,0.269l-2.601 5.896c-0.237,0.536 -0.655,0.818 -1.165,0.855zm-2.192 -24.392l-15.833 -16.466c-0.745,-0.775 -1.545,-1.169 -2.209,-1.169 -0.039,0 -0.077,0 -0.115,0.003 0.221,-0.149 0.482,-0.223 0.769,-0.223 0.663,0 1.463,0.397 2.208,1.171l11.625 12.092 4.027 4.188c-0.141,0.091 -0.233,0.175 -0.283,0.252 -0.065,0.048 -0.127,0.1 -0.189,0.152z"/>
     <path class="fil37" d="M125.381 463.034c-0.664,0 -1.465,-0.397 -2.208,-1.172l-22.381 -23.276c-1.373,-1.428 -2.038,-3.604 -1.484,-4.861l1.437 -3.26 3.891 -8.823c0.235,-0.536 0.656,-0.819 1.165,-0.855 0.038,-0.003 0.076,-0.003 0.115,-0.003 0.664,0 1.464,0.394 2.209,1.169l15.833 16.466 0 0 -15.833 -16.466c-0.743,-0.773 -1.537,-1.164 -2.201,-1.164 -0.236,0 -0.455,0.05 -0.649,0.15 0.391,0.018 0.821,0.165 1.257,0.44l4.879 15.982 -11.851 -1.059 0.026 0.069 12.229 2.315 2.151 7.041 8.893 0.794c1.017,3.467 3.332,6.918 6.109,8.923l-3.03 6.877c-0.15,0.334 -0.373,0.563 -0.642,0.701 0.028,0.001 0.055,0.001 0.084,0.001 0.554,0.003 1.014,-0.264 1.271,-0.822 -0.124,0.269 -0.296,0.472 -0.501,0.61 -0.22,0.148 -0.482,0.223 -0.769,0.223zm-6.362 -16.855l5.939 16.58 0.053 0.012 -5.04 -16.507 -0.952 -0.085zm3.581 -0.665l-7.884 -1.492 -8.085 -22.578c0.257,0.174 0.516,0.39 0.767,0.653l16.122 16.768c-0.771,0.921 -1.219,2.294 -1.219,4.044 0,0.844 0.104,1.721 0.299,2.605z"/>
     <g style="clip-path:url(#id26)">
      <image x="103.832" y="419.322" width="26.923" height="45.044" xlink:href="img_contato_Images\img_contato_ImgID27.png"/>
     </g>
     <path class="fil38" d="M122.859 446.521l-8.893 -0.794 -2.151 -7.041 0 0 -0.404 -1.325 -4.879 -15.982c0.033,0.022 0.065,0.042 0.099,0.065l8.085 22.578 7.884 1.492c0.074,0.334 0.159,0.671 0.259,1.007z"/>
     <g style="clip-path:url(#id27)">
      <image x="104.827" y="419.322" width="3.027" height="4.022" xlink:href="img_contato_Images\img_contato_ImgID28.png"/>
     </g>
     <polygon class="fil39" points="125.011,462.771 124.958,462.759 119.019,446.179 119.971,446.264 "/>
     <polygon class="fil40" points="111.815,438.686 99.586,436.371 99.56,436.302 111.411,437.361 "/>
     <polygon class="fil41" points="111.815,438.686 111.815,438.686 111.411,437.361 111.411,437.361 "/>
     <path class="fil11" d="M107.458 426.156c-0.61,-0.093 -1.286,-0.842 -1.509,-1.671 -0.226,-0.83 0.087,-1.426 0.698,-1.33 0.61,0.096 1.285,0.844 1.51,1.673 0.223,0.828 -0.09,1.424 -0.699,1.328z"/>
     <polygon class="fil12" points="107.257,425.306 106.844,425.086 83.703,390.891 84.528,390.336 107.257,423.92 129.986,390.336 130.81,390.891 107.669,425.086 "/>
     <path class="fil12" d="M107.257 425.306c-0.214,0 -0.405,-0.138 -0.472,-0.343l-11.287 -34.193 0.944 -0.312 10.815 32.76 10.815 -32.76 0.943 0.312 -11.286 34.193c-0.068,0.205 -0.257,0.343 -0.472,0.343z"/>
     <path class="fil42" d="M116.65 395.327c0.002,-0.003 0.006,-0.004 0.008,-0.007 0.002,0.003 0.004,0.003 0.006,0.004 -0.004,0 -0.01,0.003 -0.014,0.003zm0.008 -0.007l0 0zm-18.992 0.007c-0.006,0 -0.009,-0.003 -0.014,-0.003 0.003,-0.001 0.005,-0.001 0.007,-0.004 0.001,0.003 0.004,0.004 0.007,0.007zm-0.007 -0.007l0 0zm33.854 -5.822c0,-0.002 0,-0.004 0,-0.004 -0.144,-7.308 -1.763,-14.071 -4.431,-19.661 0.763,-1.483 1.177,-3.08 1.177,-4.745 0,-3.14 -1.475,-6.043 -3.978,-8.401 2.262,1.089 4.454,2.62 6.368,4.757 0.016,0.018 0.032,0.036 0.048,0.052 2.435,3.182 4.269,6.864 5.324,10.876 0.303,1.305 0.54,2.707 0.709,4.2 0.21,1.229 0.321,2.483 0.321,3.764 0,3.433 -0.974,7.38 -5.526,9.154 -0.004,0.001 -0.008,0.004 -0.012,0.008zm-0.816 -28.002l0 0zm-47.896 28c-0.004,-0.002 -0.008,-0.006 -0.012,-0.008 -4.781,-2.115 -5.523,-5.741 -5.523,-9.152 0,-1.279 0.111,-2.531 0.32,-3.758 0.17,-1.492 0.404,-2.889 0.705,-4.19 1.055,-4.022 2.893,-7.712 5.334,-10.898 0.106,-0.117 0.21,-0.232 0.315,-0.345 2.107,-2.26 4.537,-3.815 7.01,-4.875 -2.78,2.43 -4.437,5.49 -4.437,8.818 0,1.49 0.333,2.926 0.948,4.276 -2.804,5.679 -4.51,12.615 -4.66,20.13l0 0.002z"/>
     <path class="fil43" d="M107.266 398.063c-3.767,0 -7.547,-0.935 -9.6,-2.736 -0.003,-0.003 -0.006,-0.004 -0.007,-0.007 0.035,-6.175 0.376,-12.019 0.955,-17.25 2.667,0.848 5.64,1.32 8.772,1.32 2.962,0 5.779,-0.422 8.33,-1.183 0.571,5.195 0.906,10.992 0.942,17.113 -0.002,0.003 -0.006,0.004 -0.008,0.007 -2.035,1.843 -5.703,2.736 -9.384,2.736z"/>
     <path class="fil44" d="M102.934 351.113c-0.399,-0.279 -0.815,-0.56 -1.251,-0.836 1.776,-0.337 3.604,-0.522 5.474,-0.522 1.872,0 3.7,0.185 5.476,0.522 -0.408,0.258 -0.801,0.521 -1.172,0.782 -1.319,-0.179 -2.681,-0.273 -4.075,-0.273 -1.529,0 -3.018,0.112 -4.452,0.327z"/>
     <path class="fil45" d="M93.766 396.053c-4.755,0 -10.949,-2.31 -10.965,-6.557l0 -0.002c0.15,-7.515 1.856,-14.451 4.66,-20.13 1.766,3.865 5.859,7.023 11.153,8.706 -0.579,5.231 -0.92,11.075 -0.955,17.25l0 0c-0.002,0.003 -0.004,0.003 -0.007,0.004 -0.98,0.49 -2.357,0.729 -3.886,0.729z"/>
     <path class="fil46" d="M120.256 396.053c-1.47,0 -2.754,-0.239 -3.592,-0.729 -0.002,-0.001 -0.004,-0.001 -0.006,-0.004l0 0c-0.036,-6.121 -0.371,-11.918 -0.942,-17.113 5.291,-1.579 9.439,-4.618 11.366,-8.374 2.668,5.59 4.287,12.353 4.431,19.661 0,0 0,0.002 0,0.004 -0.321,4.245 -6.685,6.555 -11.257,6.555z"/>
     <path class="fil47" d="M83.625 361.49c4.402,-5.743 10.764,-9.831 18.058,-11.213 0.436,0.276 0.852,0.557 1.251,0.836 -4.832,0.719 -9.039,2.583 -11.984,5.157 -2.473,1.06 -4.903,2.615 -7.01,4.875 -0.105,0.113 -0.209,0.228 -0.315,0.345z"/>
     <path class="fil48" d="M130.697 361.496c-0.016,-0.016 -0.032,-0.034 -0.048,-0.052 -1.914,-2.137 -4.106,-3.668 -6.371,-4.757 -3.03,-2.858 -7.573,-4.917 -12.817,-5.628 0.371,-0.261 0.764,-0.524 1.172,-0.782 7.299,1.382 13.663,5.474 18.064,11.219l0 0z"/>
     <g style="clip-path:url(#id28)">
      <image x="100.048" y="352.214" width="25.927" height="6.014" xlink:href="img_contato_Images\img_contato_ImgID29.png"/>
     </g>
     <g style="clip-path:url(#id29)">
      <image x="84.715" y="352.413" width="45.243" height="19.157" xlink:href="img_contato_Images\img_contato_ImgID30.png"/>
     </g>
     <g style="clip-path:url(#id30)">
      <image x="97.061" y="353.21" width="20.351" height="27.918" xlink:href="img_contato_Images\img_contato_ImgID31.png"/>
     </g>
     <g style="clip-path:url(#id31)">
      <image x="101.044" y="349.426" width="11.59" height="7.009" xlink:href="img_contato_Images\img_contato_ImgID32.png"/>
     </g>
     <g style="clip-path:url(#id32)">
      <image x="85.711" y="353.21" width="23.139" height="26.126" xlink:href="img_contato_Images\img_contato_ImgID33.png"/>
     </g>
     <g style="clip-path:url(#id33)">
      <image x="105.823" y="353.21" width="23.139" height="26.126" xlink:href="img_contato_Images\img_contato_ImgID34.png"/>
     </g>
     <g style="clip-path:url(#id34)">
      <image x="89.494" y="349.426" width="19.356" height="8.802" xlink:href="img_contato_Images\img_contato_ImgID35.png"/>
     </g>
     <g style="clip-path:url(#id35)">
      <image x="105.823" y="349.426" width="20.152" height="8.802" xlink:href="img_contato_Images\img_contato_ImgID36.png"/>
     </g>
     <path class="fil49" d="M135.235 456.667c0.031,-0.017 0.064,-0.034 0.094,-0.051 1.59,-0.688 2.594,-2.46 2.594,-5.081 0,-4.834 -3.415,-10.725 -7.629,-13.158 -1.228,-0.709 -2.389,-1.045 -3.419,-1.045 -0.661,0 -1.266,0.139 -1.798,0.406 0.081,-0.024 0.165,-0.044 0.249,-0.062 -0.43,0.125 -0.826,0.325 -1.179,0.591 0.05,-0.077 0.142,-0.161 0.283,-0.252 0.032,-0.022 0.068,-0.045 0.105,-0.067l2.565 -1.463c0.558,-0.303 1.199,-0.46 1.902,-0.46 1.03,0 2.192,0.337 3.423,1.047 4.214,2.434 7.629,8.324 7.629,13.16 0,2.361 -0.815,4.034 -2.141,4.842l-2.304 1.428c-0.15,0.081 -0.271,0.137 -0.374,0.165z"/>
     <path class="fil50" d="M133.353 457.115c-1.03,0 -2.192,-0.336 -3.423,-1.047 -0.006,-0.005 -0.01,-0.006 -0.014,-0.008 -0.147,-0.086 -0.295,-0.175 -0.44,-0.269l0 0c-0.171,-0.11 -0.341,-0.227 -0.508,-0.347 -2.777,-2.005 -5.092,-5.456 -6.109,-8.923 -0.1,-0.336 -0.185,-0.673 -0.259,-1.007 -0.195,-0.884 -0.299,-1.761 -0.299,-2.605 0,-1.75 0.448,-3.123 1.219,-4.044 0.135,-0.162 0.283,-0.311 0.438,-0.446l0 0c0.062,-0.052 0.124,-0.104 0.189,-0.152 0.353,-0.266 0.749,-0.466 1.179,-0.591 0.283,-0.06 0.579,-0.09 0.886,-0.09 1.029,0 2.193,0.336 3.425,1.048 4.212,2.433 7.627,8.323 7.627,13.158 0,2.515 -0.926,4.248 -2.407,4.988 0.161,-0.043 0.32,-0.099 0.472,-0.164 -0.03,0.017 -0.063,0.034 -0.094,0.051 -0.554,0.294 -1.187,0.448 -1.882,0.448z"/>
     <g style="clip-path:url(#id36)">
      <image x="123.944" y="435.452" width="15.572" height="22.144" xlink:href="img_contato_Images\img_contato_ImgID37.png"/>
     </g>
     <g style="clip-path:url(#id37)">
      <image x="123.944" y="436.447" width="15.572" height="22.144" xlink:href="img_contato_Images\img_contato_ImgID38.png"/>
     </g>
     <path class="fil3" d="M127.036 450.351l-0.085 -0.283 0 -0.721c0,-0.259 0.101,-0.418 0.303,-0.476l1.881 -1.059c0.572,-0.187 1.012,-0.357 1.323,-0.504 0.308,-0.15 0.539,-0.319 0.692,-0.506 0.154,-0.189 0.229,-0.418 0.229,-0.685 0,-0.434 -0.101,-0.834 -0.302,-1.201 -0.199,-0.364 -0.506,-0.665 -0.916,-0.902 -0.403,-0.231 -0.719,-0.276 -0.948,-0.137 -0.229,0.139 -0.37,0.41 -0.428,0.81l-0.14 0.164 -0.223 -0.054 -1.085 -0.627 -0.181 -0.188 -0.072 -0.249c0.016,-0.536 0.148,-0.969 0.393,-1.304 0.245,-0.332 0.597,-0.514 1.055,-0.539 0.458,-0.026 0.998,0.139 1.617,0.497 0.643,0.372 1.191,0.815 1.641,1.329 0.45,0.513 0.788,1.057 1.013,1.63 0.225,0.574 0.339,1.141 0.339,1.705 0,0.617 -0.151,1.091 -0.452,1.42 -0.303,0.331 -0.772,0.597 -1.408,0.802l-1.677 0.984 3.416 1.972 0.216 0.221 0.086 0.298 0 0.998 -0.086 0.193 -0.216 -0.036 -5.78 -3.335 -0.205 -0.217z"/>
    </g>
   </g>
  </g>
 </g>
</svg>
