<?xml version="1.0" encoding="UTF-8"?>
<!DOCTYPE svg PUBLIC "-//W3C//DTD SVG 1.1//EN" "http://www.w3.org/Graphics/SVG/1.1/DTD/svg11.dtd">
<!-- Creator: CorelDRAW 2020 (64 Bit) -->
<svg xmlns="http://www.w3.org/2000/svg" xml:space="preserve" width="120px" height="42px" version="1.1" style="shape-rendering:geometricPrecision; text-rendering:geometricPrecision; image-rendering:optimizeQuality; fill-rule:evenodd; clip-rule:evenodd"
viewBox="0 0 120 42.36"
 xmlns:xlink="http://www.w3.org/1999/xlink"
 xmlns:xodm="http://www.corel.com/coreldraw/odm/2003">
 <defs>
  <style type="text/css">
   <![CDATA[
    .fil0 {fill:#C211A0}
    .fil4 {fill:white}
    .fil5 {fill:#4E1A96;fill-rule:nonzero}
    .fil2 {fill:#C211A0;fill-rule:nonzero}
    .fil3 {fill:white;fill-rule:nonzero}
    .fil1 {fill:url(#id0)}
   ]]>
  </style>
  <linearGradient id="id0" gradientUnits="userSpaceOnUse" x1="24" y1="19.6" x2="36" y2="31.599">
   <stop offset="0" style="stop-opacity:1; stop-color:#190451"/>
   <stop offset="1" style="stop-opacity:1; stop-color:#C211A0"/>
  </linearGradient>
 </defs>
 <g id="Camada_x0020_1">
  <metadata id="CorelCorpID_0Corel-Layer"/>
  <g id="_2106796369248">
   <g>
    <g>
     <path class="fil0" d="M3.247 4.026l0.547 0 0 0.547 0.369 0 0 -0.547 0.547 0 0 -0.375 -0.547 0 -0.369 0 -0.547 0 0 0.375zm9.938 3.739l6.638 0c2.263,0 3.994,0.498 5.194,1.496 1.198,0.996 1.798,2.474 1.798,4.432 0,1.993 -0.6,3.504 -1.798,4.534 -1.2,1.032 -2.931,1.546 -5.194,1.546l-6.638 0 0 -3.238 -8.007 0 0 20.062 8.007 0 0 -10.133 7.042 0c4.493,0 7.982,-1.142 10.464,-3.422 2.484,-2.281 3.724,-5.479 3.724,-9.6 0,-3.919 -1.233,-6.953 -3.698,-9.096 -2.467,-2.146 -5.964,-3.219 -10.49,-3.219l-6.499 0 0 1.635 -1.111 0 0 -1.635 -1.789 0 0 1.075 1.093 0 0 0.75 -1.093 0 0 1.089 -0.739 0 0 -1.089 -1.096 0 0 -0.75 1.096 0 0 -1.075 -1.757 0 0 0.135 0.545 0 0 0.375 -0.545 0 -0.372 0 -0.547 0 0 -0.375 0.547 0 0 -0.135 -2.04 0 0 0.428 1.09 0 0 0.749 -1.09 0 0 1.089 -0.742 0 0 3.669 0.343 0 0 -0.546 0.369 0 0 0.546 0.545 0 0 0.375 -0.545 0 0 0.328 2.748 0 0 -0.489 -1.097 0 0 -0.749 1.097 0 0 -1.095 0.742 0 0 1.095 1.089 0 0 0.749 -1.089 0 0 0.489 2.239 0 0 -1.622 -1.646 0 0 -1.123 1.646 0 0 -1.644 1.112 0 0 1.644 0 1.123 0 1.622 0.453 0 0.001 0zm-1.164 -6.461l0.274 0 0 0.274 -0.274 0 0 -0.274zm-2.006 2.931l0.274 0 0 0.274 -0.274 0 0 -0.274zm-4.586 0.355l0.274 0 0 0.274 -0.274 0 0 -0.274zm0.422 0.926l0.274 0 0 0.271 -0.274 0 0 -0.271zm9.057 -0.624l0 0.35 0 0.35 -0.467 0 0 -0.35 0 -0.35 0 -0.35 0.467 0 0 0.35zm-1.384 0.14l0.468 0 0 0.468 -0.468 0 0 -0.468zm-0.593 -0.982l0.468 0 0 0.468 -0.468 0 0 -0.468zm-5.309 -1.927l0.398 0 0 0.398 -0.398 0 0 -0.398zm1.109 2.124l0.627 0 0 0.624 -0.627 0 0 -0.624zm-3.317 -0.504l0.398 0 0 0.401 -0.398 0 0 -0.401zm0.872 -1.02l0.539 0 0 0.54 -0.539 0 0 -0.54zm9.765 1.246l0.984 0 0 0.986 -0.984 0 0 -0.986zm-2.121 -0.982l0.936 0 0 0.936 -0.936 0 0 -0.936zm-6.295 2.138l-0.763 0 0 -0.768 -0.521 0 0 0.768 0 0.524 0 0.762 0.521 0 0 -0.762 0.763 0 0 -0.524zm-2.456 2.311l0 0.329 0.343 0 0 -0.329 -0.343 0zm3.245 -3.858l0 -0.55 -0.372 0 0 0.55 -0.547 0 0 0.374 0.547 0 0 0.545 0.372 0 0 -0.545 0 -0.374zm-5.535 -0.814l0.272 0 0 0.274 -0.272 0 0 -0.274zm-0.962 3.873l0.274 0 0 0.271 -0.274 0 0 -0.271zm1.188 -1.653l0.273 0 0 0.273 -0.273 0 0 -0.273zm-2.16 1.322l0 0.42 0 0.417 -0.336 0 0 -0.417 0 -0.42 0 -0.42 0.336 0 0 0.42zm1.798 -4.579l0 -0.55 -0.37 0 0 0.55 -0.547 0 0 0.375 0.547 0 0 0.545 0.37 0 0 -0.545 0 -0.375zm-1.839 1.498l-0.545 0 0 -0.55 -0.369 0 0 0.55 0 0.372 0 0.547 0.369 0 0 -0.547 0.545 0 0 -0.372zm4.399 -1.527l0 -0.876 -0.593 0 0 0.876 -0.878 0 0 0.6 0.878 0 0 0.87 0.593 0 0 -0.87 0 -0.6zm-2.95 2.131l-0.326 0 0 -0.328 -0.221 0 0 0.328 -0.331 0 0 0.226 0.331 0 0.221 0 0.326 0 0 -0.226zm0.073 1.246l-0.545 0 -0.372 0 -0.547 0 0 0.375 0.547 0 0 0.545 0.372 0 0 -0.545 0.545 0 0 -0.375zm2.271 1.416l-0.763 0 0 -0.768 -0.519 0 0 0.768 0 0.523 0 0.764 0.519 0 0 -0.764 0.763 0 0 -0.523z"/>
     <polygon class="fil1" points="34.958,23.512 30.931,23.512 30.931,19.458 28.188,19.458 28.188,23.512 24.135,23.512 24.135,26.279 28.188,26.279 28.188,30.309 30.931,30.309 30.931,26.279 34.958,26.279 "/>
    </g>
    <path class="fil2" d="M39.434 22.516l4.03 0 0 14.081 -4.03 0 0 -14.081zm1.988 -6.258c0.646,0 1.174,0.212 1.584,0.629 0.41,0.418 0.614,0.96 0.614,1.623 0,0.665 -0.204,1.205 -0.614,1.625 -0.41,0.417 -0.939,0.626 -1.584,0.626 -0.627,0 -1.147,-0.213 -1.558,-0.64 -0.408,-0.427 -0.614,-0.965 -0.614,-1.61 0,-0.662 0.207,-1.205 0.614,-1.623 0.411,-0.417 0.932,-0.628 1.558,-0.628l0 -0.002zm4.502 6.258l4.608 0 2.59 4.267 2.747 -4.267 4.397 0 -4.476 6.856 4.791 7.225 -4.632 0 -2.827 -4.606 -3.089 4.606 -4.449 0 4.869 -7.198 -4.529 -6.883zm22.169 -0.133c2.268,0 3.991,0.655 5.169,1.963 1.179,1.311 1.767,3.132 1.767,5.473 0,0.417 -0.008,0.742 -0.027,0.967l-10.101 0c0.226,0.89 0.662,1.584 1.308,2.081 0.646,0.497 1.423,0.746 2.331,0.746 0.662,0 1.297,-0.127 1.91,-0.379 0.609,-0.252 1.159,-0.624 1.646,-1.114l2.122 2.145c-0.715,0.804 -1.582,1.419 -2.605,1.846 -1.019,0.43 -2.159,0.641 -3.415,0.641 -1.483,0 -2.779,-0.295 -3.887,-0.889 -1.107,-0.593 -1.964,-1.43 -2.564,-2.512 -0.602,-1.082 -0.904,-2.33 -0.904,-3.745 0,-1.43 0.304,-2.69 0.917,-3.782 0.612,-1.089 1.467,-1.935 2.565,-2.537 1.097,-0.603 2.355,-0.904 3.768,-0.904l0 0zm3.141 6.023c-0.036,-0.927 -0.331,-1.669 -0.891,-2.225 -0.558,-0.559 -1.297,-0.841 -2.225,-0.841 -0.87,0 -1.601,0.276 -2.186,0.826 -0.583,0.55 -0.952,1.296 -1.111,2.24l6.413 0zm6.57 -11.23l4.032 0 0 19.421 -4.032 0 0 -19.421zm16.934 9.475c-0.769,-0.437 -1.527,-0.77 -2.275,-1.007 -0.751,-0.236 -1.423,-0.354 -2.018,-0.354 -0.488,0 -0.881,0.087 -1.176,0.262 -0.298,0.175 -0.446,0.437 -0.446,0.784 0,0.384 0.201,0.68 0.602,0.891 0.401,0.209 1.056,0.444 1.963,0.706 0.996,0.298 1.814,0.591 2.46,0.878 0.648,0.289 1.205,0.715 1.676,1.282 0.47,0.566 0.708,1.312 0.708,2.239 0,1.394 -0.538,2.482 -1.61,3.257 -1.073,0.777 -2.449,1.163 -4.124,1.163 -1.149,0 -2.258,-0.17 -3.323,-0.508 -1.064,-0.341 -1.99,-0.826 -2.775,-1.452l1.31 -2.725c0.715,0.559 1.513,0.992 2.396,1.297 0.881,0.304 1.714,0.458 2.498,0.458 0.54,0 0.973,-0.092 1.297,-0.276 0.322,-0.182 0.484,-0.456 0.484,-0.824 0,-0.401 -0.207,-0.714 -0.617,-0.941 -0.41,-0.227 -1.067,-0.472 -1.976,-0.734 -0.959,-0.278 -1.758,-0.559 -2.395,-0.837 -0.636,-0.279 -1.181,-0.702 -1.637,-1.27 -0.453,-0.566 -0.679,-1.304 -0.679,-2.211 0,-1.397 0.524,-2.479 1.569,-3.247 1.049,-0.766 2.374,-1.152 3.98,-1.152 0.959,0 1.917,0.137 2.88,0.408 0.958,0.269 1.831,0.658 2.616,1.164l-1.387 2.747 -0.001 0.002z"/>
    <path class="fil3" d="M42.797 10.734c-0.144,-0.174 -0.315,-0.31 -0.509,-0.409 -0.197,-0.098 -0.394,-0.148 -0.59,-0.148 -0.238,0 -0.454,0.06 -0.651,0.175 -0.199,0.118 -0.353,0.275 -0.465,0.478 -0.112,0.201 -0.171,0.424 -0.171,0.672 0,0.245 0.059,0.471 0.171,0.672 0.112,0.204 0.267,0.365 0.465,0.483 0.197,0.119 0.413,0.179 0.651,0.179 0.189,0 0.382,-0.045 0.579,-0.137 0.193,-0.091 0.368,-0.211 0.52,-0.364l0.562 0.609c-0.226,0.233 -0.49,0.417 -0.795,0.557 -0.302,0.137 -0.607,0.204 -0.914,0.204 -0.416,0 -0.792,-0.096 -1.131,-0.285 -0.335,-0.193 -0.602,-0.454 -0.794,-0.789 -0.194,-0.335 -0.291,-0.707 -0.291,-1.116 0,-0.408 0.099,-0.776 0.295,-1.107 0.197,-0.328 0.468,-0.591 0.811,-0.78 0.346,-0.187 0.728,-0.283 1.145,-0.283 0.307,0 0.61,0.064 0.907,0.189 0.298,0.127 0.55,0.301 0.761,0.519l-0.557 0.682 0.001 -0.001zm3.727 2.904l-0.669 -1.207 -0.092 0 -0.88 0 0 1.207 -0.956 0 0 -4.226 1.836 0c0.553,0 0.977,0.127 1.279,0.384 0.302,0.254 0.454,0.617 0.454,1.082 0,0.326 -0.068,0.605 -0.202,0.837 -0.134,0.231 -0.331,0.408 -0.59,0.528l0.9 1.394 -1.081 0 0.001 0.001zm-1.641 -2.004l0.88 0c0.267,0 0.471,-0.062 0.612,-0.185 0.145,-0.122 0.216,-0.302 0.216,-0.539 0,-0.234 -0.071,-0.41 -0.216,-0.528 -0.141,-0.12 -0.345,-0.178 -0.612,-0.178l-0.88 0 0 1.43zm3.417 -2.222l0.953 0 0 4.226 -0.953 0 0 -4.226zm5.011 4.226l-0.331 -0.821 -1.956 0 -0.333 0.821 -0.985 0 1.836 -4.226 0.984 0 1.807 4.226 -1.022 0zm-1.973 -1.587l1.335 0 -0.665 -1.643 -0.67 1.643zm6.946 0.893c-0.197,0.207 -0.427,0.375 -0.689,0.504 -0.261,0.133 -0.53,0.214 -0.803,0.245l-0.104 0.272c0.171,0.038 0.295,0.098 0.375,0.185 0.082,0.086 0.12,0.189 0.12,0.305 0,0.185 -0.07,0.326 -0.212,0.422 -0.139,0.098 -0.316,0.146 -0.531,0.146 -0.206,0 -0.417,-0.044 -0.633,-0.127l0.156 -0.453c0.11,0.041 0.218,0.06 0.326,0.06 0.072,0 0.133,-0.012 0.178,-0.039 0.048,-0.026 0.07,-0.057 0.07,-0.093 0,-0.048 -0.027,-0.086 -0.084,-0.111 -0.056,-0.026 -0.133,-0.041 -0.228,-0.041l-0.164 0 0.174 -0.537c-0.36,-0.048 -0.684,-0.174 -0.967,-0.375 -0.283,-0.201 -0.506,-0.458 -0.668,-0.77 -0.163,-0.312 -0.242,-0.653 -0.242,-1.022 0,-0.408 0.098,-0.776 0.295,-1.107 0.197,-0.328 0.468,-0.591 0.813,-0.78 0.343,-0.187 0.725,-0.283 1.145,-0.283 0.305,0 0.607,0.064 0.904,0.189 0.298,0.127 0.553,0.301 0.762,0.519l-0.555 0.682c-0.146,-0.174 -0.316,-0.31 -0.511,-0.409 -0.195,-0.098 -0.391,-0.148 -0.591,-0.148 -0.237,0 -0.453,0.059 -0.65,0.175 -0.197,0.117 -0.353,0.275 -0.465,0.478 -0.113,0.201 -0.168,0.424 -0.168,0.672 0,0.245 0.055,0.471 0.168,0.672 0.112,0.204 0.268,0.365 0.465,0.483 0.197,0.119 0.413,0.179 0.65,0.179 0.19,0 0.384,-0.045 0.579,-0.137 0.197,-0.091 0.369,-0.211 0.523,-0.364l0.562 0.609 0 -0.001zm3.645 0.694l-0.331 -0.821 -1.956 0 -0.333 0.821 -0.984 0 1.836 -4.226 0.984 0 1.807 4.226 -1.023 0zm-1.974 -1.587l1.337 0 -0.665 -1.643 -0.672 1.643zm1.739 -3.873c0,0.289 -0.043,0.509 -0.129,0.665 -0.086,0.159 -0.228,0.235 -0.425,0.235 -0.089,0 -0.173,-0.014 -0.254,-0.045 -0.079,-0.029 -0.175,-0.072 -0.283,-0.127 -0.048,-0.029 -0.096,-0.053 -0.146,-0.072 -0.048,-0.022 -0.089,-0.031 -0.119,-0.031 -0.061,0 -0.101,0.019 -0.127,0.063 -0.024,0.044 -0.039,0.108 -0.041,0.197l-0.55 0c0,-0.291 0.044,-0.514 0.13,-0.67 0.086,-0.158 0.227,-0.234 0.424,-0.234 0.089,0 0.173,0.014 0.254,0.045 0.079,0.029 0.175,0.071 0.283,0.13 0.125,0.071 0.213,0.107 0.267,0.107 0.06,0 0.103,-0.023 0.127,-0.067 0.024,-0.043 0.038,-0.108 0.041,-0.194l0.55 0 -0.002 -0.002zm3.553 1.167c0.422,0 0.806,0.096 1.154,0.283 0.346,0.189 0.62,0.451 0.819,0.785 0.199,0.331 0.297,0.701 0.297,1.106 0,0.409 -0.098,0.777 -0.297,1.112 -0.2,0.335 -0.473,0.597 -0.819,0.789 -0.348,0.189 -0.732,0.285 -1.154,0.285 -0.423,0 -0.807,-0.096 -1.155,-0.285 -0.346,-0.193 -0.617,-0.454 -0.818,-0.785 -0.2,-0.334 -0.298,-0.706 -0.298,-1.116 0,-0.405 0.098,-0.775 0.298,-1.106 0.201,-0.334 0.472,-0.596 0.816,-0.785 0.343,-0.187 0.729,-0.283 1.157,-0.283zm0.011 0.833c-0.233,0 -0.45,0.059 -0.653,0.179 -0.201,0.118 -0.36,0.281 -0.478,0.487 -0.115,0.204 -0.173,0.43 -0.173,0.674 0,0.25 0.058,0.478 0.178,0.684 0.118,0.204 0.278,0.368 0.475,0.487 0.201,0.123 0.418,0.183 0.65,0.183 0.235,0 0.449,-0.06 0.644,-0.178 0.197,-0.12 0.35,-0.283 0.465,-0.49 0.115,-0.207 0.173,-0.437 0.173,-0.687 0,-0.244 -0.058,-0.471 -0.173,-0.673 -0.115,-0.208 -0.268,-0.37 -0.465,-0.488 -0.195,-0.119 -0.409,-0.179 -0.644,-0.179l0.001 0.001zm6.096 -0.766c0.43,0 0.814,0.089 1.152,0.269 0.338,0.177 0.6,0.429 0.787,0.749 0.187,0.319 0.284,0.686 0.284,1.096 0,0.411 -0.098,0.776 -0.289,1.095 -0.192,0.322 -0.458,0.572 -0.802,0.75 -0.341,0.179 -0.732,0.268 -1.171,0.268l-1.757 0 0 -4.226 1.795 0 0.001 -0.001zm0.022 3.424c0.235,0 0.446,-0.055 0.631,-0.166 0.187,-0.111 0.334,-0.266 0.439,-0.463 0.104,-0.197 0.156,-0.423 0.156,-0.677 0,-0.252 -0.055,-0.48 -0.166,-0.681 -0.111,-0.202 -0.261,-0.358 -0.453,-0.468 -0.193,-0.111 -0.409,-0.166 -0.648,-0.166l-0.821 0 0 2.62 0.862 0 0 0.001zm2.827 -3.424l3.218 0 0 0.792 -2.263 0 0 0.917 2.036 0 0 0.792 -2.036 0 0 0.936 2.331 0 0 0.789 -3.286 0 0 -4.226zm8.232 1.178c-0.218,-0.134 -0.449,-0.24 -0.691,-0.319 -0.245,-0.077 -0.454,-0.115 -0.627,-0.115 -0.163,0 -0.295,0.029 -0.391,0.089 -0.096,0.06 -0.146,0.148 -0.146,0.266 0,0.149 0.072,0.261 0.209,0.342 0.138,0.078 0.353,0.16 0.643,0.245 0.29,0.084 0.528,0.17 0.715,0.254 0.186,0.084 0.348,0.211 0.482,0.379 0.133,0.17 0.2,0.393 0.2,0.669 0,0.271 -0.072,0.504 -0.216,0.698 -0.142,0.197 -0.339,0.343 -0.588,0.444 -0.249,0.101 -0.533,0.151 -0.852,0.151 -0.343,0 -0.679,-0.059 -1.008,-0.179 -0.331,-0.123 -0.616,-0.289 -0.859,-0.497l0.382 -0.78c0.214,0.194 0.459,0.35 0.737,0.465 0.278,0.118 0.532,0.175 0.761,0.175 0.197,0 0.35,-0.033 0.464,-0.108 0.11,-0.072 0.166,-0.178 0.166,-0.315 0,-0.108 -0.039,-0.197 -0.113,-0.268 -0.075,-0.07 -0.168,-0.127 -0.283,-0.173 -0.115,-0.044 -0.274,-0.094 -0.475,-0.149 -0.289,-0.082 -0.526,-0.163 -0.709,-0.242 -0.185,-0.079 -0.341,-0.202 -0.475,-0.37 -0.133,-0.163 -0.2,-0.383 -0.2,-0.657 0,-0.254 0.07,-0.476 0.207,-0.668 0.137,-0.192 0.329,-0.338 0.574,-0.441 0.244,-0.101 0.53,-0.154 0.857,-0.154 0.29,0 0.576,0.044 0.857,0.127 0.283,0.084 0.532,0.197 0.749,0.338l-0.367 0.793 -0.003 0zm1.063 -1.178l0.955 0 0 4.226 -0.955 0 0 -4.226zm1.474 0l3.533 0 0 0.809 -1.29 0 0 3.418 -0.956 0 0 -3.418 -1.286 0 0 -0.809 -0.001 0zm4.047 0l3.218 0 0 0.792 -2.266 0 0 0.917 2.038 0 0 0.792 -2.038 0 0 0.936 2.333 0 0 0.789 -3.285 0 0 -4.226zm6.818 1.178c-0.215,-0.134 -0.449,-0.24 -0.691,-0.319 -0.245,-0.077 -0.453,-0.115 -0.624,-0.115 -0.166,0 -0.297,0.029 -0.394,0.089 -0.098,0.06 -0.146,0.148 -0.146,0.266 0,0.149 0.072,0.261 0.209,0.342 0.139,0.078 0.353,0.16 0.643,0.245 0.291,0.084 0.528,0.17 0.718,0.254 0.185,0.084 0.345,0.211 0.478,0.379 0.134,0.17 0.201,0.393 0.201,0.669 0,0.271 -0.072,0.504 -0.216,0.698 -0.141,0.197 -0.338,0.343 -0.588,0.444 -0.249,0.101 -0.532,0.151 -0.851,0.151 -0.343,0 -0.677,-0.059 -1.008,-0.179 -0.331,-0.123 -0.617,-0.289 -0.859,-0.497l0.382 -0.78c0.213,0.194 0.458,0.35 0.736,0.465 0.279,0.118 0.533,0.175 0.761,0.175 0.197,0 0.351,-0.033 0.464,-0.108 0.11,-0.072 0.166,-0.178 0.166,-0.315 0,-0.108 -0.038,-0.197 -0.113,-0.268 -0.074,-0.07 -0.168,-0.127 -0.283,-0.173 -0.115,-0.044 -0.271,-0.094 -0.472,-0.149 -0.291,-0.082 -0.528,-0.163 -0.71,-0.242 -0.186,-0.079 -0.342,-0.202 -0.476,-0.37 -0.132,-0.163 -0.2,-0.383 -0.2,-0.657 0,-0.254 0.07,-0.476 0.207,-0.668 0.137,-0.192 0.327,-0.338 0.574,-0.441 0.245,-0.101 0.53,-0.154 0.857,-0.154 0.29,0 0.576,0.044 0.859,0.127 0.281,0.084 0.531,0.197 0.746,0.338l-0.367 0.793 -0.003 0z"/>
   </g>
   <g>
    <ellipse class="fil4" cx="105.704" cy="36.388" rx="14.297" ry="6.79"/>
    <polygon class="fil5" points="103.509,33.719 104.756,33.719 102.946,39.061 101.7,39.061 100.58,35.207 99.442,39.061 98.206,39.061 96.404,33.719 97.701,33.719 98.861,37.794 100.013,33.719 101.198,33.719 102.365,37.794 "/>
    <polygon id="_1" class="fil5" points="105.344,33.719 109.411,33.719 109.411,34.72 106.548,34.72 106.548,35.879 109.121,35.879 109.121,36.879 106.548,36.879 106.548,38.063 109.495,38.063 109.495,39.061 105.344,39.061 "/>
    <path id="_2" class="fil5" d="M112.899 33.719c0.59,0 1.056,0.12 1.397,0.36 0.341,0.238 0.511,0.564 0.511,0.977 0,0.283 -0.081,0.533 -0.247,0.744 -0.166,0.212 -0.391,0.356 -0.677,0.43 0.348,0.067 0.62,0.22 0.818,0.463 0.197,0.243 0.298,0.539 0.298,0.889 0,0.458 -0.18,0.821 -0.543,1.084 -0.363,0.265 -0.851,0.397 -1.474,0.397l-2.542 0 0 -5.343 2.458 0 0.001 -0.001zm-0.06 2.153c0.227,0 0.408,-0.053 0.538,-0.156 0.129,-0.105 0.194,-0.252 0.194,-0.439 0,-0.185 -0.065,-0.327 -0.194,-0.428 -0.13,-0.103 -0.309,-0.151 -0.538,-0.146l-1.19 0 0 1.169 1.19 0 0 0zm0 2.205c0.283,0 0.509,-0.058 0.672,-0.173 0.161,-0.113 0.242,-0.272 0.242,-0.476 0,-0.194 -0.081,-0.345 -0.242,-0.458 -0.163,-0.112 -0.389,-0.166 -0.672,-0.16l-1.19 0 0 1.267 1.19 0z"/>
   </g>
  </g>
 </g>
</svg>
