<?xml version="1.0" encoding="UTF-8"?>
<!DOCTYPE svg PUBLIC "-//W3C//DTD SVG 1.1//EN" "http://www.w3.org/Graphics/SVG/1.1/DTD/svg11.dtd">
<!-- Creator: CorelDRAW 2020 (64 Bit) -->
<svg xmlns="http://www.w3.org/2000/svg" xml:space="preserve" width="1123px" height="1587px" version="1.1" style="shape-rendering:geometricPrecision; text-rendering:geometricPrecision; image-rendering:optimizeQuality; fill-rule:evenodd; clip-rule:evenodd"
viewBox="0 0 1123 1588.081"
 xmlns:xlink="http://www.w3.org/1999/xlink"
 xmlns:xodm="http://www.corel.com/coreldraw/odm/2003">
 <defs>
  <style type="text/css">
   <![CDATA[
    .fil1 {fill:#2796DB}
    .fil2 {fill:#2796DB;fill-rule:nonzero}
    .fil3 {fill:url(#id0)}
    .fil0 {fill:url(#id1)}
   ]]>
  </style>
  <linearGradient id="id0" gradientUnits="userSpaceOnUse" x1="755.489" y1="851.057" x2="1039.971" y2="1139.456">
   <stop offset="0" style="stop-opacity:1; stop-color:#1E73A8"/>
   <stop offset="1" style="stop-opacity:1; stop-color:#2796DB"/>
  </linearGradient>
  <linearGradient id="id1" gradientUnits="userSpaceOnUse" x1="140.514" y1="364.569" x2="1006.886" y2="1057.666">
   <stop offset="0" style="stop-opacity:1; stop-color:#2796DB"/>
   <stop offset="0.839216" style="stop-opacity:1; stop-color:#49A5DE"/>
   <stop offset="1" style="stop-opacity:1; stop-color:#6CB4E1"/>
  </linearGradient>
 </defs>
 <g id="Camada_x0020_1">
  <metadata id="CorelCorpID_0Corel-Layer"/>
  <path class="fil0" d="M459.088 535.212l157.164 0c53.588,0 94.579,11.797 122.973,35.391 28.393,23.595 42.59,58.587 42.59,104.976 0,47.19 -14.197,82.981 -42.59,107.376 -28.394,24.395 -69.385,36.592 -122.973,36.592l-157.164 0 0 -76.691 -189.556 0 0 474.999 189.556 0 0 -239.944 166.763 0c106.375,0 188.956,-26.995 247.742,-80.982 58.787,-53.988 88.18,-129.771 88.18,-227.348 0,-92.779 -29.193,-164.563 -87.58,-215.351 -58.386,-50.789 -141.167,-76.182 -248.342,-76.182l-153.904 0 0 38.694 -26.341 0 0 -38.694 -42.272 0 0 25.493 25.797 0 0 17.717 -25.797 0 0 25.797 -17.561 0 0 -25.797 -25.952 0 0 -17.717 25.952 0 0 -25.493 -41.578 0 0 3.184 12.899 0 0 8.858 -12.899 0 -8.78 0 -12.976 0 0 -8.858 12.976 0 0 -3.184 -48.335 0 0 10.113 25.797 0 0 17.716 -25.797 0 0 25.797 -17.548 0 0 86.899 8.118 0 0 -12.976 8.78 0 0 12.976 12.899 0 0 8.857 -12.899 0 0 7.782 65.058 0 0 -11.574 -25.952 0 0 -17.716 25.952 0 0 -25.952 17.561 0 0 25.952 25.797 0 0 17.716 -25.797 0 0 11.574 52.977 0 0 -38.423 -38.928 0 0 -26.575 38.928 0 0 -38.928 26.342 0 0 38.928 0 26.575 0 38.423 10.72 0zm-27.529 -152.933l6.452 0 0 6.452 -6.452 0 0 -6.452zm-47.509 69.38l6.452 0 0 6.452 -6.452 0 0 -6.452zm-108.597 8.403l6.452 0 0 6.452 -6.452 0 0 -6.452zm9.987 21.905l6.452 0 0 6.453 -6.452 0 0 -6.453zm214.482 -14.747l0 8.292 0 8.291 -11.08 0 0 -8.291 0 -8.292 0 -8.29 11.08 0 0 8.29zm-32.78 3.285l11.08 0 0 11.081 -11.08 0 0 -11.081zm-14.06 -23.228l11.081 0 0 11.08 -11.081 0 0 -11.08zm-125.724 -45.65l9.462 0 0 9.462 -9.462 0 0 -9.462zm26.278 50.269l14.81 0 0 14.811 -14.81 0 0 -14.811zm-78.544 -11.914l9.462 0 0 9.463 -9.462 0 0 -9.463zm20.625 -24.176l12.811 0 0 12.812 -12.811 0 0 -12.812zm231.21 29.548l23.332 0 0 23.332 -23.332 0 0 -23.332zm-50.243 -23.258l22.161 0 0 22.161 -22.161 0 0 -22.161zm-149.033 50.633l-18.058 0 0 -18.167 -12.293 0 0 18.167 0 12.401 0 18.058 12.293 0 0 -18.058 18.058 0 0 -12.401zm-58.119 54.701l0 7.782 8.118 0 0 -7.782 -8.118 0zm76.803 -91.379l0 -12.976 -8.78 0 0 12.976 -12.976 0 0 8.858 12.976 0 0 12.898 8.78 0 0 -12.898 0 -8.858z"/>
  <polygon class="fil1" points="223.828,446.67 236.727,446.67 236.727,459.646 245.507,459.646 245.507,446.67 258.483,446.67 258.483,437.812 245.507,437.812 236.727,437.812 223.828,437.812 "/>
  <polygon class="fil1" points="258.341,505.025 240.283,505.025 240.283,486.858 227.991,486.858 227.991,505.025 227.991,517.425 227.991,535.483 240.283,535.483 240.283,517.425 258.341,517.425 "/>
  <polygon class="fil1" points="204.578,471.508 191.68,471.508 182.9,471.508 169.924,471.508 169.924,480.366 182.9,480.366 182.9,493.265 191.68,493.265 191.68,480.366 204.578,480.366 "/>
  <polygon class="fil1" points="202.907,442.047 195.168,442.047 195.168,434.261 189.9,434.261 189.9,442.047 182.114,442.047 182.114,447.362 189.9,447.362 195.168,447.362 202.907,447.362 "/>
  <polygon class="fil1" points="272.708,391.585 272.708,370.824 258.659,370.824 258.659,391.585 237.898,391.585 237.898,405.757 258.659,405.757 258.659,426.395 272.708,426.395 272.708,405.757 "/>
  <polygon class="fil2" points="168.556,427.688 155.657,427.688 155.657,414.711 146.877,414.711 146.877,427.688 146.877,436.545 146.877,449.444 155.657,449.444 155.657,436.545 168.556,436.545 "/>
  <polygon class="fil1" points="212.116,392.236 212.116,379.26 203.336,379.26 203.336,392.236 190.359,392.236 190.359,401.094 203.336,401.094 203.336,413.993 212.116,413.993 212.116,401.094 "/>
  <polygon class="fil3" points="974.642,908.062 879.235,908.062 879.235,812.079 814.287,812.079 814.287,908.062 718.304,908.062 718.304,973.583 814.287,973.583 814.287,1068.991 879.235,1068.991 879.235,973.583 974.642,973.583 "/>
  <polygon class="fil1" points="169.494,500.655 169.494,510.588 169.494,520.522 161.548,520.522 161.548,510.588 161.548,500.655 161.548,490.72 169.494,490.72 "/>
  <rect class="fil1" x="220.671" y="469.386" width="6.452" height="6.452"/>
  <rect class="fil1" x="192.552" y="508.507" width="6.452" height="6.452"/>
  <rect class="fil1" x="215.307" y="416.817" width="6.452" height="6.452"/>
 </g>
</svg>
