<?xml version="1.0" encoding="UTF-8"?>
<!DOCTYPE svg PUBLIC "-//W3C//DTD SVG 1.1//EN" "http://www.w3.org/Graphics/SVG/1.1/DTD/svg11.dtd">
<!-- Creator: CorelDRAW 2020 (64 Bit) -->
<svg xmlns="http://www.w3.org/2000/svg" xml:space="preserve" width="827px" height="847px" version="1.1" style="shape-rendering:geometricPrecision; text-rendering:geometricPrecision; image-rendering:optimizeQuality; fill-rule:evenodd; clip-rule:evenodd"
viewBox="0 0 827 846.251"
 xmlns:xlink="http://www.w3.org/1999/xlink"
 xmlns:xodm="http://www.corel.com/coreldraw/odm/2003">
 <defs>
  <style type="text/css">
   <![CDATA[
    .fil0 {fill:white}
    .fil1 {fill:url(#id0)}
   ]]>
  </style>
  <linearGradient id="id0" gradientUnits="userSpaceOnUse" x1="607.309" y1="480.09" x2="891.529" y2="768.222">
   <stop offset="0" style="stop-opacity:1; stop-color:#190451"/>
   <stop offset="1" style="stop-opacity:1; stop-color:#C211A0"/>
  </linearGradient>
 </defs>
 <g id="Camada_x0020_1">
  <metadata id="CorelCorpID_0Corel-Layer"/>
  <path class="fil0" d="M76.14 76.076l12.887 0 0 12.964 8.772 0 0 -12.964 12.964 0 0 -8.85 -12.964 0 -8.772 0 -12.887 0 0 8.85zm235.043 88.46l157.019 0c53.538,0 94.491,11.786 122.859,35.359 28.367,23.572 42.55,58.533 42.55,104.879 0,47.146 -14.183,82.904 -42.55,107.276 -28.368,24.372 -69.321,36.558 -122.859,36.558l-157.019 0 0 -76.619 -189.382 0 0 474.56 189.382 0 0 -239.723 166.608 0c106.277,0 188.782,-26.969 247.514,-80.907 58.733,-53.938 88.099,-129.651 88.099,-227.138 0,-92.693 -29.167,-164.411 -87.499,-215.152 -58.333,-50.742 -141.038,-76.112 -248.114,-76.112l-153.761 0 0 38.658 -26.317 0 0 -38.658 -42.233 0 0 25.47 25.773 0 0 17.7 -25.773 0 0 25.773 -17.545 0 0 -25.773 -25.928 0 0 -17.7 25.928 0 0 -25.47 -41.539 0 0 3.181 12.886 0 0 8.85 -12.886 0 -8.772 0 -12.965 0 0 -8.85 12.965 0 0 -3.181 -48.291 0 0 10.104 25.773 0 0 17.7 -25.773 0 0 25.773 -17.532 0 0 86.818 8.111 0 0 -12.964 8.772 0 0 12.964 12.887 0 0 8.85 -12.887 0 0 7.774 64.998 0 0 -11.563 -25.928 0 0 -17.7 25.928 0 0 -25.928 17.545 0 0 25.928 25.773 0 0 17.7 -25.773 0 0 11.563 52.928 0 0 -38.388 -38.892 0 0 -26.549 38.892 0 0 -38.893 26.317 0 0 38.893 0 26.549 0 38.388 10.711 0zm-27.504 -152.792l6.446 0 0 6.447 -6.446 0 0 -6.447zm-47.465 69.316l6.445 0 0 6.446 -6.445 0 0 -6.446zm-108.497 8.396l6.446 0 0 6.446 -6.446 0 0 -6.446zm9.978 21.885l6.446 0 0 6.446 -6.446 0 0 -6.446zm214.284 -14.734l0 8.284 0 8.283 -11.07 0 0 -8.283 0 -8.284 0 -8.283 11.07 0 0 8.283zm-32.75 3.282l11.07 0 0 11.07 -11.07 0 0 -11.07zm-14.047 -23.207l11.071 0 0 11.07 -11.071 0 0 -11.07zm-125.608 -45.607l9.453 0 0 9.453 -9.453 0 0 -9.453zm26.254 50.222l14.797 0 0 14.797 -14.797 0 0 -14.797zm-78.472 -11.903l9.454 0 0 9.454 -9.454 0 0 -9.454zm20.606 -24.153l12.799 0 0 12.799 -12.799 0 0 -12.799zm230.997 29.52l23.311 0 0 23.311 -23.311 0 0 -23.311zm-50.197 -23.237l22.141 0 0 22.141 -22.141 0 0 -22.141zm-148.895 50.587l-18.041 0 0 -18.15 -12.282 0 0 18.15 0 12.389 0 18.042 12.282 0 0 -18.042 18.041 0 0 -12.389zm-58.066 54.651l0 7.774 8.111 0 0 -7.774 -8.111 0zm76.733 -91.295l0 -12.964 -8.772 0 0 12.964 -12.964 0 0 8.849 12.964 0 0 12.887 8.772 0 0 -12.887 0 -8.849zm-130.908 -19.217l6.447 0 0 6.446 -6.447 0 0 -6.446zm-22.733 91.606l6.446 0 0 6.445 -6.446 0 0 -6.445zm28.093 -39.085l6.446 0 0 6.446 -6.446 0 0 -6.446zm-51.13 31.24l0 9.924 0 9.925 -7.939 0 0 -9.925 0 -9.924 0 -9.925 7.939 0 0 9.925zm42.582 -108.319l0 -12.964 -8.772 0 0 12.964 -12.964 0 0 8.85 12.964 0 0 12.887 8.772 0 0 -12.887 0 -8.85zm-43.519 35.419l-12.887 0 0 -12.964 -8.772 0 0 12.964 0 8.849 0 12.887 8.772 0 0 -12.887 12.887 0 0 -8.849zm104.055 -36.069l0 -20.742 -14.035 0 0 20.742 -20.742 0 0 14.159 20.742 0 0 20.618 14.035 0 0 -20.618 0 -14.159zm-69.736 50.415l-7.732 0 0 -7.778 -5.263 0 0 7.778 -7.778 0 0 5.31 7.778 0 5.263 0 7.732 0 0 -5.31zm1.67 29.434l-12.887 0 -8.772 0 -12.964 0 0 8.85 12.964 0 0 12.887 8.772 0 0 -12.887 12.887 0 0 -8.85zm53.713 33.486l-18.041 0 0 -18.15 -12.281 0 0 18.15 0 12.389 0 18.041 12.281 0 0 -18.041 18.041 0 0 -12.389z"/>
  <polygon class="fil1" points="826.26,537.041 730.941,537.041 730.941,441.147 666.054,441.147 666.054,537.041 570.16,537.041 570.16,602.502 666.054,602.502 666.054,697.822 730.941,697.822 730.941,602.502 826.26,602.502 "/>
 </g>
</svg>
