<?xml version="1.0" encoding="UTF-8"?>
<!DOCTYPE svg PUBLIC "-//W3C//DTD SVG 1.1//EN" "http://www.w3.org/Graphics/SVG/1.1/DTD/svg11.dtd">
<!-- Creator: CorelDRAW 2020 (64 Bit) -->
<svg xmlns="http://www.w3.org/2000/svg" xml:space="preserve" width="1920px" height="551px" version="1.1" style="shape-rendering:geometricPrecision; text-rendering:geometricPrecision; image-rendering:optimizeQuality; fill-rule:evenodd; clip-rule:evenodd"
viewBox="0 0 1920 550.99"
 xmlns:xlink="http://www.w3.org/1999/xlink"
 xmlns:xodm="http://www.corel.com/coreldraw/odm/2003">
 <defs>
  <style type="text/css">
   <![CDATA[
    .fil1 {fill:url(#id0)}
    .fil0 {fill:url(#id1)}
   ]]>
  </style>
  <linearGradient id="id0" gradientUnits="userSpaceOnUse" x1="134.047" y1="956.388" x2="1474.51" y2="3.602">
   <stop offset="0" style="stop-opacity:1; stop-color:#190451"/>
   <stop offset="0.376471" style="stop-opacity:1; stop-color:#32065D"/>
   <stop offset="0.509804" style="stop-opacity:1; stop-color:#4C0869"/>
   <stop offset="1" style="stop-opacity:1; stop-color:#5BB1D2"/>
  </linearGradient>
  <linearGradient id="id1" gradientUnits="userSpaceOnUse" xlink:href="#id0" x1="195.186" y1="1044.392" x2="2147.04" y2="-115.481">
  </linearGradient>
 </defs>
 <g id="Camada_x0020_1">
  <metadata id="CorelCorpID_0Corel-Layer"/>
  <g id="_1652033238208">
   <path class="fil0" d="M0 551.493l0 -525.38 1.28 0.121 0 0.011 0.124 0 1.668 0.166 0 0.02 0.2 0 1.336 0.142 0 0.045 0.419 0 1.373 0.154 0 0.033 0.291 0 1.246 0.147 0 0.04 0.331 0 1.46 0.18 0 0.006 0.049 0c0.924,0.117 1.847,0.238 2.768,0.364l0 0.009 0.068 0 1.211 0.168 0 0.019 0.123 0 1.157 0.166 0 0.02 0.14 0 0.884 0.131 0 0.056 0.372 0 0.908 0.138 0 0.049 0.309 0 0.971 0.152 0 0.034 0.213 0 1.067 0.174 0 0.013 0.083 0 0.941 0.155 0 0.031 0.18 0c0.709,0.119 1.416,0.241 2.124,0.366l0 0.007 0.038 0 0.986 0.175 0 0.011 0.058 0 0.966 0.176 0 0.011 0.055 0 0.97 0.18 0 0.006 0.029 0 0.738 0.14 0 0.047 0.246 0 0.778 0.151 0 0.036 0.186 0 0.838 0.166 0 0.02 0.1 0 0.668 0.133 0 0.054 0.26 0 0.765 0.155 0 0.031 0.149 0 0.875 0.183 0 0.004 0.018 0c1.968,0.414 3.925,0.846 5.87,1.301l0 0.004 0.018 0 0.75 0.176 0 0.011 0.041 0 0.726 0.172 0 0.014 0.06 0 0.709 0.172 0 0.015 0.059 0 0.709 0.173 0 0.013 0.056 0 0.711 0.176 0 0.011 0.043 0 0.726 0.182 0 0.005 0.018 0c1.193,0.3 2.383,0.608 3.565,0.925l0 0.008 0.027 0 1.253 0.338 0 0.034 0.128 0 0.641 0.177 0 0.009 0.036 0 1.244 0.347 0 0.027 0.095 0 1.184 0.335 0 0.037 0.126 0 0.642 0.184 0 0.003 0.008 0 0.504 0.148 0 0.038 0.133 0 1.147 0.339 0 0.034 0.114 0c0.818,0.244 1.633,0.492 2.446,0.744l0 0.003 0.011 0c0.595,0.184 1.188,0.369 1.781,0.557l0 0.002 0.007 0 0.505 0.16 0 0.027 0.081 0 0.432 0.138 0 0.048 0.147 0 1.132 0.368 0 0.005 0.017 0 0.495 0.163 0 0.024 0.075 0 0.438 0.145 0 0.041 0.121 0 0.39 0.131 0 0.056 0.169 0c0.542,0.182 1.084,0.365 1.624,0.551l0 0.008 0.026 0 0.485 0.168 0 0.019 0.055 0 0.458 0.159 0 0.028 0.083 0c1.691,0.588 3.37,1.193 5.036,1.813l0 0.052 0.14 0 0.372 0.14 0 0.047 0.124 0 0.388 0.146 0 0.04 0.108 0 0.405 0.153 0 0.034 0.087 0 0.424 0.161 0 0.025 0.064 0 0.448 0.172 0 0.015 0.041 0 0.472 0.182 0 0.004 0.007 0c1.719,0.665 3.422,1.348 5.112,2.048l0 0.004 0.012 0 1.268 0.529 0 0.031 0.073 0 0.44 0.183 0 0.003 0.004 0 0.764 0.325 0 0.049 0.112 0 0.399 0.169 0 0.015 0.036 0 0.732 0.318 0 0.056 0.129 0 0.383 0.167 0 0.02 0.046 0 1.234 0.543 0 0.016 0.036 0 1.244 0.557 0 0.003 0.005 0 0.919 0.417c0.452,-0.265 0.907,-0.527 1.361,-0.79l0.019 0 0 -0.011 1.279 -0.735 0.001 0 0 0 0.983 -0.561 0.041 0 0 -0.022 0.951 -0.536 0.073 0 0 -0.041 1.263 -0.705 0.017 0 0 -0.01 0.997 -0.55 0.027 0 0 -0.015c1.016,-0.558 2.039,-1.114 3.065,-1.663l0.007 0 0 -0.005c0.582,-0.311 1.164,-0.62 1.749,-0.928l0.043 0 0 -0.022 1.019 -0.538 0.005 0 0 -0.003 0.715 -0.37 0.053 0 0 -0.027c0.582,-0.304 1.169,-0.606 1.755,-0.905l0.038 0 0 -0.019c0.845,-0.432 1.694,-0.861 2.545,-1.287l0.014 0 0 -0.007 0.735 -0.367 0.033 0 0 -0.015 0.719 -0.357 0.049 0 0 -0.025 0.713 -0.348 0.055 0 0 -0.028 0.707 -0.345 0.061 0 0 -0.03 0.705 -0.343 0.063 0 0 -0.031 0.714 -0.343 0.054 0 0 -0.026 0.722 -0.347 0.046 0 0 -0.022 0.738 -0.351 0.03 0 0 -0.014 0.762 -0.358 0.006 0 0 -0.003c0.929,-0.438 1.864,-0.873 2.801,-1.303l0.015 0 0 -0.006 1.211 -0.553 0.069 0 0 -0.032 0.755 -0.342 0.013 0 0 -0.006 1.232 -0.553 0.048 0 0 -0.021 1.213 -0.539 0.067 0 0 -0.029c1.696,-0.748 3.401,-1.485 5.119,-2.209l0.001 0 0 -0.001 0.446 -0.186 0.066 0 0 -0.028 1.276 -0.531 0.005 0 0 -0.002 0.442 -0.184 0.069 0 0 -0.029c0.584,-0.241 1.17,-0.48 1.756,-0.718l0.037 0 0 -0.014c0.758,-0.308 1.52,-0.615 2.283,-0.918l0.021 0 0 -0.008c1.098,-0.438 2.2,-0.871 3.306,-1.298l0.021 0 0 -0.008 0.468 -0.179 0.045 0 0 -0.017 0.443 -0.169 0.068 0 0 -0.026 0.418 -0.161 0.094 0 0 -0.035c3.181,-1.211 6.396,-2.38 9.642,-3.508l0.086 0 0 -0.031 0.448 -0.156 0.064 0 0 -0.023 0.482 -0.164 0.03 0 0 -0.01c1.275,-0.438 2.554,-0.87 3.838,-1.295l0.002 0 0 -0.001c0.757,-0.251 1.517,-0.499 2.276,-0.745l0.028 0 0 -0.01 1.718 -0.55 0.074 0 0 -0.024 0.512 -0.162 1.184 -0.373 0.097 0 0 -0.031 0.505 -0.156 0.006 0 0 -0.002 1.197 -0.37 0.083 0 0 -0.027c0.586,-0.179 1.174,-0.357 1.761,-0.533l0.031 0 0 -0.009c1.247,-0.377 2.498,-0.747 3.753,-1.111l0.087 0 0 -0.025 1.216 -0.348 0.064 0 0 -0.018 1.247 -0.355 0.033 0 0 -0.008c0.658,-0.186 1.315,-0.37 1.976,-0.552l0.072 0 0 -0.02c1.358,-0.374 2.722,-0.739 4.09,-1.099l0.007 0 0 -0.002 0.7 -0.184 0.067 0 0 -0.018 0.65 -0.169 0.118 0 0 -0.03c0.936,-0.241 1.875,-0.481 2.816,-0.716l0.751 -0.186 0.017 0 0 -0.004 0.735 -0.184 0.033 0 0 -0.007 0.726 -0.178 0.042 0 0 -0.01 0.732 -0.177 0.036 0 0 -0.008 0.738 -0.178 0.03 0 0 -0.008c1.317,-0.315 2.638,-0.623 3.964,-0.925l0.132 0 0 -0.031 0.692 -0.156 0.076 0 0 -0.017 0.747 -0.169 0.022 0 0 -0.005c0.556,-0.123 1.116,-0.246 1.674,-0.368l0.117 0 0 -0.025 0.735 -0.162 0.033 0 0 -0.006c1.769,-0.383 3.545,-0.753 5.328,-1.112l0.048 0 0 -0.01 0.89 -0.177 0.134 0 0 -0.027c0.586,-0.116 1.172,-0.233 1.761,-0.346l0.031 0 0 -0.006 0.951 -0.181 0.073 0 0 -0.014 0.909 -0.172 0.115 0 0 -0.022c1.671,-0.314 3.349,-0.617 5.031,-0.911l0.089 0 0 -0.016 0.98 -0.17 0.044 0 0 -0.008c0.725,-0.124 1.45,-0.246 2.176,-0.366l0.128 0 0 -0.021 1.013 -0.164 0.011 0 0 -0.003 1.146 -0.184 0.134 0 0 -0.022c0.751,-0.119 1.502,-0.237 2.254,-0.351l0.05 0 0 -0.009c1.234,-0.19 2.47,-0.373 3.708,-0.551l0.132 0 0 -0.019 1.2 -0.168 0.08 0 0 -0.011 1.255 -0.175 0.026 0 0 -0.004c0.456,-0.063 0.914,-0.121 1.371,-0.183l0.164 0 0 -0.021c0.415,-0.055 0.829,-0.112 1.243,-0.166l0.037 0 0 -0.004c0.48,-0.062 0.962,-0.121 1.443,-0.182l0.093 0 0 -0.011c0.989,-0.124 1.98,-0.245 2.971,-0.362l0.101 0 0 -0.012 1.51 -0.174 0.283 0 0 -0.033 1.387 -0.154 0.148 0 0 -0.016 1.603 -0.17 0.189 0 0 -0.02c0.538,-0.056 1.074,-0.113 1.613,-0.167l0.179 0 0 -0.017c1.244,-0.126 2.492,-0.243 3.74,-0.356l0.1 0 0 -0.009c0.672,-0.061 1.345,-0.12 2.017,-0.178l0.287 0 0 -0.023c0.653,-0.056 1.306,-0.11 1.961,-0.163l0.343 0 0 -0.027c0.692,-0.055 1.383,-0.107 2.077,-0.16l0.227 0 0 -0.015c0.895,-0.066 1.792,-0.13 2.69,-0.189 0.884,-0.06 1.77,-0.115 2.657,-0.169l0.541 0 0 -0.031c0.929,-0.055 1.861,-0.107 2.792,-0.156l1.048 0 0 -0.052c0.969,-0.049 1.938,-0.094 2.909,-0.134l0.675 0 0 -0.028c1.491,-0.061 2.985,-0.113 4.482,-0.158l1.15 0 0 -0.032c3.733,-0.102 7.482,-0.153 11.249,-0.153 4.121,0 8.223,0.063 12.303,0.184l0 0.001 0.041 0c1.44,0.042 2.877,0.092 4.311,0.149l0 0.037 0.891 0c1.241,0.053 2.48,0.111 3.717,0.175l0 0.011 0.229 0c1.035,0.055 2.067,0.112 3.099,0.173l0 0.014 0.247 0c0.858,0.052 1.714,0.107 2.569,0.163l0 0.024 0.368 0c0.732,0.049 1.462,0.102 2.191,0.155l0 0.031 0.452 0c0.789,0.059 1.578,0.121 2.365,0.184l0 0.003 0.051 0c0.752,0.06 1.503,0.122 2.253,0.186l0 0 0.005 0c0.682,0.059 1.364,0.117 2.043,0.179l0 0.008 0.083 0 1.709 0.158 0 0.029 0.31 0c0.58,0.055 1.159,0.113 1.738,0.171l0 0.015 0.142 0 1.65 0.169 0 0.018 0.166 0c1.655,0.173 3.306,0.356 4.954,0.551l0 0.008 0.079 0 1.457 0.175 0 0.012 0.095 0 1.441 0.179 0 0.007 0.065 0c0.919,0.116 1.836,0.234 2.751,0.356l0 0.017 0.134 0c0.896,0.119 1.789,0.242 2.682,0.367l0 0.006 0.049 0 1.231 0.174 0 0.013 0.094 0 1.186 0.173 0 0.014 0.092 0 1.188 0.174 0 0.012 0.077 0 1.203 0.183 0 0.004 0.02 0 1.004 0.155 0 0.031 0.202 0 1.078 0.17 0 0.017 0.105 0c1.505,0.24 3.006,0.489 4.503,0.745l0 0.001 0.005 0 1.019 0.177 0 0.009 0.055 0 0.969 0.17 0 0.017 0.092 0 0.932 0.164 0 0.022 0.119 0 0.905 0.167 0 0.02 0.113 0 0.91 0.167 0 0.019 0.109 0 0.916 0.172 0 0.015 0.081 0 0.943 0.18 0 0.006 0.035 0c0.929,0.177 1.856,0.358 2.781,0.542l0 0.018 0.095 0 0.929 0.184 0 0.003 0.011 0 0.757 0.154 0 0.032 0.154 0 0.87 0.178 0 0.008 0.042 0 0.726 0.149 0 0.039 0.177 0 0.847 0.178 0 0.008 0.035 0 0.733 0.155 0 0.031 0.146 0 1.646 0.356 0 0.017 0.077 0c0.829,0.181 1.658,0.365 2.483,0.551l0 0.008 0.035 0c2.132,0.481 4.254,0.978 6.365,1.493l0 0 0.003 0c1.713,0.418 3.419,0.847 5.117,1.286l0 0.019 0.078 0 0.69 0.18 0 0.007 0.023 0c0.677,0.177 1.352,0.353 2.025,0.533l0 0.026 0.098 0 0.67 0.181 0 0.006 0.019 0c0.677,0.182 1.355,0.365 2.029,0.552l0 0.007 0.029 0c1.102,0.304 2.202,0.614 3.299,0.927l0 0.006 0.021 0 1.259 0.36 0 0.013 0.048 0c0.411,0.119 0.822,0.241 1.232,0.362l0 0.011 0.039 0 1.242 0.365 0 0.009 0.03 0c0.589,0.174 1.175,0.353 1.761,0.53l0 0.029 0.095 0 1.185 0.361 0 0.013 0.039 0c1.186,0.364 2.368,0.732 3.545,1.107l0 0.011 0.034 0c0.758,0.241 1.515,0.485 2.27,0.73l0 0.016 0.047 0 0.465 0.151 0 0.036 0.11 0c0.562,0.183 1.122,0.37 1.682,0.557l0 0.002 0.009 0 0.503 0.169 0 0.017 0.056 0c4.744,1.589 9.419,3.266 14.024,5.027l0 0.01 0.027 0 0.485 0.185 0 0.001 0.005 0c0.94,0.361 1.876,0.726 2.811,1.094l0 0.025 0.064 0 0.448 0.179 0 0.008 0.022 0c0.763,0.302 1.524,0.607 2.282,0.914l0 0.019 0.045 0c1.357,0.548 2.708,1.104 4.051,1.667l0 0.011 0.027 0 1.253 0.531 0 0.029 0.068 0c0.576,0.244 1.15,0.491 1.725,0.738l0 0.008 0.019 0 1.26 0.545 0 0.014 0.033 0 1.247 0.549 0 0.011 0.025 0c1.105,0.487 2.206,0.979 3.303,1.476l0 0.017 0.035 0c0.673,0.305 1.344,0.613 2.013,0.923l0 0.01 0.019 0 0.749 0.347 0 0.025 0.052 0c0.925,0.431 1.846,0.866 2.765,1.304l0 0.001 0.004 0c0.36,0.173 0.72,0.343 1.078,0.515l0.443 -0.142 0.01 0 0 -0.002c0.583,-0.187 1.166,-0.373 1.75,-0.557l0.042 0 0 -0.013 1.155 -0.361 0.126 0 0 -0.038 0.475 -0.147 0.036 0 0 -0.011 0.573 -0.176 0.195 0 0 -0.059 0.419 -0.128 0.093 0 0 -0.028 1.149 -0.345 0.131 0 0 -0.039 0.493 -0.146 0.019 0 0 -0.006 0.614 -0.182 0.154 0 0 -0.044 0.484 -0.142 0.028 0 0 -0.009 1.262 -0.364 0.018 0 0 -0.005c1.097,-0.315 2.198,-0.624 3.302,-0.928l0.026 0 0 -0.006 0.657 -0.18 0.111 0 0 -0.03 1.272 -0.344 0.009 0 0 -0.002 0.69 -0.184 0.077 0 0 -0.02 0.629 -0.166 0.139 0 0 -0.037 0.578 -0.149 0.191 0 0 -0.051 0.528 -0.137 0.239 0 0 -0.061 0.491 -0.125 0.021 0 0 -0.005 0.71 -0.181 0.058 0 0 -0.015 0.689 -0.172 0.079 0 0 -0.019 0.67 -0.167 0.098 0 0 -0.025 0.663 -0.162 0.105 0 0 -0.026c1.002,-0.245 2.006,-0.484 3.013,-0.72l0.059 0 0 -0.014 0.743 -0.173 0.025 0 0 -0.006 1.607 -0.367 0.185 0 0 -0.041 0.647 -0.145 0.121 0 0 -0.027 0.722 -0.159 0.047 0 0 -0.012 0.803 -0.175 0.22 0 0 -0.049 0.647 -0.137 0.121 0 0 -0.027 0.751 -0.16 0.273 0 0 -0.057 0.621 -0.13 0.147 0 0 -0.031 0.751 -0.155 0.017 0 0 -0.004 0.896 -0.183 0.128 0 0 -0.026c1.221,-0.247 2.446,-0.485 3.675,-0.72l0.166 0 0 -0.031 0.823 -0.156 0.2 0 0 -0.037 0.81 -0.15 0.214 0 0 -0.039 0.808 -0.147 0.216 0 0 -0.039 0.831 -0.147 0.193 0 0 -0.036 0.869 -0.15 0.155 0 0 -0.028 0.93 -0.159 0.094 0 0 -0.015 1.013 -0.172 0.267 0 0 -0.043 0.869 -0.143 0.155 0 0 -0.026 0.998 -0.161 0.026 0 0 -0.004c1.203,-0.191 2.408,-0.377 3.617,-0.556l0.223 0 0 -0.033 1.057 -0.153 0.223 0 0 -0.032 1.087 -0.154 0.193 0 0 -0.027 1.158 -0.16 0.378 0 0 -0.05 1.017 -0.137 0.263 0 0 -0.034 1.183 -0.153 0.353 0 0 -0.044 1.141 -0.141 0.139 0 0 -0.017c1.01,-0.123 2.023,-0.242 3.036,-0.357l0.036 0 0 -0.004c0.552,-0.062 1.105,-0.122 1.659,-0.182l0.389 0 0 -0.043 1.389 -0.144 0.403 0 0 -0.04 1.466 -0.145 0.582 0 0 -0.056 1.417 -0.132 0.376 0 0 -0.033c0.586,-0.052 1.173,-0.103 1.761,-0.153l0.286 0 0 -0.024c1.513,-0.127 3.032,-0.241 4.553,-0.349l0.567 0 0 -0.039c0.754,-0.052 1.512,-0.101 2.268,-0.147l1.06 0 0 -0.065c0.744,-0.043 1.488,-0.084 2.233,-0.122l0.839 0 0 -0.044c1.073,-0.052 2.151,-0.099 3.226,-0.143l0.102 0 0 -0.004c1.944,-0.077 3.894,-0.138 5.848,-0.182l3.112 0 0 -0.058c1.595,-0.022 3.194,-0.034 4.797,-0.034 1.648,0 3.291,0.012 4.931,0.036l0 0.056 3.032 0c1.897,0.043 3.787,0.101 5.672,0.176l0 0.01 0.274 0c1.019,0.04 2.038,0.086 3.054,0.136l0 0.051 1.006 0c0.861,0.044 1.72,0.092 2.578,0.142l0 0.045 0.724 0c0.869,0.053 1.738,0.111 2.604,0.17l0 0.016 0.242 0c1.459,0.102 2.915,0.213 4.366,0.333l0 0.04 0.476 0 1.572 0.136 0 0.05 0.564 0 1.484 0.138 0 0.05 0.513 0 1.535 0.151 0 0.034 0.341 0 1.707 0.179 0 0.008 0.075 0c1.087,0.116 2.171,0.239 3.253,0.365l0 0.008 0.065 0 1.215 0.145 0 0.042 0.341 0 1.195 0.148 0 0.037 0.303 0 1.233 0.16 0 0.027 0.213 0 1.067 0.143 0 0.044 0.332 0 1.204 0.165 0 0.022 0.155 0 1.125 0.159 0 0.027 0.186 0c0.675,0.097 1.348,0.196 2.021,0.297 0.546,0.082 1.089,0.172 1.634,0.255l0 0.008 0.047 0 0.976 0.152 0 0.034 0.217 0 0.807 0.127 0 0.06 0.381 0 0.643 0.108 0 0.078 0.459 0 0.821 0.139 0 0.048 0.282 0 0.742 0.125 0 0.062 0.36 0c0.221,0.038 0.443,0.073 0.664,0.113l0 0.073 0.409 0 0.615 0.112 0 0.074 0.41 0 0.614 0.112 0 0.074 0.411 0 0.613 0.113 0 0.074 0.412 0 0.612 0.112 0 0.075 0.384 0 0.896 0.175 0 0.012 0.057 0c1.523,0.293 3.039,0.599 4.551,0.913l0 0.019 0.093 0 0.675 0.14 0 0.047 0.222 0 0.802 0.167 0 0.02 0.093 0 0.675 0.146 0 0.04 0.178 0 0.59 0.13 0 0.057 0.25 0 0.518 0.114 0 0.072 0.325 0 0.443 0.097 0 0.089 0.401 0 0.623 0.139 0 0.048 0.212 0 0.557 0.131 0 0.055 0.235 0 0.532 0.126 0 0.061 0.264 0 0.504 0.118 0 0.068 0.292 0 0.477 0.112 0 0.075 0.318 0 0.705 0.167 0 0.02 0.08 0 0.688 0.171 0 0.015 0.062 0 0.706 0.174 0 0.013 0.048 0 0.72 0.178 0 0.008 0.031 0 0.737 0.182 0 0.005 0.018 0c0.935,0.236 1.868,0.479 2.799,0.723l0 0.023 0.088 0 0.679 0.177 0 0.009 0.035 0 0.477 0.126 0 0.06 0.235 0 0.533 0.144 0 0.043 0.156 0 0.612 0.169 0 0.018 0.065 0 0.447 0.123 0 0.063 0.232 0 0.536 0.148 0 0.039 0.14 0 0.373 0.102 0 0.084 0.305 0 0.462 0.128 0 0.059 0.213 0 0.299 0.086 0 0.101 0.348 0 0.42 0.121 0 0.065 0.226 0 0.542 0.157 0 0.03 0.102 0 0.411 0.118 0 0.068 0.235 0 0.532 0.154 0 0.032 0.114 0 0.399 0.116 0 0.072 0.241 0 0.526 0.159 0 0.026 0.089 0 1.191 0.361 0 0.012 0.042 0c1.186,0.36 2.366,0.726 3.543,1.098l0 0.021 0.068 0 0.443 0.141 0 0.046 0.143 0c0.379,0.12 0.76,0.238 1.137,0.36l0 0.013 0.042 0 0.471 0.154 0 0.033 0.098 0 0.413 0.137 0 0.049 0.15 0 0.362 0.12 0 0.067 0.2 0 0.312 0.103 0 0.083 0.252 0 0.517 0.171 0 0.016 0.046 0 0.465 0.153 0 0.033 0.099 0 0.413 0.138 0 0.049 0.144 0 0.368 0.127 0 0.059 0.171 0 0.341 0.118 0 0.068 0.199 0 0.313 0.109 0 0.078 0.227 0 0.285 0.099 0 0.088 0.255 0 0.513 0.177 0 0.009 0.025 0 0.487 0.168 0 0.019 0.053 0 0.459 0.161 0 0.025 0.072 0 0.44 0.159 0 0.028 0.078 0 0.435 0.157 0 0.029 0.082 0 0.429 0.155 0 0.032 0.088 0c1.171,0.421 2.337,0.849 3.496,1.284l0 0.022 0.059 0 0.454 0.17 0 0.016 0.042 0 0.469 0.176 0 0.011 0.028 0 0.485 0.182 0 0.004 0.012 0 0.755 0.288 0 0.086 0.218 0 0.295 0.115 0 0.071 0.181 0 0.33 0.128 0 0.059 0.149 0 0.364 0.142 0 0.044 0.113 0 0.398 0.155 0 0.032 0.08 0 0.432 0.168 0 0.018 0.045 0 0.212 0.082 0 0.104 0.266 0 0.245 0.098 0 0.09 0.22 0 0.293 0.118 0 0.068 0.168 0 0.343 0.139 0 0.047 0.117 0 0.395 0.161 0 0.025 0.063 0 0.449 0.183 0 0.004 0.011 0 0.245 0.099 0 0.088 0.215 0 0.298 0.12 0 0.066 0.163 0 0.348 0.141 0 0.046 0.11 0 0.402 0.169 0 0.017 0.041 0c0.414,0.172 0.827,0.348 1.24,0.522l0 0.038 0.089 0 0.422 0.177 0 0.01 0.02 0c0.85,0.359 1.696,0.722 2.54,1.089l0 0.029 0.068 0 1.212 0.531 0 0.028 0.068 0c0.232,0.103 0.468,0.203 0.7,0.308l0 0.066 0.152 0 0.36 0.163 0 0.023 0.052 0 0.716 0.325 0 0.048 0.107 0 0.406 0.185 0 0.002 0.005 0 0.25 0.113 0 0.074 0.163 0 0.349 0.158 0 0.028 0.062 0 0.194 0.088 0 0.099 0.217 0 0.295 0.133 0 0.052 0.117 0 0.395 0.186 0 0.002 0.005 0 0.252 0.117 0 0.069 0.145 0 0.366 0.172 0 0.015 0.031 0 0.225 0.105 0 0.081 0.172 0 0.341 0.16 0 0.026 0.056 0 0.199 0.094 0 0.093 0.199 0 0.313 0.148 0 0.039 0.084 0 0.684 0.322 0 0.051 0.106 0 0.663 0.322 0 0.051 0.104 0c1.253,0.605 2.498,1.217 3.735,1.838l0 0.027 0.053 0 0.716 0.36 0 0.013 0.026 0c0.332,0.168 0.666,0.333 0.998,0.503l0 0.057 0.112 0 0.655 0.338 0 0.035 0.067 0 0.189 0.099 0 0.087 0.169 0 0.343 0.179 0 0.007 0.015 0 0.241 0.127 0 0.06 0.116 0 0.652 0.34 0 0.034 0.065 0 0.191 0.098 0 0.088 0.167 0 0.345 0.18 0 0.006 0.012 0 0.245 0.128 0 0.059 0.109 0 0.146 0.079 0 0.108 0.199 0 0.313 0.168 0 0.018 0.034 0 0.223 0.12 0 0.067 0.122 0 0.645 0.348 0 0.025 0.048 0 0.208 0.112 0 0.075 0.138 0 0.63 0.339 0 0.033 0.062 0 0.194 0.105 0 0.081 0.15 0 0.618 0.344 0 0.031 0.052 0 0.972 0.54 0 0.018 0.033 0c0.33,0.184 0.662,0.366 0.991,0.552l0 0.007 0.013 0c0.854,0.482 1.701,0.969 2.547,1.459l0 0.034 0.06 0c0.32,0.185 0.645,0.369 0.964,0.556l0 0.003 0.007 0 0.249 0.149 0 0.038 0.066 0 0.19 0.114 0 0.073 0.123 0c0.302,0.177 0.601,0.357 0.901,0.537l0 0.022 0.039 0 0.217 0.129 0 0.058 0.097 0 0.16 0.096 0 0.09 0.153 0 0.614 0.365 0 0.008 0.013 0 0.244 0.145 0 0.042 0.07 0 0.185 0.114 0 0.072 0.118 0 0.138 0.085 0 0.102 0.165 0 0.604 0.371 0 0.001 0.003 0 0.252 0.155 0 0.032 0.052 0 0.204 0.126 0 0.061 0.099 0 0.157 0.097 0 0.09 0.145 0c0.293,0.179 0.589,0.359 0.879,0.539l0 0.02 0.032 0 0.224 0.142 0 0.045 0.071 0 0.186 0.117 0 0.069 0.109 0c0.391,0.247 0.78,0.495 1.17,0.743l0 0.004 0.004 0 0.252 0.159 0 0.027 0.042 0c0.673,0.429 1.34,0.86 2.006,1.293l0 0.012 0.017 0 0.239 0.157 0 0.03 0.046 0 0.21 0.138 0 0.049 0.074 0c0.747,0.489 1.491,0.983 2.23,1.479l0 0.012 0.018 0 0.238 0.162 0 0.025 0.038 0 0.219 0.148 0 0.039 0.057 0 0.198 0.135 0 0.05 0.077 0 0.179 0.122 0 0.066 0.096 0 0.16 0.107 0 0.079 0.116 0 0.141 0.095 0 0.091 0.135 0 0.12 0.081 0 0.107 0.156 0 0.1 0.067 0 0.118 0.17 0 0.086 0.06 0 0.127 0.182 0c0.625,0.433 1.247,0.868 1.866,1.304l0 0.002 0.002 0 0.254 0.178 0 0.008 0.013 0 0.243 0.171 0 0.015 0.023 0 0.234 0.167 0 0.02 0.028 0 0.227 0.165 0 0.022 0.031 0 0.225 0.163 0 0.023 0.033 0 0.223 0.161 0 0.026 0.036 0 0.221 0.159 0 0.027 0.038 0 0.217 0.158 0 0.029 0.041 0 0.215 0.156 0 0.031 0.043 0c0.672,0.486 1.341,0.974 2.005,1.466l0 0.025 0.034 0 0.222 0.166 0 0.021 0.028 0 0.228 0.171 0 0.015 0.022 0 0.234 0.175 0 0.012 0.017 0 0.24 0.18 0 0.007 0.01 0 0.245 0.182 0 0.004 0.006 0c0.772,0.581 1.536,1.165 2.298,1.752l0 0.113 0.146 0 0.11 0.085 0 0.102 0.133 0 0.123 0.094 0 0.093 0.12 0 0.137 0.105 0 0.081 0.105 0 0.15 0.115 0 0.072 0.093 0 0.163 0.129 0 0.057 0.071 0 0.185 0.147 0 0.04 0.05 0 0.206 0.163 0 0.024 0.029 0 0.228 0.18 0 0.006 0.007 0c0.425,0.336 0.85,0.671 1.272,1.01l0 0.109 0.137 0 0.119 0.094 0 0.092 0.116 0 0.14 0.113 0 0.074 0.091 0 0.165 0.136 0 0.051 0.064 0 0.193 0.159 0 0.026 0.032 0 0.223 0.184 0 0.004 0.005 0c1.12,0.912 2.228,1.835 3.323,2.764l0 0.033 0.04 0 0.216 0.184 0 0.003 0.004 0c0.254,0.216 0.512,0.431 0.765,0.647l0 0.099 0.116 0 0.139 0.122 0 0.065 0.074 0 0.182 0.159 0 0.027 0.031 0c0.248,0.213 0.491,0.43 0.737,0.644l0 0.101 0.116 0 0.14 0.124 0 0.064 0.072 0 0.184 0.159 0 0.027 0.031 0 0.482 0.422 0 0.137 0.156 0 0.099 0.086 0 0.101 0.116 0 0.14 0.127 0 0.06 0.067 0 0.19 0.171 0 0.015 0.017 0 0.494 0.447 0 0.113 0.125 0 0.131 0.119 0 0.067 0.075 0 0.181 0.165 0 0.023 0.025 0 0.488 0.439 0 0.12 0.132 0 0.123 0.111 0 0.075 0.083 0 0.173 0.156 0 0.03 0.033 0c0.247,0.227 0.49,0.458 0.735,0.685l0 0.062 0.067 0 0.189 0.177 0 0.009 0.009 0c0.598,0.556 1.195,1.112 1.784,1.673l0 0.006 0.005 0c0.256,0.244 0.507,0.491 0.762,0.736l0 0.01 0.011 0 0.502 0.485 0 0.075 0.079 0 0.176 0.171 0 0.016 0.016 0 0.497 0.479 0 0.08 0.083 0 0.173 0.171 0 0.015 0.014 0 0.497 0.496 0 0.063 0.063 0 0.449 0.448 0 0.112 0.112 0 0.145 0.144 0 0.042 0.042 0 0.469 0.468 0 0.092 0.091 0 0.166 0.165 0 0.022 0.021 0 0.235 0.236 0 0.137 0.131 0 0.124 0.127 0 0.06 0.056 0 0.456 0.47 0 0.088 0.086 0 0.17 0.177 0 0.011 0.012 0 0.245 0.252 0 0.121 0.116 0 0.139 0.143 0 0.043 0.041 0 0.472 0.487 0 0.072 0.07 0 0.441 0.468 0 0.092 0.088 0 0.168 0.181 0 0.005 0.005 0 0.507 0.542 0 0.018 0.017 0 0.495 0.528 0 0.032 0.028 0c0.508,0.546 1.01,1.094 1.508,1.645l0 0.034 0.031 0 0.482 0.532 0 0.027 0.024 0 0.487 0.539 0 0.021 0.019 0 0.238 0.262 0 0.111 0.097 0 0.159 0.182 0 0.004 0.004 0 0.251 0.287 0 0.087 0.074 0 0.438 0.5 0 0.059 0.051 0 0.205 0.235 0 0.139 0.121 0 0.136 0.155 0 0.03 0.026 0 0.229 0.262 0 0.111 0.097 0 0.159 0.183 0 0.004 0.004 0 0.253 0.294 0 0.078 0.067 0 0.189 0.226 0 0.148 0.125 0 0.13 0.155 0 0.031 0.027 0 0.229 0.274 0 0.099 0.084 0 0.428 0.509 0 0.051 0.043 0 0.214 0.253 0 0.12 0.1 0 0.155 0.185 0 0.002 0.002 0 0.254 0.303 0 0.07 0.057 0c0.24,0.29 0.473,0.584 0.711,0.876l0 0.056 0.045 0c0.501,0.615 1,1.231 1.491,1.85l0 0.016 0.012 0c0.341,0.429 0.676,0.861 1.012,1.293l0 0.012 0.009 0 0.247 0.317 0 0.057 0.044 0 0.212 0.27 0 0.103 0.08 0 0.177 0.229 0 0.143 0.107 0 0.404 0.536 0 0.024 0.017 0 0.24 0.317 0 0.056 0.041 0 0.215 0.285 0 0.088 0.067 0 0.188 0.25 0 0.123 0.092 0 0.164 0.218 0 0.156 0.117 0 0.139 0.183 0 0.19 0.139 0 0.117 0.161 0 0.025 0.019 0 0.238 0.329 0 0.045 0.031 0 0.224 0.308 0 0.064 0.046 0 0.21 0.289 0 0.084 0.06 0 0.197 0.27 0 0.102 0.073 0 0.183 0.252 0 0.122 0.089 0 0.166 0.231 0 0.142 0.102 0c0.66,0.928 1.308,1.859 1.947,2.796l0 0.002 0 0c0.52,0.763 1.03,1.529 1.535,2.298l0 0.127 0.084 0 0.172 0.261 0 0.112 0.071 0 0.186 0.288 0 0.085 0.053 0 0.203 0.315 0 0.058 0.036 0 0.219 0.34 0 0.033 0.02 0 0.236 0.368 0 0.192 0.124 0 0.132 0.207 0 0.165 0.106 0 0.15 0.236 0 0.138 0.089 0 0.167 0.271 0 0.102 0.062 0 0.194 0.316 0 0.057 0.034 0 0.222 0.361 0 0.198 0.122 0 0.135 0.219 0 0.154 0.093 0 0.163 0.264 0 0.109 0.066 0 0.189 0.307 0 0.066 0.04 0 0.216 0.355 0 0.018 0.011 0 0.245 0.418 0 0.142 0.084 0 0.172 0.295 0 0.078 0.046 0 0.21 0.358 0 0.015 0.009 0c0.43,0.732 0.853,1.468 1.271,2.205l0 0.033 0.018 0 0.494 0.882 0 0.051 0.029 0 0.227 0.406 0 0.153 0.086 0 0.17 0.304 0 0.07 0.039 0 0.217 0.405 0 0.154 0.082 0 0.174 0.326 0 0.047 0.025 0 0.232 0.433 0 0.127 0.067 0 0.189 0.352 0 0.207 0.11 0 0.145 0.272 0 0.101 0.053 0 0.203 0.382 0 0.178 0.091 0 0.165 0.326 0 0.234 0.12 0 0.136 0.27 0 0.103 0.053 0 0.203 0.401 0 0.159 0.081 0 0.175 0.343 0 0.215 0.109 0 0.147 0.29 0 0.085 0.043 0 0.214 0.434 0 0.124 0.059 0c0.24,0.487 0.472,0.977 0.708,1.466l0 0.026 0.013 0c0.145,0.301 0.293,0.601 0.436,0.903 0.455,0.277 0.915,0.554 1.376,0.829 212.436,17.663 279.962,75.261 346.291,232.008l0.243 -0.027 0.057 0 0 -0.007c0.548,-0.062 1.097,-0.121 1.647,-0.18l0.401 0 0 -0.043 1.406 -0.144 0.898 0 0 -0.088 1.042 -0.098 1.006 0 0 -0.091 1.089 -0.096 1.215 0 0 -0.1 1.092 -0.086 0.956 0 0 -0.071c0.548,-0.041 1.096,-0.078 1.645,-0.115l0.659 0 0 -0.044c0.792,-0.051 1.585,-0.099 2.379,-0.144l0.181 0 0 -0.009c1.202,-0.068 2.405,-0.125 3.614,-0.176l3.042 0 0 -0.111c0.976,-0.03 1.955,-0.056 2.936,-0.076l3.464 0 0 -0.049c0.72,-0.006 1.439,-0.008 2.16,-0.008 0.989,0 1.975,0.006 2.96,0.015l0 0.042 2.705 0c3.04,0.062 6.065,0.176 9.071,0.335l0 0.037 0.698 0c0.792,0.045 1.584,0.092 2.374,0.143l0 0.045 0.685 0c0.797,0.053 1.593,0.11 2.387,0.17l0 0.016 0.224 0c1.379,0.105 2.757,0.22 4.128,0.345l0 0.028 0.295 0 1.497 0.143 0 0.043 0.452 0c0.448,0.045 0.894,0.093 1.34,0.14l0 0.047 0.444 0c0.536,0.057 1.07,0.115 1.604,0.174l0 0.013 0.106 0c1.506,0.171 3.007,0.352 4.502,0.547l0 0.013 0.099 0c0.394,0.051 0.787,0.105 1.181,0.158l0 0.028 0.202 0 1.078 0.147 0 0.04 0.288 0c0.331,0.046 0.662,0.096 0.992,0.144l0 0.042 0.286 0 0.994 0.145 0 0.041 0.275 0c1.536,0.233 3.066,0.479 4.589,0.736l0 0.01 0.056 0 0.968 0.162 0 0.025 0.133 0 0.891 0.159 0 0.028 0.156 0 0.868 0.154 0 0.032 0.179 0 0.845 0.156 0 0.031 0.16 0 0.864 0.162 0 0.024 0.126 0c0.298,0.057 0.599,0.112 0.898,0.17l0 0.016 0.089 0 0.935 0.187 0 0.001 0.002 0c1.198,0.236 2.393,0.48 3.582,0.733l0 0.012 0.055 0 0.713 0.152 0 0.035 0.161 0c0.545,0.118 1.088,0.238 1.631,0.36l0 0.013 0.058 0 0.71 0.157 0 0.029 0.123 0 0.645 0.149 0 0.038 0.161 0 0.607 0.14 0 0.047 0.2 0c1.995,0.466 3.977,0.954 5.944,1.465l0 0.026 0.104 0 0.664 0.176 0 0.011 0.042 0 1.238 0.328 0 0.044 0.173 0 0.595 0.164 0 0.024 0.086 0 1.194 0.328 0 0.044 0.16 0 0.608 0.169 0 0.018 0.064 0c1.266,0.356 2.523,0.724 3.776,1.098l0 0.021 0.072 0 1.208 0.363 0 0.01 0.033 0 0.479 0.148 0 0.039 0.124 0 1.156 0.357 0 0.015 0.052 0 0.46 0.145 0 0.043 0.134 0c0.383,0.121 0.764,0.245 1.146,0.368l0 0.004 0.016 0 0.496 0.16 0 0.027 0.085 0c2.386,0.774 4.747,1.581 7.083,2.421l0 0.004 0.01 0 0.502 0.179 0 0.008 0.022 0 0.49 0.179 0 0.007 0.017 0 0.495 0.182 0 0.004 0.012 0 0.5 0.185 0 0.002 0.006 0 0.506 0.186 0 0.001 0.001 0c1.289,0.479 2.567,0.971 3.839,1.47l0 0.021 0.054 0 0.458 0.18 0 0.007 0.018 0c0.594,0.235 1.185,0.472 1.774,0.712l0 0.034 0.086 0 0.426 0.173 0 0.014 0.035 0 1.245 0.513 0 0.047 0.112 0 0.4 0.166 0 0.02 0.047 0c0.583,0.244 1.166,0.489 1.745,0.737l0 0.009 0.02 0c0.851,0.364 1.697,0.733 2.54,1.107l0 0.012 0.028 0c0.418,0.185 0.837,0.369 1.252,0.556l0 0.003 0.009 0 0.759 0.348 0 0.026 0.058 0 0.71 0.324 0 0.049 0.106 0 0.406 0.185 0 0.001 0.004 0 0.764 0.358 0 0.014 0.032 0 0.736 0.347 0 0.027 0.059 0 0.709 0.335 0 0.038 0.084 0c1.264,0.603 2.514,1.217 3.756,1.84l0 0.025 0.052 0 0.716 0.36 0 0.014 0.028 0 0.996 0.509 0 0.05 0.097 0 0.671 0.343 0 0.03 0.058 0 0.71 0.372 0 0.001 0.002 0 0.254 0.134 0 0.053 0.101 0 0.667 0.351 0 0.022 0.042 0c1.365,0.723 2.715,1.459 4.054,2.207l0 0.031 0.056 0 0.968 0.544 0 0.016 0.027 0 1.253 0.714 0 0.032 0.054 0c0.41,0.236 0.818,0.474 1.226,0.714l0 0.032 0.056 0c0.409,0.24 0.818,0.479 1.224,0.721l0 0.025 0.042 0c0.414,0.247 0.826,0.496 1.238,0.744l0 0.002 0.002 0c0.599,0.363 1.196,0.73 1.79,1.097l0 0.021 0.035 0c0.588,0.366 1.174,0.733 1.757,1.103l0 0.017 0.026 0 0.23 0.146 0 0.041 0.065 0c0.578,0.369 1.154,0.74 1.727,1.114l0 0.005 0.008 0 0.248 0.162 0 0.024 0.038 0 0.218 0.143 0 0.043 0.068 0c0.751,0.494 1.496,0.991 2.236,1.492l0 0.001 0.002 0c3.261,2.21 6.418,4.498 9.47,6.858l0 0.044 0.055 0 0.201 0.156 0 0.029 0.038 0 0.218 0.171 0 0.017 0.02 0 0.236 0.183 0 0.002 0.003 0c0.688,0.538 1.369,1.079 2.045,1.624l0 0.055 0.069 0 0.187 0.151 0 0.036 0.046 0 0.211 0.17 0 0.017 0.02 0c0.563,0.457 1.122,0.916 1.676,1.378l0.351 0.295 0 0.005 0.007 0c0.426,0.359 0.851,0.718 1.273,1.079l0 0.041 0.048 0 0.208 0.177 0 0.009 0.01 0 0.758 0.655 0 0.092 0.106 0 0.151 0.13 0 0.056 0.064 0 0.191 0.167 0 0.019 0.022 0 0.746 0.658 0 0.089 0.099 0 0.157 0.139 0 0.047 0.053 0 0.203 0.181 0 0.005 0.006 0 0.763 0.686 0 0.06 0.066 0 0.189 0.172 0 0.015 0.017 0 0.751 0.687 0 0.059 0.064 0 0.192 0.176 0 0.011 0.01 0c0.6,0.554 1.194,1.11 1.782,1.67l0 0.008 0.009 0 0.759 0.728 0 0.019 0.019 0 0.493 0.476 0 0.083 0.085 0 0.172 0.168 0 0.018 0.018 0 0.493 0.483 0 0.077 0.078 0 0.178 0.176 0 0.011 0.01 0 0.502 0.5 0 0.059 0.059 0 0.453 0.455 0 0.104 0.104 0 0.152 0.156 0 0.031 0.031 0 0.481 0.488 0 0.072 0.07 0 0.698 0.719 0 0.027 0.026 0 0.486 0.508 0 0.051 0.049 0c0.413,0.433 0.824,0.867 1.231,1.303l0 0.003 0.003 0 0.509 0.551 0 0.009 0.008 0 0.504 0.547 0 0.013 0.011 0 0.501 0.551 0 0.008 0.007 0 0.761 0.847 0 0.085 0.075 0 0.437 0.494 0 0.066 0.059 0 0.453 0.515 0 0.045 0.039 0 0.217 0.25 0 0.123 0.106 0 0.15 0.173 0 0.013 0.011 0 0.246 0.284 0 0.089 0.077 0 0.434 0.51 0 0.05 0.042 0 0.47 0.555 0 0.004 0.004 0 0.252 0.302 0 0.071 0.059 0 0.453 0.544 0 0.016 0.014 0c0.601,0.728 1.194,1.46 1.778,2.195l0 0.043 0.034 0 0.222 0.281 0 0.092 0.073 0 0.696 0.89 0 0.043 0.033 0 0.222 0.286 0 0.087 0.067 0 0.189 0.248 0 0.125 0.096 0 0.416 0.546 0 0.014 0.011 0 0.245 0.326 0 0.047 0.035 0 0.221 0.295 0 0.077 0.059 0 0.197 0.266 0 0.107 0.079 0c0.318,0.43 0.633,0.86 0.945,1.292l0 0.014 0.011 0 0.245 0.34 0 0.033 0.024 0 0.232 0.325 0 0.049 0.034 0c0.508,0.713 1.008,1.428 1.502,2.148l0 0.089 0.061 0 0.195 0.287 0 0.086 0.06 0 0.196 0.292 0 0.081 0.055 0 0.201 0.301 0 0.073 0.049 0 0.207 0.308 0 0.065 0.043 0 0.213 0.323 0 0.05 0.033 0 0.223 0.341 0 0.031 0.02 0 0.236 0.36 0 0.013 0.009 0 0.503 0.781 0 0.152 0.098 0 0.158 0.251 0 0.123 0.078 0 0.178 0.283 0 0.089 0.057 0 0.199 0.318 0 0.056 0.035 0 0.221 0.357 0 0.015 0.009 0c0.609,0.985 1.203,1.975 1.783,2.971l0 0.014 0.008 0 0.504 0.872 0 0.061 0.035 0 0.477 0.843 0 0.089 0.05 0 0.206 0.372 0 0.001 0 0 0.257 0.461 0 0.099 0.055 0 0.2 0.369 0 0.003 0.002 0 0.254 0.47 0 0.09 0.049 0 0.207 0.388 0 0.173 0.091 0 0.165 0.311 0 0.061 0.032 0 0.224 0.425 0 0.135 0.069 0 0.187 0.36 0 0.013 0.007 0 0.249 0.485 0 0.074 0.038 0c0.247,0.485 0.49,0.971 0.73,1.459l0 0.034 0.017 0 0.239 0.486 0 0.073 0.035 0 0.221 0.46 0 0.099 0.048 0 0.208 0.435 0 0.126 0.06 0 0.196 0.418 0 0.141 0.066 0 0.19 0.405 0 0.155 0.07 0 0.186 0.406 0 0.153 0.07 0 0.186 0.409 0 0.15 0.068 0 0.189 0.425 0 0.135 0.059 0 0.196 0.443 0 0.117 0.051 0 0.205 0.475 0 0.085 0.036 0 0.22 0.513 0 0.046 0.02 0c0.435,1.025 0.856,2.057 1.26,3.092l0 0.079 0.03 0 0.227 0.585 0 0.16 0.061 0 0.194 0.512 0 0.235 0.087 0 0.169 0.449 0 0.11 0.041 0 0.215 0.594 0 0.152 0.055 0 0.201 0.561 0 0.185 0.065 0 0.191 0.543 0 0.204 0.071 0 0.185 0.545 0 0.201 0.068 0 0.188 0.562 0 0.184 0.06 0c0.206,0.624 0.409,1.251 0.603,1.88l0.526 -0.015 0.091 0 0 -0.003c1.454,-0.039 2.906,-0.073 4.372,-0.073 1.365,0 2.723,0.017 4.077,0.049l0 0.027 1.121 0c1.338,0.038 2.67,0.093 3.998,0.162l0 0.024 0.468 0c0.956,0.052 1.908,0.112 2.86,0.179l0 0.009 0.109 0c0.733,0.051 1.466,0.107 2.195,0.168l0 0.018 0.209 0c0.615,0.051 1.227,0.108 1.839,0.167l0 0.019 0.197 0c1.652,0.161 3.293,0.343 4.923,0.549l0 0.011 0.086 0c0.913,0.116 1.823,0.237 2.731,0.366l0 0.007 0.042 0c1.187,0.169 2.367,0.352 3.541,0.545l0 0.015 0.085 0 0.94 0.155 0 0.031 0.171 0c1.662,0.286 3.312,0.597 4.948,0.929l0 0.003 0.016 0c0.594,0.121 1.186,0.245 1.777,0.372l0 0.002 0.005 0 0.762 0.163 0 0.022 0.104 0c1.08,0.24 2.156,0.489 3.224,0.747l0.001 0c2.774,0.671 5.504,1.409 8.191,2.212l0 0.026 0.089 0c0.398,0.118 0.795,0.241 1.192,0.362l0 0.012 0.036 0c0.586,0.18 1.172,0.364 1.755,0.551l0 0.008 0.023 0c0.938,0.301 1.869,0.61 2.794,0.927l0 0.005 0.015 0 0.496 0.17 0 0.017 0.048 0c1.364,0.473 2.711,0.961 4.049,1.467l0 0.025 0.065 0 0.446 0.172 0 0.015 0.038 0 0.474 0.182 0 0.005 0.011 0c1.377,0.533 2.738,1.083 4.085,1.652l0 0.026 0.064 0c0.578,0.245 1.155,0.493 1.729,0.742l0 0.004 0.008 0c1.644,0.72 3.26,1.467 4.856,2.237l0 0.001 0.001 0 0.766 0.374c0.861,0.423 1.714,0.852 2.56,1.289l0 0.016 0.031 0c0.59,0.306 1.178,0.615 1.761,0.928l0 0.005 0.009 0c0.339,0.182 0.678,0.365 1.015,0.55l0 0.009 0.017 0c0.337,0.184 0.672,0.37 1.007,0.557l0 0.003 0.007 0c0.427,0.238 0.851,0.478 1.273,0.719l0 0.027 0.045 0c0.414,0.238 0.825,0.476 1.235,0.718l0 0.028 0.049 0c0.412,0.243 0.822,0.488 1.231,0.733l0 0.013 0.021 0c0.508,0.307 1.013,0.618 1.515,0.93l0 0.003 0.005 0c0.687,0.428 1.367,0.862 2.043,1.3l0 0.005 0.008 0 0.248 0.161 0 0.026 0.039 0c1.026,0.671 2.037,1.352 3.033,2.047l0 0.005 0.006 0 0.251 0.175 0 0.011 0.016 0 0.24 0.167 0 0.02 0.026 0 0.229 0.16 0 0.026 0.037 0 0.219 0.157 0 0.03 0.042 0 0.214 0.154 0 0.031 0.046 0c0.557,0.4 1.11,0.802 1.656,1.208 -0.082,-1.88 -0.14,-3.765 -0.14,-5.657 0,-2.069 0.05,-4.131 0.148,-6.182l0.082 0 0 -1.484c0.062,-1.062 0.138,-2.122 0.228,-3.179l0.028 0 0 -0.307c0.056,-0.644 0.117,-1.288 0.181,-1.93l0.075 0 0 -0.693c0.056,-0.517 0.114,-1.032 0.176,-1.547l0.08 0 0 -0.648c0.075,-0.594 0.154,-1.185 0.236,-1.776l0.02 0 0 -0.147c0.08,-0.575 0.166,-1.146 0.254,-1.718l0.002 0 0 -0.01c0.067,-0.432 0.136,-0.864 0.207,-1.296l0.049 0 0 -0.296 0.206 -1.196 0.051 0 0 -0.278 0.186 -1.028 0.07 0 0 -0.353 0.184 -0.952 0.071 0 0 -0.35c0.077,-0.382 0.154,-0.762 0.235,-1.143l0.021 0 0 -0.098c0.231,-1.09 0.475,-2.177 0.734,-3.26l0.034 0 0 -0.14 0.191 -0.792 0.065 0 0 -0.257 0.217 -0.861 0.039 0 0 -0.153 0.203 -0.78 0.054 0 0 -0.202 0.195 -0.73 0.061 0 0 -0.224 0.198 -0.709 0.057 0 0 -0.21 0.206 -0.723 0.05 0 0 -0.174c0.326,-1.127 0.666,-2.251 1.021,-3.37l0.003 0 0 -0.008 0.236 -0.738 0.02 0 0 -0.062 0.223 -0.685 0.034 0 0 -0.098 0.218 -0.647 0.038 0 0 -0.114 0.214 -0.632 0.041 0 0 -0.118 0.217 -0.629 0.039 0 0 -0.111 0.226 -0.634 0.03 0 0 -0.086 0.238 -0.661 0.018 0 0 -0.049 0.255 -0.697 0.001 0 0 -0.002c0.323,-0.872 0.654,-1.742 0.995,-2.608l0.03 0 0 -0.074c0.161,-0.411 0.326,-0.823 0.492,-1.233l0.019 0 0 -0.047 0.207 -0.513 0.049 0 0 -0.117 0.184 -0.441 0.072 0 0 -0.176 0.239 -0.571 0.017 0 0 -0.039 0.221 -0.521 0.035 0 0 -0.081 0.205 -0.478 0.051 0 0 -0.116 0.193 -0.444 0.064 0 0 -0.145c0.333,-0.762 0.674,-1.522 1.022,-2.28l0.001 0 0 -0.001c0.315,-0.685 0.637,-1.369 0.963,-2.05l0.061 0 0 -0.128 0.21 -0.432 0.047 0 0 -0.096 0.224 -0.463 0.032 0 0 -0.064 0.245 -0.496 0.01 0 0 -0.02 0.175 -0.352 0.081 0 0 -0.165 0.2 -0.396 0.056 0 0 -0.111 0.227 -0.448 0.029 0 0 -0.057 0.451 -0.875 0.061 0 0 -0.118 0.231 -0.442 0.025 0 0 -0.049c0.417,-0.795 0.843,-1.587 1.275,-2.377l0.005 0 0 -0.008 0.51 -0.924 0.002 0 0 -0.002 0.207 -0.371 0.049 0 0 -0.088 0.478 -0.845 0.035 0 0 -0.059 0.178 -0.313 0.078 0 0 -0.135 0.246 -0.425 0.009 0 0 -0.015 0.207 -0.358 0.049 0 0 -0.083 0.17 -0.289 0.086 0 0 -0.146 0.245 -0.414 0.011 0 0 -0.019 0.211 -0.354 0.045 0 0 -0.075c0.246,-0.412 0.495,-0.822 0.743,-1.231l0.026 0 0 -0.04c0.321,-0.526 0.645,-1.052 0.974,-1.576 0.681,-1.084 1.381,-2.162 2.092,-3.234l0.005 0 0 -0.007 0.246 -0.366 0.01 0 0 -0.015 0.241 -0.358 0.015 0 0 -0.023c0.666,-0.993 1.346,-1.98 2.036,-2.961l0.012 0 0 -0.017 0.25 -0.356 0.006 0 0 -0.009c1.154,-1.629 2.343,-3.243 3.566,-4.841l0.019 0 0 -0.025c0.422,-0.552 0.843,-1.106 1.273,-1.654l0.006 0 0 -0.007c0.834,-1.062 1.686,-2.115 2.549,-3.164l0.011 0 0 -0.012 0.764 -0.921 0.005 0 0 -0.004c0.415,-0.497 0.831,-0.994 1.253,-1.487l0.026 0 0 -0.03c2.211,-2.586 4.513,-5.124 6.903,-7.617l0.009 0 0 -0.009c0.416,-0.435 0.834,-0.866 1.256,-1.298l0.024 0 0 -0.024c0.42,-0.428 0.841,-0.855 1.265,-1.281l0.015 0 0 -0.014c1.248,-1.252 2.517,-2.49 3.81,-3.716l0.03 0 0 -0.03 0.758 -0.716 0.01 0 0 -0.01c1.338,-1.254 2.703,-2.494 4.087,-3.721l0.009 0 0 -0.008c0.419,-0.371 0.836,-0.743 1.261,-1.111l0.019 0 0 -0.017c0.928,-0.809 1.868,-1.612 2.817,-2.408 0.668,-0.562 1.34,-1.122 2.018,-1.678l0.029 0 0 -0.024c1.922,-1.573 3.882,-3.119 5.881,-4.639l0.007 0 0 -0.006 0.242 -0.181 0.014 0 0 -0.011 0.235 -0.175 0.022 0 0 -0.017 0.228 -0.17 0.027 0 0 -0.021c1.749,-1.318 3.525,-2.619 5.33,-3.897l0.046 0 0 -0.031 0.221 -0.154 0.035 0 0 -0.025 0.233 -0.162 0.023 0 0 -0.017 0.244 -0.17 0.012 0 0 -0.008 0.255 -0.178 0.001 0 0 -0.002c1.259,-0.879 2.531,-1.749 3.817,-2.61l0.023 0 0 -0.015 0.254 -0.17 0.002 0 0 -0.003c0.846,-0.563 1.7,-1.121 2.557,-1.677l0.003 0 0 -0.002c0.675,-0.437 1.352,-0.872 2.033,-1.303l0.015 0 0 -0.009c0.588,-0.372 1.175,-0.743 1.768,-1.11l0.024 0 0 -0.016c0.496,-0.307 0.997,-0.612 1.496,-0.917l0.04 0 0 -0.025c1.016,-0.619 2.039,-1.233 3.069,-1.841l0.003 0 0 0c0.423,-0.251 0.848,-0.498 1.273,-0.745l0.007 0 0 -0.004c0.426,-0.248 0.848,-0.497 1.277,-0.742l0.003 0 0 -0.003c0.327,-0.188 0.659,-0.371 0.987,-0.557l0.037 0 0 -0.021c1.097,-0.622 2.202,-1.236 3.313,-1.844l0.015 0 0 -0.008 1.015 -0.552 0.009 0 0 -0.005c0.34,-0.184 0.677,-0.372 1.019,-0.555l0.006 0 0 -0.002c0.585,-0.314 1.18,-0.62 1.77,-0.93l0.021 0 0 -0.011c1.438,-0.754 2.886,-1.497 4.347,-2.228l0.005 0 0 -0.002c0.246,-0.123 0.488,-0.248 0.734,-0.37l0.035 0 0 -0.017c0.24,-0.12 0.488,-0.238 0.73,-0.356l0.037 0 0 -0.018 0.731 -0.356 0.037 0 0 -0.018c1.676,-0.816 3.363,-1.621 5.066,-2.407l0.054 0 0 -0.025 0.76 -0.348 0.008 0 0 -0.003c1.524,-0.695 3.061,-1.377 4.608,-2.048l0 0 0 -0.001c1.014,-0.439 2.032,-0.875 3.055,-1.305l0.017 0 0 -0.007c0.592,-0.248 1.185,-0.495 1.78,-0.739l0.012 0 0 -0.005c0.76,-0.312 1.524,-0.621 2.288,-0.928l0.016 0 0 -0.005c1.096,-0.44 2.198,-0.873 3.305,-1.3l0.023 0 0 -0.009 0.466 -0.178 0.047 0 0 -0.017c4.101,-1.572 8.272,-3.06 12.51,-4.459l0.033 0 0 -0.011c0.752,-0.248 1.506,-0.493 2.262,-0.736l0.042 0 0 -0.013c1.779,-0.569 3.571,-1.125 5.373,-1.665l0.003 0 0 -0.001c0.413,-0.123 0.823,-0.25 1.235,-0.372l0.045 0 0 -0.013c0.416,-0.122 0.837,-0.239 1.255,-0.361l0.025 0 0 -0.007 1.273 -0.366 0.007 0 0 -0.001c1.339,-0.381 2.684,-0.754 4.035,-1.117l0.061 0 0 -0.017c0.68,-0.183 1.361,-0.365 2.044,-0.543l0.004 0 0 -0.001 0.721 -0.186 0.047 0 0 -0.011c2.771,-0.717 5.568,-1.396 8.385,-2.039l0.063 0 0 -0.015 0.756 -0.173 0.012 0 0 -0.002c0.84,-0.189 1.681,-0.374 2.525,-0.557l0.035 0 0 -0.008c0.569,-0.123 1.139,-0.245 1.71,-0.365l0.082 0 0 -0.018c0.57,-0.119 1.141,-0.239 1.713,-0.355l0.079 0 0 -0.017c0.596,-0.121 1.194,-0.238 1.791,-0.356l0.001 0c2.689,-0.531 5.397,-1.029 8.123,-1.492l0.069 0 0 -0.012 1.023 -0.175 0.001 0c1.162,-0.193 2.331,-0.378 3.5,-0.56l0.084 0 0 -0.013c0.367,-0.057 0.733,-0.118 1.101,-0.173l0.178 0 0 -0.028c1.687,-0.254 3.384,-0.49 5.084,-0.718l0.037 0 0 -0.005c0.468,-0.062 0.938,-0.121 1.407,-0.181l0.129 0 0 -0.017c2.617,-0.337 5.248,-0.642 7.893,-0.916l0.043 0 0 -0.004c0.596,-0.062 1.194,-0.124 1.792,-0.183l0 0c0.659,-0.064 1.32,-0.126 1.98,-0.187l0.067 0 0 -0.006c0.682,-0.062 1.365,-0.121 2.047,-0.18l0.002 0c0.763,-0.065 1.528,-0.127 2.294,-0.187l0.01 0 0 0c0.831,-0.065 1.663,-0.127 2.498,-0.186l0.318 0 0 -0.024c3.331,-0.23 6.684,-0.406 10.055,-0.535l0.441 0 0 -0.015c2.103,-0.077 4.213,-0.133 6.329,-0.172l1.35 0 0 -0.027c1.495,-0.023 2.993,-0.03 4.495,-0.03 1.234,0 2.467,0.009 3.698,0.023l0 0.034 2.367 0c2.034,0.037 4.061,0.093 6.081,0.167l0 0.02 0.545 0c1.187,0.045 2.37,0.097 3.55,0.155l0 0.03 0.592 0c1.085,0.057 2.169,0.117 3.249,0.183l0 0.004 0.082 0c0.912,0.057 1.824,0.116 2.734,0.179l0 0.008 0.122 0c0.728,0.051 1.455,0.105 2.182,0.162l0 0.024 0.336 0c0.657,0.052 1.312,0.106 1.968,0.161l0 0.026 0.315 0c0.664,0.056 1.326,0.116 1.989,0.177l0 0.009 0.114 0c0.645,0.06 1.29,0.119 1.934,0.183l0 0.004 0.043 0c0.583,0.057 1.167,0.114 1.749,0.174l0 0.013 0.122 0 1.414 0.151 0 0.035 0.323 0 1.468 0.164 0 0.022 0.193 0 1.344 0.157 0 0.03 0.269 0c1.451,0.174 2.897,0.359 4.339,0.552l0 0.008 0.065 0 1.215 0.165 0 0.021 0.152 0 1.128 0.158 0 0.029 0.208 0 1.071 0.155 0 0.032 0.211 0 1.07 0.158 0 0.028 0.191 0 1.089 0.167 0 0.019 0.121 0c1.158,0.179 2.312,0.365 3.462,0.556l0 0.004 0.028 0 0.997 0.167 0 0.02 0.113 0 0.911 0.157 0 0.029 0.167 0 0.856 0.147 0 0.039 0.215 0c1.987,0.353 3.963,0.725 5.93,1.115l0 0.005 0.03 0c0.589,0.117 1.176,0.233 1.762,0.353l0 0.02 0.096 0c0.566,0.114 1.132,0.23 1.696,0.348l0 0.025 0.114 0c0.56,0.118 1.119,0.239 1.677,0.359l0 0.014 0.064 0c4.911,1.063 9.757,2.237 14.529,3.521l0 0.023 0.084 0 0.684 0.186 0.001 0 1.279 0.352 0 0.021 0.081 0 1.199 0.336 0 0.037 0.13 0 0.638 0.181 0 0.005 0.022 0 1.258 0.361 0 0.012 0.043 0c0.841,0.244 1.681,0.493 2.517,0.742l0 0.005 0.016 0c0.593,0.178 1.184,0.356 1.776,0.537l0 0.023 0.072 0c0.574,0.176 1.148,0.353 1.72,0.532l0 0.027 0.085 0c0.57,0.179 1.139,0.361 1.707,0.543l0 0.016 0.054 0c1.699,0.547 3.388,1.104 5.066,1.677l0 0.003 0.008 0 0.504 0.172 0 0.014 0.036 0 0.476 0.165 0 0.021 0.062 0 0.449 0.156 0 0.031 0.089 0 0.424 0.147 0 0.04 0.115 0c2.373,0.832 4.724,1.692 7.053,2.579l0 0.032 0.084 0 0.428 0.164 0 0.022 0.057 0 0.455 0.176 0 0.011 0.029 0 0.482 0.185 0 0.001 0.004 0c0.77,0.299 1.536,0.6 2.3,0.904l0 0.029 0.073 0 0.44 0.177 0 0.009 0.026 0c1.364,0.547 2.722,1.103 4.069,1.668l0 0.011 0.028 0c0.419,0.176 0.836,0.355 1.253,0.532l0 0.027 0.064 0 1.216 0.521 0 0.039 0.09 0 0.422 0.184 0 0.003 0.008 0c0.424,0.184 0.849,0.367 1.272,0.554l0 0.005 0.012 0c1.111,0.49 2.216,0.988 3.316,1.49l0 0.002 0.007 0 0.761 0.348 0 0.025 0.055 0c0.666,0.308 1.331,0.618 1.993,0.929l0 0.005 0.007 0 0.761 0.361 0 0.012 0.023 0 0.745 0.354 0 0.018 0.037 0 0.731 0.351 0 0.023 0.046 0c1.013,0.49 2.023,0.988 3.026,1.488l0 0.003 0.007 0c0.597,0.299 1.191,0.6 1.785,0.902l0 0.031 0.062 0 0.705 0.36 0 0.013 0.026 0c0.591,0.303 1.18,0.61 1.767,0.917l0 0.016 0.029 0c0.934,0.489 1.863,0.984 2.786,1.483l0 0.009 0.017 0 1.008 0.549 0 0.011 0.022 0 1.002 0.551 0 0.008 0.015 0c0.423,0.233 0.844,0.468 1.265,0.703l0 0.043 0.078 0 0.946 0.536 0 0.024 0.043 0 0.981 0.556 0 0.004 0.006 0c0.427,0.243 0.851,0.491 1.274,0.738l0 0.008 0.014 0 0.634 0.366 0.618 -0.554 0.014 0 0 -0.013c0.414,-0.369 0.831,-0.738 1.25,-1.105l0.03 0 0 -0.026 0.183 -0.161 0.073 0 0 -0.063 0.143 -0.123 0.113 0 0 -0.098 0.752 -0.649 0.016 0 0 -0.013 0.204 -0.173 0.052 0 0 -0.044 0.169 -0.143 0.087 0 0 -0.074 0.132 -0.112 0.124 0 0 -0.104 0.097 -0.082 0.159 0 0 -0.135 0.511 -0.425 0.001 0 0 -0.002 0.224 -0.184 0.032 0 0 -0.027 0.193 -0.159 0.063 0 0 -0.053 0.161 -0.135 0.095 0 0 -0.077 0.135 -0.109 0.121 0 0 -0.099c0.418,-0.342 0.84,-0.681 1.262,-1.02l0.018 0 0 -0.014 0.216 -0.173 0.04 0 0 -0.032 0.195 -0.154 0.061 0 0 -0.051c1.093,-0.864 2.201,-1.718 3.325,-2.561l0.003 0 0 -0.003 0.242 -0.183 0.014 0 0 -0.009 0.239 -0.177 0.017 0 0 -0.014 0.235 -0.173 0.021 0 0 -0.015 0.232 -0.172 0.024 0 0 -0.018 0.228 -0.168 0.028 0 0 -0.022 0.224 -0.164 0.032 0 0 -0.024 0.225 -0.163 0.031 0 0 -0.022 0.226 -0.164 0.03 0 0 -0.022 0.228 -0.165 0.028 0 0 -0.021 0.228 -0.166 0.028 0 0 -0.019 0.232 -0.167 0.024 0 0 -0.016 0.238 -0.171 0.018 0 0 -0.013 0.245 -0.174 0.011 0 0 -0.008 0.251 -0.178 0.005 0 0 -0.004c1.886,-1.337 3.814,-2.64 5.78,-3.913l0.108 0 0 -0.07 0.181 -0.116 0.075 0 0 -0.049 0.213 -0.138 0.043 0 0 -0.028 0.248 -0.158 0.008 0 0 -0.005 0.875 -0.555 0.149 0 0 -0.095 0.147 -0.092 0.109 0 0 -0.067 0.19 -0.119 0.066 0 0 -0.04 0.234 -0.146 0.022 0 0 -0.014 0.578 -0.36 0.19 0 0 -0.116 0.115 -0.07 0.141 0 0 -0.086 0.165 -0.101 0.091 0 0 -0.054 0.215 -0.132 0.041 0 0 -0.026 0.886 -0.534 0.138 0 0 -0.082 0.173 -0.104 0.083 0 0 -0.049 0.23 -0.137 0.026 0 0 -0.018 0.923 -0.542 0.101 0 0 -0.06 0.217 -0.127 0.039 0 0 -0.023c1.07,-0.623 2.153,-1.237 3.243,-1.842l0.085 0 0 -0.047 0.251 -0.139 0.005 0 0 -0.003 0.673 -0.37 0.095 0 0 -0.052 0.25 -0.135 0.006 0 0 -0.004 0.337 -0.183 0.175 0 0 -0.095 0.168 -0.091 0.088 0 0 -0.048 0.611 -0.326 0.157 0 0 -0.083 0.194 -0.103 0.062 0 0 -0.033 0.644 -0.339 0.124 0 0 -0.065 0.234 -0.122 0.022 0 0 -0.012 0.336 -0.175 0.176 0 0 -0.092 0.182 -0.095 0.074 0 0 -0.039 0.655 -0.333 0.113 0 0 -0.058 0.252 -0.129 0.004 0 0 -0.002 0.363 -0.185 0.149 0 0 -0.075 0.222 -0.111 0.034 0 0 -0.017 0.712 -0.356 0.056 0 0 -0.028c0.998,-0.496 2.001,-0.983 3.013,-1.464l0.059 0 0 -0.028 0.736 -0.345 0.032 0 0 -0.016 0.364 -0.171 0.148 0 0 -0.069 0.252 -0.117 0.004 0 0 -0.002 0.402 -0.185 0.11 0 0 -0.051 0.296 -0.136 0.216 0 0 -0.099 0.189 -0.087 0.067 0 0 -0.031 0.345 -0.156 0.167 0 0 -0.074 0.248 -0.112 0.008 0 0 -0.003 0.405 -0.183 0.107 0 0 -0.049 0.312 -0.139 0.2 0 0 -0.087 0.224 -0.099 0.032 0 0 -0.014 0.391 -0.172 0.121 0 0 -0.053 0.303 -0.134 0.209 0 0 -0.089 0.224 -0.096 0.032 0 0 -0.015 0.4 -0.173 0.112 0 0 -0.048 0.32 -0.137 0.192 0 0 -0.083 0.248 -0.105 0.008 0 0 -0.003 0.435 -0.183 0.077 0 0 -0.033c0.42,-0.176 0.841,-0.352 1.263,-0.526l0.017 0 0 -0.007c0.756,-0.313 1.515,-0.621 2.278,-0.926l0.026 0 0 -0.011 0.446 -0.176 0.066 0 0 -0.026 0.408 -0.16 0.104 0 0 -0.041 0.37 -0.145 0.142 0 0 -0.057 0.339 -0.13 0.173 0 0 -0.067 0.312 -0.119 0.2 0 0 -0.078 0.284 -0.11 0.228 0 0 -0.087 0.266 -0.099 0.246 0 0 -0.093 0.249 -0.093 0.263 0 0 -0.099 0.234 -0.088 0.278 0 0 -0.104 0.226 -0.082 0.286 0 0 -0.106 0.222 -0.081 0.034 0 0 -0.013 0.475 -0.174 0.037 0 0 -0.014 0.478 -0.172 0.034 0 0 -0.012 0.488 -0.174 0.024 0 0 -0.008 0.498 -0.179 0.014 0 0 -0.005c1.254,-0.444 2.517,-0.878 3.787,-1.301l0.053 0 0 -0.017 0.51 -0.169 0.002 0 0 -0.001 1.141 -0.373 0.139 0 0 -0.045 0.436 -0.141 0.076 0 0 -0.024 0.51 -0.163 0.258 0 0 -0.081 0.335 -0.105 0.177 0 0 -0.056 0.417 -0.131 0.095 0 0 -0.029 0.512 -0.158 0.256 0 0 -0.077 0.352 -0.108 0.16 0 0 -0.05 0.454 -0.137 0.314 0 0 -0.092 0.313 -0.094 0.199 0 0 -0.06 0.427 -0.127 0.085 0 0 -0.025 0.555 -0.161 0.213 0 0 -0.062 0.432 -0.125 0.08 0 0 -0.023 0.571 -0.164 0.197 0 0 -0.055 0.466 -0.131 0.046 0 0 -0.012 0.617 -0.175 0.151 0 0 -0.041c1.102,-0.306 2.21,-0.602 3.322,-0.892l0.006 0 0 -0.001 0.72 -0.185 0.048 0 0 -0.012 0.681 -0.174 0.087 0 0 -0.023 0.664 -0.164 0.36 0 0 -0.089 0.39 -0.097 0.378 0 0 -0.093 0.393 -0.094 0.375 0 0 -0.09 0.398 -0.096 0.37 0 0 -0.088 0.426 -0.098 0.342 0 0 -0.081 0.461 -0.106 0.307 0 0 -0.072 0.514 -0.114 0.254 0 0 -0.058 0.577 -0.13 0.191 0 0 -0.043 0.662 -0.143 0.106 0 0 -0.023 0.755 -0.163 0.013 0 0 -0.004c0.596,-0.127 1.193,-0.252 1.792,-0.375l0 218.424 -1920 0z"/>
   <path class="fil1" d="M0 551.492l0 -398.465c0.934,-0.483 1.872,-0.962 2.811,-1.438l0.005 0 0 -0.003 0.733 -0.371 0.035 0 0 -0.017c2.11,-1.066 4.235,-2.117 6.375,-3.153l0.025 0 0 -0.013 0.749 -0.361 0.019 0 0 -0.008 0.756 -0.365 0.012 0 0 -0.005 0.764 -0.368 0.004 0 0 -0.002c2.111,-1.008 4.236,-2.002 6.374,-2.982l0.026 0 0 -0.012c0.674,-0.309 1.352,-0.615 2.029,-0.921l0.019 0 0 -0.008c1.945,-0.88 3.9,-1.748 5.867,-2.603l0.021 0 0 -0.009 1.268 -0.55 0.012 0 0 -0.006c2.79,-1.203 5.601,-2.383 8.432,-3.538l0.016 0 0 -0.007c0.759,-0.31 1.518,-0.62 2.28,-0.926l0.024 0 0 -0.01c2.036,-0.818 4.083,-1.622 6.14,-2.415l0.004 0 0 -0.002 0.476 -0.184 0.036 0 0 -0.014c5.219,-2.006 10.508,-3.927 15.858,-5.769l0.014 0 0 -0.004c1.273,-0.439 2.549,-0.872 3.83,-1.301l0.01 0 0 -0.003c1.692,-0.567 3.391,-1.126 5.096,-1.676l0.024 0 0 -0.008c1.359,-0.438 2.722,-0.87 4.09,-1.298l0.006 0 0 -0.002c1.61,-0.504 3.226,-1.001 4.847,-1.49l0.017 0 0 -0.005 1.219 -0.368 0.061 0 0 -0.017c2.541,-0.76 5.097,-1.499 7.663,-2.221l0.017 0 0 -0.005 1.985 -0.555 0.063 0 0 -0.017c2.279,-0.631 4.568,-1.246 6.865,-1.848l0.047 0 0 -0.012c1.189,-0.311 2.38,-0.618 3.573,-0.921l0.011 0 0 -0.002 0.72 -0.184 0.048 0 0 -0.013c2.783,-0.701 5.58,-1.381 8.391,-2.039l0.057 0 0 -0.013 0.747 -0.173 0.021 0 0 -0.005c2.187,-0.509 4.381,-1.005 6.584,-1.487l0.072 0 0 -0.016c0.835,-0.182 1.671,-0.365 2.509,-0.544l0.051 0 0 -0.011c1.775,-0.379 3.556,-0.747 5.341,-1.108l0.035 0 0 -0.007c0.918,-0.186 1.836,-0.371 2.757,-0.552l0.059 0 0 -0.012c2.604,-0.513 5.22,-1.006 7.844,-1.481l0.092 0 0 -0.016 0.949 -0.17 0.075 0 0 -0.013 0.969 -0.174 0.055 0 0 -0.01 0.992 -0.177 0.032 0 0 -0.005c2.204,-0.385 4.415,-0.755 6.633,-1.114l0.023 0 0 -0.003c1.169,-0.19 2.34,-0.374 3.513,-0.556l0.071 0 0 -0.011c2.931,-0.454 5.872,-0.887 8.827,-1.295l0.133 0 0 -0.018 1.257 -0.168 0.023 0 0 -0.003c3.443,-0.466 6.9,-0.902 10.374,-1.303l0.122 0 0 -0.014c2.237,-0.258 4.481,-0.501 6.731,-0.732l0.181 0 0 -0.019 1.669 -0.168 0.123 0 0 -0.012 1.785 -0.174 0.007 0 0 -0.001c1.346,-0.128 2.694,-0.253 4.045,-0.372l0.051 0 0 -0.005c0.705,-0.062 1.41,-0.122 2.117,-0.182l0.187 0 0 -0.015c3.225,-0.271 6.461,-0.515 9.71,-0.731l0.274 0 0 -0.019c0.892,-0.058 1.785,-0.113 2.677,-0.168l0.139 0 0 -0.008c2.209,-0.134 4.423,-0.256 6.641,-0.364l0.271 0 0 -0.013c1.292,-0.062 2.585,-0.12 3.879,-0.174l0.217 0 0 -0.008c1.63,-0.067 3.263,-0.126 4.897,-0.178l0.479 0 0 -0.016c5.852,-0.184 11.734,-0.279 17.649,-0.279 2.057,0 4.109,0.015 6.159,0.038l0 0.07 4.762 0c1.915,0.037 3.825,0.085 5.734,0.142l0 0.045 1.414 0c1.493,0.047 2.985,0.101 4.474,0.161l0 0.025 0.627 0c0.986,0.041 1.972,0.082 2.957,0.128l0 0.059 1.205 0c0.708,0.034 1.416,0.067 2.123,0.104l0 0.082 1.528 0c0.686,0.039 1.37,0.08 2.056,0.121l0 0.065 1.133 0c0.732,0.045 1.464,0.092 2.195,0.139l0 0.048 0.715 0c1.728,0.114 3.452,0.237 5.173,0.368l0 0.005 0.079 0c0.656,0.05 1.314,0.099 1.969,0.151l0 0.036 0.474 0 1.574 0.131 0 0.055 0.644 0 1.404 0.12 0 0.067 0.783 0 1.265 0.111 0 0.076 0.796 0 1.252 0.118 0 0.068 0.722 0c0.442,0.043 0.885,0.082 1.326,0.125l0 0.061 0.625 0c0.475,0.047 0.948,0.1 1.423,0.148l0 0.039 0.379 0 1.669 0.173 0 0.014 0.133 0c1.066,0.113 2.132,0.231 3.195,0.35l0 0.023 0.208 0 1.328 0.149 0 0.037 0.325 0 1.211 0.139 0 0.048 0.391 0 1.145 0.139 0 0.047 0.386 0 0.894 0.109 0 0.078 0.637 0 0.899 0.109 0 0.077 0.6 0 0.936 0.122 0 0.064 0.489 0 1.047 0.138 0 0.049 0.378 0 0.902 0.119 0 0.068 0.523 0 1.013 0.14 0 0.046 0.33 0 1.206 0.17 0 0.016 0.123 0c1.67,0.235 3.335,0.476 4.997,0.725l0 0.022 0.14 0 1.14 0.17 0 0.016 0.109 0 0.915 0.139 0 0.048 0.304 0 0.72 0.114 0 0.073 0.457 0 0.823 0.13 0 0.056 0.354 0 0.67 0.107 0 0.079 0.504 0 0.776 0.124 0 0.063 0.377 0 0.647 0.108 0 0.078 0.465 0 0.815 0.138 0 0.049 0.297 0 0.727 0.122 0 0.064 0.382 0c0.299,0.051 0.6,0.099 0.898,0.151l0 0.036 0.209 0 0.815 0.145 0 0.041 0.237 0 1.043 0.186 0 0.001 0.01 0 1.014 0.18 0 0.007 0.038 0c1.013,0.181 2.025,0.365 3.034,0.552l0 0.007 0.038 0 0.986 0.184 0 0.003 0.014 0 0.754 0.141 0 0.045 0.244 0 0.78 0.145 0 0.042 0.22 0 0.804 0.156 0 0.03 0.154 0 0.614 0.121 0 0.066 0.338 0 0.686 0.134 0 0.053 0.266 0 0.758 0.148 0 0.038 0.192 0 0.576 0.113 0 0.073 0.375 0 0.649 0.133 0 0.054 0.262 0 0.506 0.104 0 0.082 0.401 0 0.623 0.129 0 0.058 0.282 0 0.742 0.152 0 0.034 0.166 0 0.602 0.124 0 0.063 0.306 0 0.718 0.153 0 0.033 0.158 0 0.866 0.187 0 0 0.002 0 0.766 0.165 0 0.022 0.099 0c1.678,0.36 3.352,0.729 5.021,1.106l0 0.013 0.056 0 0.712 0.159 0 0.027 0.12 0 0.648 0.146 0 0.041 0.183 0 0.585 0.137 0 0.049 0.212 0 0.556 0.13 0 0.057 0.241 0 0.527 0.123 0 0.063 0.27 0 0.498 0.117 0 0.07 0.298 0 0.47 0.11 0 0.076 0.325 0 0.443 0.104 0 0.083 0.349 0 0.419 0.102 0 0.085 0.347 0 0.677 0.165 0 0.021 0.088 0 0.68 0.166 0 0.021 0.084 0 0.684 0.166 0 0.02 0.08 0 0.688 0.168 0 0.018 0.077 0 0.691 0.17 0 0.017 0.07 0 0.698 0.177 0 0.01 0.037 0 0.731 0.185 0 0.001 0.003 0c1.453,0.367 2.903,0.738 4.349,1.117l0 0.002 0.008 0 1.272 0.336 0 0.038 0.144 0 0.624 0.164 0 0.021 0.081 0 0.687 0.181 0 0.006 0.022 0 0.49 0.131 0 0.056 0.203 0 0.565 0.154 0 0.033 0.118 0 0.65 0.177 0 0.009 0.032 0 0.48 0.131 0 0.055 0.201 0 0.567 0.155 0 0.032 0.116 0 0.396 0.108 0 0.078 0.287 0 0.481 0.132 0 0.055 0.202 0 0.566 0.161 0 0.025 0.09 0 0.422 0.12 0 0.067 0.236 0 0.532 0.15 0 0.036 0.127 0 0.385 0.109 0 0.078 0.274 0 0.494 0.14 0 0.047 0.164 0 0.604 0.171 0 0.015 0.053 0 0.46 0.131 0 0.055 0.194 0 0.573 0.169 0 0.018 0.063 0 1.217 0.358 0 0.015 0.052 0 1.228 0.36 0 0.013 0.044 0c1.012,0.3 2.02,0.602 3.028,0.908l0 0.025 0.082 0 1.198 0.364 0 0.009 0.03 0 0.482 0.146 0 0.04 0.133 0 1.147 0.354 0 0.019 0.062 0 0.45 0.142 0 0.045 0.145 0 0.367 0.115 0 0.071 0.226 0 0.542 0.171 0 0.016 0.052 0 0.46 0.144 0 0.043 0.134 0 0.378 0.119 0 0.067 0.216 0 0.552 0.174 0 0.012 0.041 0 0.471 0.151 0 0.036 0.113 0 0.399 0.13 0 0.057 0.176 0 0.336 0.108 0 0.078 0.24 0 0.528 0.172 0 0.015 0.048 0 0.464 0.15 0 0.036 0.11 0 0.402 0.13 0 0.057 0.174 0c0.368,0.12 0.738,0.237 1.106,0.358l0 0.015 0.045 0 0.467 0.157 0 0.029 0.089 0 0.423 0.142 0 0.045 0.135 0 1.657 0.554 0 0.005 0.015 0c1.279,0.43 2.553,0.866 3.825,1.304l0 0.002 0.005 0 0.507 0.175 0 0.012 0.034 0 0.479 0.164 0 0.022 0.062 0 0.449 0.155 0 0.031 0.09 0 0.422 0.146 0 0.041 0.114 0 0.398 0.141 0 0.046 0.127 0 0.385 0.137 0 0.049 0.14 0 0.372 0.132 0 0.054 0.151 0 0.361 0.129 0 0.058 0.163 0 0.349 0.124 0 0.063 0.176 0 0.336 0.119 0 0.067 0.189 0 0.324 0.115 0 0.072 0.201 0 0.31 0.111 0 0.075 0.212 0 0.3 0.11 0 0.077 0.209 0 0.303 0.111 0 0.075 0.206 0 0.306 0.112 0 0.075 0.204 0 0.308 0.113 0 0.073 0.2 0 0.312 0.115 0 0.072 0.197 0 0.315 0.115 0 0.071 0.193 0 0.319 0.117 0 0.07 0.191 0 0.322 0.118 0 0.069 0.187 0 0.324 0.12 0 0.066 0.173 0c2.259,0.842 4.505,1.702 6.739,2.574l0 0.037 0.096 0 0.416 0.162 0 0.025 0.064 0 0.448 0.174 0 0.012 0.033 0 1.247 0.495 0 0.065 0.161 0 0.351 0.14 0 0.046 0.116 0 0.396 0.158 0 0.029 0.072 0 0.44 0.176 0 0.01 0.026 0 0.742 0.297 0 0.077 0.192 0 0.32 0.127 0 0.059 0.148 0 0.364 0.147 0 0.04 0.096 0 0.416 0.17 0 0.016 0.037 0 0.731 0.3 0 0.073 0.179 0 0.333 0.138 0 0.049 0.121 0 0.391 0.161 0 0.025 0.062 0 0.45 0.185 0 0.002 0.005 0 0.763 0.313 0 0.06 0.145 0 0.367 0.152 0 0.034 0.082 0 0.43 0.182 0 0.004 0.012 0 1.268 0.536 0 0.025 0.059 0c1.437,0.605 2.868,1.218 4.293,1.836l0 0.028 0.066 0 1.214 0.527 0 0.033 0.078 0 1.202 0.529 0 0.03 0.069 0 0.699 0.311 0 0.063 0.14 0 0.372 0.166 0 0.02 0.046 0 0.722 0.321 0 0.052 0.117 0 0.395 0.176 0 0.011 0.024 0 0.232 0.103 0 0.084 0.187 0 0.325 0.144 0 0.042 0.093 0 0.676 0.308 0 0.065 0.141 0 0.37 0.169 0 0.018 0.038 0 0.73 0.333 0 0.039 0.086 0 0.682 0.312 0 0.061 0.135 0 0.377 0.173 0 0.014 0.032 0 0.736 0.337 0 0.036 0.077 0 0.691 0.324 0 0.049 0.106 0 1.174 0.551 0 0.009 0.019 0c1.795,0.841 3.582,1.691 5.357,2.553l0 0.058 0.121 0 0.648 0.315 0 0.058 0.117 0 0.65 0.32 0 0.053 0.107 0 0.661 0.326 0 0.047 0.096 0 0.673 0.332 0 0.041 0.082 0 0.685 0.338 0 0.035 0.072 0 0.696 0.346 0 0.027 0.054 0 0.202 0.103 0 0.084 0.167 0 0.346 0.175 0 0.012 0.023 0 0.232 0.117 0 0.069 0.137 0 0.631 0.319 0 0.054 0.106 0 0.662 0.335 0 0.038 0.076 0 0.692 0.35 0 0.023 0.045 0 0.723 0.371 0 0.002 0.005 0 0.251 0.13 0 0.057 0.109 0 0.659 0.342 0 0.03 0.06 0 0.708 0.368 0 0.006 0.012 0c1.282,0.665 2.558,1.337 3.828,2.013l0 0.038 0.072 0 0.696 0.37 0 0.003 0.007 0 0.249 0.133 0 0.054 0.102 0 0.666 0.356 0 0.017 0.031 0 0.225 0.123 0 0.063 0.118 0 0.65 0.354 0 0.019 0.035 0 0.221 0.121 0 0.066 0.121 0 0.647 0.352 0 0.021 0.039 0 0.217 0.118 0 0.069 0.126 0 0.643 0.35 0 0.023 0.042 0 0.213 0.116 0 0.07 0.129 0 0.639 0.354 0 0.019 0.034 0 0.222 0.124 0 0.063 0.112 0 0.656 0.366 0 0.007 0.014 0 0.243 0.135 0 0.051 0.091 0 0.932 0.52 0 0.04 0.071 0c0.317,0.178 0.637,0.354 0.953,0.532l0 0.027 0.048 0 0.209 0.12 0 0.067 0.117 0 0.65 0.371 0 0.002 0.004 0 0.252 0.145 0 0.041 0.074 0 0.95 0.543 0 0.017 0.029 0c1.277,0.731 2.547,1.468 3.811,2.211l0 0.027 0.046 0c0.411,0.241 0.825,0.481 1.234,0.723l0 0.023 0.039 0 0.217 0.13 0 0.057 0.094 0 0.93 0.557 0 0.002 0.004 0 0.252 0.152 0 0.035 0.06 0 0.196 0.118 0 0.069 0.115 0 0.909 0.544 0 0.015 0.025 0 0.231 0.139 0 0.048 0.08 0 0.176 0.105 0 0.081 0.136 0 0.889 0.544 0 0.016 0.025 0 0.23 0.141 0 0.045 0.074 0 0.182 0.112 0 0.075 0.123 0 0.901 0.553 0 0.006 0.01 0 0.246 0.151 0 0.036 0.059 0 0.197 0.121 0 0.065 0.106 0 1.174 0.728 0 0.019 0.03 0 0.226 0.142 0 0.044 0.071 0 1.465 0.92 0 0.013 0.02 0c1.367,0.86 2.726,1.727 4.077,2.601l0 0.01 0.014 0 0.241 0.155 0 0.032 0.049 0 0.207 0.132 0 0.054 0.083 0 0.173 0.112 0 0.074 0.114 0c0.562,0.366 1.119,0.737 1.678,1.105l0 0.015 0.022 0 0.234 0.154 0 0.032 0.05 0 0.206 0.136 0 0.051 0.078 0 0.178 0.118 0 0.068 0.104 0 0.152 0.1 0 0.086 0.132 0c0.555,0.369 1.107,0.74 1.66,1.111l0 0.009 0.013 0 0.243 0.164 0 0.023 0.034 0 0.222 0.149 0 0.037 0.055 0 0.201 0.136 0 0.05 0.075 0 0.181 0.122 0 0.065 0.097 0 0.159 0.107 0 0.08 0.118 0c0.818,0.553 1.63,1.111 2.443,1.669l0 0.009 0.013 0 0.242 0.167 0 0.02 0.029 0 0.227 0.156 0 0.03 0.043 0c0.444,0.305 0.89,0.611 1.332,0.918l1.896 -0.172 0.313 0 0 -0.028 1.85 -0.158 0.967 0 0 -0.08 1.333 -0.107 1.226 0 0 -0.094 1.242 -0.092 1.574 0 0 -0.113 1.087 -0.074 1.473 0 0 -0.096 1.441 -0.09 1.375 0 0 -0.081 1.896 -0.106 0.664 0 0 -0.035c1.044,-0.054 2.089,-0.104 3.136,-0.151l0.704 0 0 -0.031c1.326,-0.058 2.654,-0.11 3.984,-0.156l3.952 0 0 -0.12c0.994,-0.025 1.99,-0.048 2.986,-0.067l4.95 0 0 -0.068c1.243,-0.01 2.487,-0.015 3.733,-0.015 1.576,0 3.144,0.027 4.716,0.043l0 0.04 3.955 0c2.016,0.038 4.022,0.103 6.028,0.167l0 0.02 0.718 0c1.385,0.047 2.765,0.105 4.146,0.164l0 0.023 0.494 0c0.946,0.041 1.891,0.083 2.834,0.13l0 0.056 1.209 0c0.793,0.042 1.584,0.086 2.375,0.132l0 0.055 0.847 0c0.829,0.049 1.655,0.106 2.481,0.161l0 0.025 0.394 0c1.749,0.116 3.497,0.237 5.238,0.373 0.685,0.054 1.365,0.114 2.048,0.171l0 0.016 0.193 0c0.618,0.051 1.238,0.101 1.855,0.154l0 0.032 0.38 0c0.471,0.041 0.944,0.074 1.412,0.118l0 0.069 0.773 0c0.427,0.039 0.849,0.088 1.275,0.13l0 0.056 0.556 0c0.498,0.049 0.995,0.102 1.492,0.153l0 0.034 0.34 0c0.569,0.058 1.139,0.114 1.708,0.174l0 0.013 0.122 0c1.155,0.122 2.312,0.241 3.462,0.371l0 0.001 0.007 0c0.511,0.059 1.018,0.124 1.529,0.185l0 0.002 0.017 0c0.422,0.049 0.841,0.101 1.263,0.152l0 0.035 0.283 0 1.254 0.151 0 0.035 0.288 0c0.415,0.052 0.833,0.098 1.247,0.15l0 0.037 0.299 0c0.326,0.041 0.655,0.076 0.981,0.119l0 0.067 0.481 0c0.353,0.047 0.703,0.1 1.055,0.148l0 0.039 0.282 0c0.334,0.045 0.665,0.093 0.998,0.139l0 0.047 0.339 0 1.197 0.167 0 0.019 0.136 0c2.095,0.295 4.183,0.603 6.264,0.927l0 0.006 0.037 0 0.987 0.157 0 0.03 0.189 0 1.091 0.172 0 0.014 0.085 0c0.313,0.051 0.627,0.098 0.939,0.149l0 0.038 0.238 0c0.262,0.043 0.525,0.081 0.786,0.125l0 0.061 0.387 0 0.893 0.149 0 0.038 0.21 0c0.272,0.046 0.542,0.098 0.814,0.145l0 0.042 0.236 0 0.788 0.139 0 0.047 0.262 0 1.018 0.181 0 0.005 0.028 0 0.996 0.177 0 0.01 0.054 0 0.97 0.172 0 0.015 0.08 0c1.944,0.354 3.879,0.725 5.808,1.104l0 0.015 0.072 0c0.574,0.113 1.148,0.224 1.721,0.339l0 0.033 0.169 0 0.855 0.169 0 0.018 0.092 0c0.224,0.046 0.451,0.087 0.675,0.134l0 0.053 0.271 0 0.753 0.159 0 0.028 0.129 0c0.214,0.044 0.425,0.093 0.639,0.138l0 0.047 0.22 0c0.27,0.057 0.536,0.118 0.805,0.175l0 0.012 0.057 0 0.71 0.154 0 0.033 0.151 0 1.641 0.356 0 0.017 0.079 0c0.57,0.125 1.145,0.243 1.713,0.371l0 0.002 0.01 0c2.141,0.479 4.268,0.981 6.39,1.49l0 0.002 0.008 0 0.761 0.18 0 0.006 0.028 0c0.246,0.06 0.494,0.116 0.739,0.175l0 0.012 0.049 0c0.239,0.058 0.481,0.111 0.719,0.17l0 0.017 0.07 0c0.234,0.057 0.464,0.121 0.699,0.179l0 0.007 0.026 0 0.485 0.125 0 0.062 0.242 0 0.526 0.134 0 0.052 0.201 0 0.567 0.146 0 0.041 0.161 0 0.607 0.156 0 0.03 0.118 0 0.65 0.167 0 0.02 0.077 0 0.691 0.177 0 0.009 0.036 0c1.184,0.308 2.37,0.614 3.549,0.932l0 0.001 0.001 0c0.429,0.115 0.852,0.238 1.279,0.354l0 0.019 0.067 0c0.662,0.18 1.32,0.365 1.98,0.549l0 0.011 0.041 0c0.413,0.115 0.828,0.226 1.24,0.343l0 0.029 0.106 0 0.661 0.184 0 0.003 0.013 0 0.5 0.139 0 0.048 0.173 0 0.594 0.168 0 0.018 0.06 0c0.152,0.044 0.3,0.091 0.452,0.134l0 0.052 0.173 0 0.595 0.178 0 0.009 0.033 0 0.479 0.143 0 0.044 0.148 0 0.621 0.184 0 0.002 0.006 0 0.505 0.15 0 0.037 0.122 0 1.158 0.345 0 0.028 0.095 0c1.422,0.427 2.844,0.857 4.257,1.299l0 0.007 0.022 0c0.764,0.238 1.521,0.484 2.282,0.727l0 0.019 0.059 0 0.453 0.144 0 0.042 0.13 0c0.383,0.122 0.769,0.242 1.15,0.366l0 0.007 0.021 0 0.491 0.157 0 0.03 0.095 0 0.417 0.133 0 0.053 0.168 0 1.112 0.367 0 0.006 0.018 0 0.494 0.168 0 0.019 0.055 0 0.457 0.155 0 0.032 0.092 0 0.42 0.142 0 0.043 0.127 0c0.728,0.245 1.452,0.493 2.177,0.741l0 0.006 0.017 0 0.495 0.168 0 0.018 0.052 0c3.603,1.24 7.172,2.523 10.701,3.854l0 0.063 0.164 0 0.347 0.134 0 0.053 0.137 0 0.375 0.144 0 0.042 0.111 0 0.401 0.155 0 0.032 0.084 0 0.428 0.164 0 0.022 0.058 0 0.454 0.175 0 0.012 0.031 0 0.481 0.185 0 0.001 0.004 0c1.715,0.664 3.42,1.338 5.116,2.024l0 0.028 0.071 0 0.441 0.18 0 0.007 0.017 0 1.263 0.514 0 0.045 0.111 0 0.401 0.164 0 0.023 0.056 0 0.456 0.185 0 0.002 0.003 0c0.254,0.105 0.511,0.206 0.765,0.311l0 0.061 0.15 0 0.362 0.148 0 0.039 0.097 0 0.415 0.173 0 0.014 0.032 0c0.247,0.103 0.489,0.212 0.736,0.316l0 0.056 0.13 0 0.382 0.165 0 0.022 0.051 0c0.411,0.175 0.818,0.353 1.229,0.529l0 0.03 0.07 0 1.722 0.743 0 0.003 0.009 0c0.423,0.184 0.85,0.363 1.272,0.548l0 0.012 0.028 0c1.106,0.485 2.201,0.982 3.299,1.476l0 0.016 0.035 0c0.673,0.304 1.344,0.61 2.013,0.916l0 0.017 0.038 0 0.73 0.332 0 0.041 0.089 0c0.226,0.104 0.454,0.204 0.68,0.309l0 0.064 0.141 0 0.37 0.168 0 0.019 0.041 0 0.727 0.341 0 0.032 0.066 0c0.236,0.11 0.467,0.225 0.702,0.336l0 0.037 0.076 0 0.692 0.331 0 0.042 0.086 0 0.682 0.327 0 0.046 0.096 0c0.907,0.433 1.819,0.864 2.72,1.304l0 0.001 0.002 0c1.116,0.544 2.221,1.098 3.326,1.653l0 0.026 0.052 0 0.716 0.361 0 0.012 0.023 0c0.59,0.298 1.182,0.593 1.769,0.894l0 0.039 0.078 0c0.229,0.117 0.461,0.231 0.69,0.348l0 0.024 0.048 0c0.239,0.123 0.482,0.241 0.721,0.364l0 0.01 0.018 0 0.237 0.122 0 0.065 0.12 0c0.218,0.113 0.431,0.231 0.648,0.344l0 0.028 0.054 0c0.326,0.17 0.645,0.345 0.97,0.516l0 0.044 0.084 0 0.684 0.364 0 0.009 0.017 0 1.007 0.535 0 0.025 0.047 0c0.581,0.31 1.167,0.614 1.745,0.927l0 0.005 0.009 0c0.682,0.369 1.361,0.742 2.039,1.115l0 0.004 0.008 0c0.77,0.424 1.532,0.855 2.296,1.283l0 0.023 0.041 0 0.983 0.549 0 0.011 0.019 0 0.237 0.132 0 0.054 0.097 0c0.307,0.174 0.621,0.343 0.927,0.518l0 0.042 0.074 0 0.95 0.545 0 0.014 0.024 0 0.232 0.136 0 0.051 0.086 0c0.316,0.181 0.624,0.368 0.938,0.55l0 0.009 0.015 0 0.241 0.141 0 0.046 0.078 0 0.946 0.555 0 0.005 0.008 0c1.98,1.161 3.939,2.339 5.88,3.533l0 0.01 0.017 0 0.239 0.148 0 0.039 0.064 0c0.491,0.302 0.984,0.602 1.472,0.907l0 0.025 0.042 0 0.214 0.133 0 0.054 0.089 0c0.395,0.248 0.797,0.489 1.191,0.738l0 0.008 0.013 0 0.244 0.157 0 0.03 0.045 0 0.21 0.136 0 0.05 0.078 0 0.178 0.115 0 0.071 0.11 0c0.479,0.305 0.95,0.616 1.426,0.922l0 0.011 0.018 0 0.239 0.154 0 0.033 0.049 0c0.667,0.43 1.337,0.858 1.998,1.291l0 0.014 0.021 0c0.938,0.615 1.868,1.236 2.795,1.859l0 0.007 0.01 0 0.246 0.167 0 0.019 0.029 0 0.227 0.155 0 0.032 0.048 0c1.011,0.681 2.025,1.36 3.024,2.051l0 0 0.001 0 0.255 0.174 0 0.013 0.02 0 0.236 0.161 0 0.026 0.038 0 0.219 0.155 0 0.031 0.044 0 0.211 0.15 0 0.036 0.05 0 0.206 0.147 0 0.04 0.057 0 0.199 0.142 0 0.045 0.063 0 0.193 0.137 0 0.049 0.069 0 0.187 0.133 0 0.053 0.074 0 0.182 0.129 0 0.058 0.081 0c2.487,1.754 4.933,3.537 7.343,5.347l0 0.062 0.083 0 0.173 0.129 0 0.058 0.077 0 0.179 0.133 0 0.053 0.071 0 0.185 0.138 0 0.049 0.065 0 0.191 0.143 0 0.043 0.059 0 0.197 0.147 0 0.04 0.053 0 0.203 0.152 0 0.034 0.047 0 0.209 0.156 0 0.031 0.041 0 0.215 0.164 0 0.022 0.029 0 0.227 0.178 0 0.009 0.012 0c1.031,0.79 2.043,1.595 3.06,2.396l0 0.029 0.037 0 0.219 0.171 0 0.015 0.02 0 0.236 0.186 0 0 0.002 0c0.858,0.68 1.712,1.36 2.558,2.046l0 0.007 0.008 0c0.514,0.415 1.019,0.836 1.528,1.254l0 0.051 0.062 0 0.194 0.159 0 0.027 0.033 0 0.223 0.183 0 0.004 0.005 0c0.423,0.35 0.855,0.696 1.275,1.047l0 0.073 0.088 0 0.168 0.138 0 0.048 0.059 0 0.197 0.161 0 0.025 0.03 0 0.226 0.186 0 0.001 0.002 0c0.259,0.218 0.508,0.442 0.766,0.66l0 0.086 0.1 0 0.156 0.134 0 0.052 0.06 0 0.196 0.169 0 0.018 0.021 0c0.423,0.36 0.84,0.724 1.259,1.085l0 0.034 0.039 0c0.499,0.43 1.002,0.857 1.497,1.289l0 0.017 0.019 0c0.768,0.671 1.527,1.347 2.285,2.024l0 0.027 0.03 0c0.333,0.299 0.663,0.6 0.994,0.9l0 0.033 0.037 0c0.329,0.298 0.66,0.595 0.987,0.894l0 0.039 0.044 0c0.24,0.219 0.485,0.435 0.724,0.655l0 0.091 0.1 0 0.156 0.141 0 0.045 0.051 0 0.205 0.187 0 0 0.001 0 0.511 0.47 0 0.089 0.095 0 0.161 0.154 0 0.033 0.034 0c0.248,0.231 0.488,0.466 0.734,0.697l0 0.049 0.051 0c0.241,0.227 0.478,0.455 0.717,0.682l0 0.064 0.069 0 0.187 0.178 0 0.009 0.009 0 0.759 0.721 0 0.025 0.026 0c0.586,0.561 1.186,1.114 1.766,1.678 0.433,0.422 0.85,0.854 1.28,1.278l0 0.028 0.028 0 0.74 0.739 0 0.007 0.007 0 0.505 0.505 0 0.055 0.056 0c0.236,0.237 0.476,0.474 0.712,0.712l0 0.034 0.034 0 0.478 0.478 0 0.081 0.082 0 0.174 0.175 0 0.012 0.013 0c0.165,0.168 0.335,0.33 0.499,0.498l0 0.061 0.061 0c0.153,0.157 0.298,0.317 0.451,0.475l0 0.085 0.081 0 0.175 0.183 0 0.004 0.003 0c0.172,0.177 0.338,0.357 0.509,0.535l0 0.024 0.024 0 0.488 0.514 0 0.046 0.044 0c0.414,0.431 0.826,0.865 1.236,1.299l0 0.007 0.006 0c1.211,1.282 2.401,2.575 3.578,3.876l0 0.04 0.036 0 0.476 0.527 0 0.033 0.03 0 0.482 0.533 0 0.027 0.024 0c0.162,0.181 0.327,0.359 0.488,0.541l0 0.018 0.017 0 0.239 0.265 0 0.108 0.098 0 0.158 0.176 0 0.011 0.01 0 0.246 0.273 0 0.1 0.085 0c0.145,0.165 0.283,0.333 0.427,0.498l0 0.061 0.052 0c0.156,0.178 0.305,0.359 0.46,0.537l0 0.023 0.02 0c0.252,0.29 0.499,0.583 0.748,0.874l0 0.058 0.05 0 0.462 0.539 0 0.021 0.018 0c0.943,1.105 1.88,2.212 2.798,3.329l0 0.029 0.024 0c0.25,0.304 0.495,0.611 0.744,0.916l0 0.016 0.012 0 0.756 0.932 0 0.001 0.001 0 0.255 0.314 0 0.059 0.048 0c0.238,0.296 0.484,0.59 0.72,0.887l0 0.045 0.036 0 0.22 0.27 0 0.104 0.084 0 0.428 0.545 0 0.014 0.01 0 0.246 0.32 0 0.053 0.041 0 0.215 0.281 0 0.092 0.071 0c0.235,0.301 0.463,0.606 0.697,0.909l0 0.024 0.018 0 0.238 0.31 0 0.062 0.048 0c0.326,0.424 0.654,0.847 0.976,1.272l0 0.034 0.027 0c1.21,1.6 2.395,3.212 3.557,4.833l0 0.017 0.012 0 0.244 0.336 0 0.037 0.027 0 0.229 0.317 0 0.056 0.041 0 0.215 0.298 0 0.075 0.055 0 0.201 0.278 0 0.095 0.068 0 0.188 0.266 0 0.107 0.073 0 0.183 0.268 0 0.105 0.071 0 0.185 0.27 0 0.103 0.07 0 0.186 0.273 0 0.1 0.068 0 0.188 0.276 0 0.097 0.067 0 0.189 0.277 0 0.096 0.065 0c0.932,1.359 1.854,2.721 2.751,4.094l0 0.01 0.007 0c0.431,0.66 0.85,1.325 1.273,1.987l0 0.064 0.041 0 0.215 0.336 0 0.038 0.024 0 0.232 0.361 0 0.011 0.007 0c0.166,0.264 0.34,0.524 0.505,0.788l0 0.145 0.093 0 0.163 0.255 0 0.118 0.076 0 0.18 0.29 0 0.083 0.051 0 0.205 0.343 0 0.03 0.018 0c0.169,0.273 0.327,0.55 0.494,0.823l0 0.11 0.066 0 0.19 0.316 0 0.057 0.035 0 0.221 0.369 0 0.004 0.003 0 0.765 1.275 0 0.031 0.019 0c0.332,0.559 0.679,1.113 1.005,1.674l0 0.004 0.002 0c0.174,0.299 0.337,0.603 0.51,0.903l0 0.03 0.016 0c0.169,0.293 0.329,0.59 0.496,0.883l0 0.05 0.028 0 0.484 0.864 0 0.068 0.038 0 0.474 0.844 0 0.089 0.049 0 0.207 0.368 0 0.005 0.003 0 0.253 0.453 0 0.107 0.061 0 0.195 0.348 0 0.024 0.014 0c0.079,0.145 0.163,0.287 0.242,0.433l0 0.127 0.068 0 0.188 0.363 0 0.01 0.006 0c0.086,0.159 0.165,0.321 0.25,0.48l0 0.08 0.042 0c0.159,0.299 0.312,0.601 0.47,0.901l0 0.032 0.016 0 0.24 0.459 0 0.1 0.052 0 0.46 0.881 0 0.051 0.027 0c0.161,0.311 0.327,0.619 0.485,0.929l0 0.004 0.001 0c0.345,0.676 0.686,1.352 1.023,2.029l0 0.023 0.011 0 0.245 0.507 0 0.053 0.025 0 0.231 0.478 0 0.081 0.039 0c0.331,0.678 0.663,1.356 0.985,2.036l0 0.015 0.007 0c0.082,0.172 0.169,0.343 0.249,0.516l0 0.045 0.022 0 0.234 0.484 0 0.075 0.037 0 0.219 0.47 0 0.089 0.04 0c0.074,0.161 0.142,0.325 0.216,0.486l0 0.074 0.033 0c0.077,0.166 0.148,0.334 0.223,0.501l0 0.058 0.026 0 0.23 0.517 0 0.043 0.02 0 0.236 0.53 0 0.03 0.013 0 0.243 0.545 0 0.014 0.006 0c0.52,1.17 1.034,2.341 1.53,3.519l0 0.025 0.011 0c0.171,0.409 0.333,0.819 0.501,1.228l0 0.078 0.031 0 0.225 0.55 0 0.01 0.004 0 0.252 0.618 0 0.128 0.052 0 0.204 0.499 0 0.06 0.025 0c0.075,0.19 0.157,0.378 0.231,0.568l0 0.178 0.073 0c0.059,0.15 0.124,0.298 0.183,0.447l0 0.113 0.046 0 0.21 0.554 0 0.192 0.071 0c0.064,0.165 0.121,0.333 0.185,0.498l0 0.061 0.023 0c0.08,0.209 0.154,0.419 0.233,0.628l0 0.118 0.045 0c0.158,0.419 0.312,0.839 0.467,1.259l0 0.047 0.017 0c0.431,1.165 0.857,2.33 1.263,3.5l0 0.044 0.014 0c0.084,0.239 0.16,0.481 0.242,0.722l0 0.024 0.008 0 0.248 0.74 0 0.006 0.002 0 0.254 0.757 0 0.175 0.059 0 0.197 0.59 0 0.157 0.052 0 0.204 0.608 0 0.138 0.047 0c0.067,0.21 0.143,0.417 0.209,0.627l0 0.306 0.097 0c0.056,0.177 0.104,0.356 0.159,0.533l0 0.213 0.064 0c0.067,0.213 0.126,0.429 0.192,0.642l0 0.104 0.031 0 0.225 0.753 0 0.18 0.054 0 0.202 0.677 0 0.069 0.02 0c0.163,0.548 0.334,1.094 0.492,1.643l0 0.035 0.011 0c0.171,0.598 0.336,1.197 0.501,1.797l0 0.069 0.018 0c0.083,0.3 0.157,0.604 0.238,0.905l0 0.027 0.008 0 0.248 0.947 0 0.172 0.045 0 0.211 0.799 0 0.134 0.035 0c0.071,0.281 0.151,0.56 0.221,0.84l0 0.279 0.073 0c0.058,0.233 0.126,0.463 0.183,0.695l0 0.424 0.097 0c0.057,0.232 0.104,0.467 0.159,0.699l0 0.233 0.054 0c0.07,0.297 0.133,0.594 0.202,0.891l0 0.229 0.052 0 0.204 0.897 0 0.035 0.008 0c0.082,0.364 0.168,0.727 0.248,1.092l0 0.028 0.007 0c0.08,0.367 0.172,0.73 0.249,1.098l0 0.021 0.005 0c0.088,0.417 0.166,0.838 0.251,1.256l0 0.049 0.01 0c0.087,0.426 0.162,0.855 0.246,1.281l0 0.212 0.041 0 0.215 1.122 0 0.183 0.036 0c0.072,0.384 0.15,0.766 0.22,1.151l0 0.342 0.065 0 0.191 1.065 0 0.427 0.067 0c0.068,0.399 0.123,0.801 0.189,1.201l0 0.291 0.045 0c0.073,0.447 0.142,0.895 0.211,1.342l0 0.15 0.023 0c0.076,0.495 0.161,0.988 0.233,1.483l0 0.009 0.002 0c0.09,0.627 0.17,1.256 0.254,1.885l0 0.167 0.021 0c0.085,0.643 0.157,1.289 0.235,1.933l0 0.492 0.061 0c0.064,0.534 0.136,1.067 0.195,1.603l0 0.821 0.096 0c0.064,0.614 0.103,1.232 0.16,1.847l0 0.578 0.05 0c0.072,0.789 0.144,1.577 0.206,2.368l0 0.057 0.005 0c0.105,1.353 0.178,2.712 0.251,4.071l0 1.338 0.07 0c0.111,2.32 0.169,4.65 0.186,6.986l0 0.475 0.008 0c0.004,0.189 0.01,0.379 0.01,0.569l-0.002 0.55 -0.016 0 0 1.963c-0.023,1.651 -0.07,3.297 -0.139,4.939l-0.117 0 0 2.37c-0.07,1.264 -0.155,2.526 -0.252,3.785l-0.004 0 0 0.043c-0.056,0.733 -0.118,1.465 -0.184,2.195l-0.072 0 0 0.78c-0.046,0.486 -0.094,0.972 -0.144,1.458l-0.112 0 0 1.054c-0.05,0.458 -0.101,0.914 -0.155,1.371l-0.101 0 0 0.839c-0.056,0.467 -0.114,0.933 -0.175,1.399l-0.081 0 0 0.609c-0.072,0.544 -0.148,1.087 -0.226,1.63l-0.03 0 0 0.214c-0.079,0.551 -0.161,1.101 -0.246,1.65l-0.01 0 0 0.064 -0.196 1.243 -0.06 0 0 0.37 -0.187 1.122 -0.069 0 0 0.399 -0.159 0.907 -0.097 0 0 0.542 -0.14 0.763 -0.116 0 0 0.618 -0.168 0.874 -0.088 0 0 0.454 -0.17 0.852 -0.086 0 0 0.421 -0.222 1.071 -0.034 0 0 0.157 -0.246 1.148 -0.01 0 0 0.044c-0.16,0.733 -0.326,1.464 -0.496,2.195l-0.016 0 0 0.074 -0.201 0.859 -0.055 0 0 0.226 -0.17 0.706 -0.086 0 0 0.351 -0.19 0.768 -0.066 0 0 0.265 -0.169 0.668 -0.087 0 0 0.338 -0.154 0.594 -0.102 0 0 0.386 -0.144 0.547 -0.112 0 0 0.416 -0.19 0.703 -0.066 0 0 0.239 -0.192 0.694 -0.064 0 0 0.228 -0.199 0.704 -0.057 0 0 0.199 -0.211 0.734 -0.045 0 0 0.15 -0.368 1.251c0.981,0.332 1.957,0.672 2.928,1.018l0 0.006 0.015 0 0.497 0.179 0 0.007 0.02 0 0.492 0.179 0 0.008 0.025 0 0.487 0.177 0 0.01 0.025 0 0.487 0.18 0 0.006 0.016 0 0.24 0.089 0 0.097 0.265 0 0.247 0.092 0 0.095 0.252 0 0.26 0.099 0 0.088 0.232 0 0.28 0.106 0 0.08 0.211 0 0.301 0.115 0 0.071 0.185 0 0.327 0.128 0 0.059 0.153 0 0.359 0.139 0 0.048 0.121 0 0.391 0.153 0 0.033 0.083 0 0.429 0.171 0 0.015 0.039 0c1.19,0.474 2.373,0.958 3.545,1.452l0 0.041 0.096 0 0.416 0.177 0 0.009 0.021 0 0.747 0.319 0 0.054 0.126 0 0.386 0.168 0 0.019 0.043 0 0.725 0.316 0 0.057 0.13 0 0.382 0.17 0 0.016 0.037 0 0.219 0.098 0 0.089 0.201 0 0.311 0.138 0 0.049 0.107 0 0.405 0.183 0 0.003 0.006 0 0.25 0.114 0 0.072 0.16 0 0.352 0.161 0 0.026 0.059 0 0.197 0.09 0 0.097 0.208 0 0.304 0.142 0 0.044 0.096 0 0.672 0.312 0 0.061 0.129 0 0.383 0.182 0 0.005 0.01 0 0.758 0.361 0 0.012 0.026 0 0.742 0.359 0 0.014 0.029 0c0.504,0.245 1.007,0.491 1.507,0.74l0 0.006 0.012 0 1.012 0.507 0 0.052 0.102 0 0.666 0.337 0 0.037 0.071 0 0.697 0.36 0 0.012 0.024 0 0.232 0.12 0 0.067 0.129 0 0.639 0.336 0 0.037 0.072 0 0.184 0.098 0 0.089 0.17 0 0.342 0.181 0 0.005 0.01 0 0.246 0.133 0 0.054 0.101 0 0.155 0.083 0 0.103 0.191 0 0.321 0.173 0 0.014 0.026 0 0.23 0.124 0 0.062 0.114 0 0.654 0.359 0 0.014 0.025 0 0.231 0.127 0 0.06 0.109 0 0.659 0.368 0 0.004 0.008 0 0.248 0.139 0 0.048 0.086 0 0.938 0.532 0 0.028 0.049 0c0.844,0.482 1.68,0.97 2.511,1.464l0 0.028 0.047 0 0.209 0.124 0 0.062 0.104 0 0.92 0.555 0 0.005 0.009 0 0.247 0.151 0 0.036 0.06 0 0.196 0.119 0 0.067 0.11 0 0.146 0.091 0 0.096 0.156 0 0.868 0.537 0 0.022 0.035 0 0.221 0.14 0 0.047 0.074 0 0.182 0.115 0 0.071 0.114 0 0.142 0.09 0 0.097 0.154 0 0.87 0.557 0 0.002 0.004 0 0.252 0.163 0 0.024 0.038 0 0.218 0.14 0 0.047 0.072 0 0.184 0.12 0 0.066 0.1 0c3.895,2.542 7.62,5.217 11.164,8.017l0 0.004 0.004 0c0.515,0.407 1.025,0.817 1.532,1.229l0 0.076 0.093 0 0.163 0.132 0 0.054 0.067 0 0.189 0.154 0 0.033 0.04 0 0.216 0.179 0 0.008 0.009 0c0.253,0.209 0.508,0.418 0.759,0.628l0 0.118 0.14 0 0.116 0.098 0 0.089 0.106 0 0.15 0.127 0 0.059 0.069 0 0.187 0.157 0 0.029 0.035 0 0.733 0.627 0 0.119 0.138 0 0.118 0.102 0 0.085 0.099 0 0.157 0.136 0 0.05 0.059 0 0.197 0.174 0 0.013 0.016 0 0.752 0.662 0 0.084 0.095 0 0.161 0.145 0 0.041 0.046 0c0.415,0.37 0.826,0.741 1.234,1.114l0 0.006 0.006 0c0.601,0.55 1.198,1.104 1.786,1.662l0 0.016 0.017 0 0.495 0.471 0 0.089 0.093 0 0.163 0.157 0 0.029 0.03 0 0.482 0.468 0 0.092 0.095 0 0.161 0.156 0 0.03 0.031 0 0.481 0.476 0 0.084 0.086 0 0.17 0.169 0 0.017 0.017 0 0.239 0.237 0 0.137 0.135 0 0.121 0.122 0 0.065 0.063 0 0.449 0.452 0 0.107 0.105 0 0.151 0.154 0 0.032 0.03 0 0.482 0.497 0 0.063 0.061 0 0.451 0.469 0 0.091 0.085 0 0.171 0.18 0 0.006 0.007 0 0.505 0.534 0 0.026 0.024 0c0.51,0.544 1.013,1.092 1.512,1.643l0 0.035 0.032 0 0.48 0.536 0 0.024 0.021 0 0.235 0.263 0 0.11 0.098 0 0.158 0.178 0 0.008 0.008 0 0.248 0.285 0 0.088 0.078 0 0.434 0.499 0 0.061 0.053 0 0.203 0.236 0 0.137 0.117 0 0.139 0.162 0 0.025 0.02 0 0.236 0.276 0 0.097 0.083 0 0.173 0.205 0 0.168 0.14 0 0.116 0.139 0 0.047 0.04 0 0.216 0.259 0 0.114 0.095 0 0.417 0.506 0 0.054 0.044 0 0.212 0.26 0 0.113 0.092 0 0.42 0.52 0 0.039 0.031 0 0.225 0.281 0 0.093 0.074 0 0.438 0.555 0 0.004 0.004 0c0.205,0.262 0.411,0.523 0.613,0.786 0.216,-0.201 0.436,-0.399 0.652,-0.599l0.011 0 0 -0.011c0.333,-0.308 0.667,-0.616 1.004,-0.922l0.02 0 0 -0.019 0.183 -0.168 0.073 0 0 -0.065c0.252,-0.228 0.509,-0.454 0.762,-0.681l0.006 0 0 -0.006 0.203 -0.18 0.053 0 0 -0.048c0.332,-0.295 0.661,-0.592 0.995,-0.885l0.029 0 0 -0.025 0.186 -0.161 0.07 0 0 -0.061 1.003 -0.872 0.021 0 0 -0.017 0.194 -0.169 0.062 0 0 -0.054c0.416,-0.357 0.836,-0.711 1.256,-1.066l0.024 0 0 -0.02c0.585,-0.493 1.173,-0.984 1.767,-1.472l0.025 0 0 -0.021c0.677,-0.556 1.358,-1.108 2.045,-1.658l0.003 0 0 -0.003 0.23 -0.183 0.026 0 0 -0.021 0.207 -0.165 0.049 0 0 -0.04 0.185 -0.147 0.071 0 0 -0.057 0.163 -0.13 0.093 0 0 -0.075c0.844,-0.664 1.696,-1.322 2.554,-1.977l0.006 0 0 -0.005 0.241 -0.181 0.015 0 0 -0.011 0.231 -0.175 0.025 0 0 -0.019 0.222 -0.168 0.034 0 0 -0.025c0.986,-0.744 1.978,-1.483 2.983,-2.213l0.089 0 0 -0.064 0.172 -0.123 0.084 0 0 -0.06 0.176 -0.126 0.08 0 0 -0.057 0.182 -0.13 0.074 0 0 -0.053 0.186 -0.133 0.07 0 0 -0.05 0.191 -0.137 0.065 0 0 -0.046 0.196 -0.14 0.06 0 0 -0.043 0.201 -0.144 0.055 0 0 -0.04 0.205 -0.146 0.051 0 0 -0.037 0.215 -0.15 0.041 0 0 -0.028 0.227 -0.158 0.029 0 0 -0.02 0.239 -0.167 0.017 0 0 -0.012 0.251 -0.175 0.005 0 0 -0.003c1.263,-0.88 2.539,-1.75 3.83,-2.607l0.01 0 0 -0.007c0.656,-0.436 1.315,-0.869 1.978,-1.3l0.07 0 0 -0.045 0.222 -0.141 0.034 0 0 -0.022c0.472,-0.306 0.947,-0.609 1.423,-0.911l0.113 0 0 -0.072 0.178 -0.114 0.078 0 0 -0.05 0.219 -0.136 0.037 0 0 -0.024c0.485,-0.305 0.973,-0.607 1.461,-0.909l0.075 0 0 -0.047 0.225 -0.14 0.031 0 0 -0.019c0.498,-0.307 1,-0.61 1.502,-0.914l0.034 0 0 -0.02c0.506,-0.306 1.012,-0.61 1.522,-0.912l0.014 0 0 -0.009 1.252 -0.737 0.028 0 0 -0.017 0.933 -0.542 0.091 0 0 -0.052 0.236 -0.135 0.02 0 0 -0.012 0.958 -0.548 0.066 0 0 -0.037 0.92 -0.522 0.104 0 0 -0.058 0.232 -0.129 0.024 0 0 -0.013 0.983 -0.546 0.041 0 0 -0.023 0.973 -0.537 0.051 0 0 -0.027c0.326,-0.179 0.657,-0.355 0.984,-0.532l0.04 0 0 -0.022c0.919,-0.495 1.842,-0.986 2.771,-1.47l0.045 0 0 -0.024c0.223,-0.116 0.443,-0.234 0.666,-0.35l0.102 0 0 -0.053c0.33,-0.17 0.663,-0.337 0.995,-0.506l0.029 0 0 -0.015 0.704 -0.358 0.064 0 0 -0.033 0.668 -0.34 0.1 0 0 -0.05 0.655 -0.324 0.113 0 0 -0.055 0.642 -0.318 0.126 0 0 -0.062 0.251 -0.124 0.005 0 0 -0.003 0.754 -0.37 0.014 0 0 -0.007 0.763 -0.366 0.005 0 0 -0.002c1.177,-0.567 2.361,-1.126 3.554,-1.676l0.03 0 0 -0.014 1.192 -0.546 0.088 0 0 -0.04 0.739 -0.333 0.029 0 0 -0.014 0.385 -0.173 0.127 0 0 -0.057 0.703 -0.316 0.065 0 0 -0.028 0.361 -0.158 0.151 0 0 -0.066 0.704 -0.307 0.064 0 0 -0.028c0.406,-0.178 0.81,-0.356 1.218,-0.532l0.062 0 0 -0.026c0.419,-0.179 0.84,-0.355 1.262,-0.534l0.018 0 0 -0.008c1.188,-0.501 2.38,-0.998 3.582,-1.484l0.002 0 0 -0.001 0.459 -0.185 0.053 0 0 -0.022 0.416 -0.165 0.096 0 0 -0.038 0.375 -0.148 0.137 0 0 -0.054c0.425,-0.169 0.849,-0.339 1.276,-0.506l0.004 0 0 -0.001 0.478 -0.185 0.034 0 0 -0.013 0.453 -0.174 0.059 0 0 -0.023 0.428 -0.164 0.084 0 0 -0.032 0.404 -0.154 0.108 0 0 -0.042 0.377 -0.144 0.135 0 0 -0.052c1.987,-0.751 3.991,-1.479 6.014,-2.187l0.13 0 0 -0.045 0.412 -0.142 0.1 0 0 -0.034 0.439 -0.151 0.073 0 0 -0.025 0.47 -0.162 0.042 0 0 -0.015 0.499 -0.172 0.013 0 0 -0.004c0.365,-0.124 0.732,-0.246 1.099,-0.369l0.181 0 0 -0.06 0.381 -0.126 0.131 0 0 -0.044 0.431 -0.143 0.081 0 0 -0.027 0.481 -0.16 0.031 0 0 -0.01c0.761,-0.249 1.526,-0.493 2.292,-0.736l0.012 0 0 -0.004c0.591,-0.187 1.183,-0.371 1.776,-0.555l0.016 0 0 -0.005 1.198 -0.368 0.082 0 0 -0.026 1.157 -0.347 0.123 0 0 -0.036 0.51 -0.151 0.002 0 0 0 0.63 -0.186 0.138 0 0 -0.041 0.495 -0.146 0.017 0 0 -0.005 0.628 -0.181 0.14 0 0 -0.04c0.392,-0.112 0.785,-0.223 1.177,-0.333l0.103 0 0 -0.029c0.407,-0.115 0.813,-0.231 1.221,-0.345l0.059 0 0 -0.016c1.606,-0.444 3.222,-0.872 4.846,-1.289l0.018 0 0 -0.005 0.702 -0.182 0.066 0 0 -0.016 0.686 -0.17 0.082 0 0 -0.021 0.67 -0.166 0.098 0 0 -0.024 0.654 -0.162 0.114 0 0 -0.028 0.643 -0.159 0.125 0 0 -0.029 0.665 -0.157 0.103 0 0 -0.025 0.684 -0.162 0.084 0 0 -0.019 0.707 -0.167 0.061 0 0 -0.015 0.744 -0.172 0.024 0 0 -0.005c1.686,-0.387 3.381,-0.758 5.084,-1.114l0.036 0 0 -0.008 0.857 -0.178 0.167 0 0 -0.034 0.759 -0.153 0.265 0 0 -0.053 0.66 -0.134 0.108 0 0 -0.021 0.827 -0.165 0.197 0 0 -0.038 0.782 -0.149 0.242 0 0 -0.046 0.734 -0.14 0.034 0 0 -0.006 0.951 -0.181 0.073 0 0 -0.013 0.968 -0.173 0.056 0 0 -0.01 0.985 -0.177 0.039 0 0 -0.006c0.337,-0.061 0.674,-0.122 1.012,-0.18l0.012 0 0 -0.002c0.735,-0.127 1.471,-0.25 2.209,-0.371l0.095 0 0 -0.016 1.051 -0.171 0.229 0 0 -0.036 0.959 -0.15 0.321 0 0 -0.051 0.865 -0.135 0.415 0 0 -0.063 0.853 -0.124 0.171 0 0 -0.025c0.369,-0.054 0.737,-0.11 1.107,-0.162l0.173 0 0 -0.025 1.154 -0.162 0.126 0 0 -0.017 1.253 -0.168 0.027 0 0 -0.004c0.961,-0.128 1.924,-0.251 2.889,-0.37l0.183 0 0 -0.023c0.449,-0.055 0.897,-0.111 1.348,-0.164l0.444 0 0 -0.05 1.204 -0.136 0.332 0 0 -0.038 1.362 -0.148 0.43 0 0 -0.044c0.465,-0.049 0.93,-0.097 1.395,-0.143l0.397 0 0 -0.04c0.516,-0.051 1.034,-0.098 1.551,-0.147l0.241 0 0 -0.022c1.368,-0.126 2.741,-0.243 4.117,-0.35l0.491 0 0 -0.04c0.685,-0.052 1.374,-0.099 2.061,-0.147l0.755 0 0 -0.053c0.715,-0.047 1.431,-0.091 2.147,-0.133l0.925 0 0 -0.055c0.853,-0.048 1.708,-0.091 2.562,-0.132l0.254 0 0 -0.012c1.436,-0.068 2.874,-0.128 4.316,-0.175l2.34 0 0 -0.063c2.472,-0.062 4.953,-0.096 7.445,-0.096 3.167,0 6.316,0.056 9.451,0.154l0 0.005 0.156 0c1.488,0.047 2.972,0.106 4.452,0.175l0 0.012 0.246 0c2.059,0.098 4.112,0.21 6.154,0.349l0 0.024 0.319 0c2.294,0.159 4.577,0.347 6.849,0.557l0 0.002 0.03 0c0.589,0.055 1.175,0.112 1.762,0.17l0 0.017 0.165 0c2.259,0.225 4.51,0.47 6.747,0.745l0 0.001 0.011 0c3.092,0.38 6.159,0.814 9.205,1.289l0 0.017 0.104 0 1.176 0.185 0 0.001 0.006 0c1.111,0.178 2.217,0.363 3.322,0.554l0 0.006 0.033 0 0.991 0.17 0 0.016 0.092 0 0.932 0.165 0 0.022 0.119 0c0.302,0.054 0.603,0.113 0.905,0.169l0 0.017 0.097 0c1.596,0.294 3.185,0.602 4.767,0.922l0 0.011 0.056 0c0.58,0.118 1.16,0.233 1.736,0.354l0 0.019 0.092 0c0.568,0.119 1.134,0.242 1.7,0.365l0 0.008 0.036 0c0.843,0.183 1.685,0.367 2.524,0.557l0 0.003 0.014 0c2.837,0.64 5.648,1.324 8.434,2.047l0 0.005 0.02 0c0.935,0.242 1.867,0.488 2.796,0.74l0 0.006 0.021 0c0.677,0.183 1.353,0.367 2.027,0.555l0 0.004 0.016 0c1.281,0.358 2.555,0.723 3.824,1.098l0 0.021 0.073 0c0.404,0.12 0.805,0.243 1.207,0.364l0 0.009 0.028 0c1.795,0.541 3.578,1.097 5.348,1.671l0 0.008 0.025 0c0.935,0.303 1.864,0.613 2.791,0.925l0 0.007 0.023 0c3.807,1.284 7.557,2.643 11.241,4.08l0 0.024 0.061 0 0.451 0.173 0 0.014 0.034 0c0.933,0.365 1.858,0.74 2.782,1.115l0 0.004 0.009 0c0.596,0.242 1.19,0.489 1.783,0.736l0 0.01 0.024 0c0.59,0.245 1.182,0.49 1.768,0.739l0 0.007 0.016 0c0.423,0.18 0.843,0.363 1.264,0.544l0 0.015 0.034 0c1.537,0.664 3.062,1.342 4.574,2.032l0 0.02 0.044 0c0.67,0.306 1.339,0.616 2.004,0.927l0 0.006 0.012 0c1.805,0.845 3.596,1.704 5.364,2.587l0 0.024 0.048 0c0.242,0.121 0.479,0.245 0.72,0.367l0 0.006 0.013 0c1.806,0.91 3.597,1.839 5.363,2.788l0 0.01 0.02 0c0.337,0.181 0.669,0.365 1.004,0.548l0 0.012 0.021 0 1.003 0.549 0 0.01 0.019 0c1.111,0.612 2.214,1.231 3.309,1.858l0 0.007 0.011 0c0.424,0.243 0.848,0.485 1.269,0.73l0 0.017 0.028 0c0.419,0.244 0.835,0.491 1.252,0.738l0 0.008 0.013 0c1.548,0.915 3.082,1.843 4.595,2.789l0 0.008 0.013 0c1.465,0.915 2.908,1.847 4.339,2.79l0 0.008 0.013 0c4.063,2.679 7.989,5.467 11.763,8.361l0 0.033 0.044 0 0.212 0.164 0 0.023 0.028 0 0.228 0.178 0 0.008 0.011 0c1.033,0.797 2.051,1.604 3.061,2.417l0 0.008 0.009 0c0.684,0.55 1.365,1.103 2.039,1.66l0 0.018 0.022 0c1.468,1.217 2.912,2.451 4.331,3.7l0 0.031 0.035 0c0.418,0.369 0.83,0.741 1.244,1.113l0 0.006 0.006 0c0.687,0.616 1.368,1.236 2.042,1.861l0 0.004 0.005 0c0.599,0.555 1.198,1.111 1.787,1.672l0 0.007 0.007 0c0.256,0.244 0.506,0.492 0.761,0.737l0 0.009 0.009 0 0.759 0.735 0 0.011 0.012 0c0.947,0.924 1.884,1.854 2.804,2.794l0 0.004 0.004 0 0.508 0.526 0 0.033 0.032 0c0.419,0.432 0.835,0.867 1.248,1.303l0 0.003 0.003 0c1.22,1.285 2.412,2.584 3.581,3.897l0 0.02 0.019 0 0.493 0.556 0 0.004 0.004 0c0.865,0.981 1.72,1.967 2.556,2.964l0 0.02 0.017 0c0.254,0.301 0.5,0.606 0.751,0.909l0 0.023 0.019 0c0.864,1.045 1.71,2.098 2.541,3.158l0 0.013 0.011 0c0.34,0.434 0.679,0.868 1.013,1.304l0 0.002 0.001 0c2.654,3.459 5.126,7.001 7.423,10.615l0 0.017 0.01 0c0.317,0.497 0.637,0.992 0.945,1.492l-1318.587 0z"/>
  </g>
 </g>
</svg>
